<?xml version="1.0" encoding="UTF-8" standalone="no"?><!-- Generator: Gravit.io --><svg xmlns="http://www.w3.org/2000/svg" xmlns:xlink="http://www.w3.org/1999/xlink" style="isolation:isolate" viewBox="0 0 3000 2000" width="3000pt" height="2000pt"><defs><clipPath id="_clipPath_gjx40h9U4AX9nj6trPwW68KMmlgfrrPf"><rect width="3000" height="2000"/></clipPath></defs><g clip-path="url(#_clipPath_gjx40h9U4AX9nj6trPwW68KMmlgfrrPf)"><g><path d=" M 2886.92 1768.03 L 113.078 1768.03 C 111.167 1768.03 109.604 1766.47 109.604 1764.56 L 109.604 1764.56 C 109.604 1762.65 111.167 1761.08 113.078 1761.08 L 2886.92 1761.08 C 2888.83 1761.08 2890.4 1762.65 2890.4 1764.56 L 2890.4 1764.56 C 2890.4 1766.47 2888.83 1768.03 2886.92 1768.03 Z " fill="rgb(46,53,82)"/><path d=" M 1795.4 1154.04 C 1795.4 1084.28 1851.94 1027.73 1921.7 1027.73 C 1991.46 1027.73 2048 1084.28 2048 1154.04 C 2048 1223.79 1991.46 1280.34 1921.7 1280.34 C 1851.94 1280.34 1795.4 1223.79 1795.4 1154.04 Z " fill="rgb(226,129,14)"/><path d=" M 1784.38 1134.04 C 1784.38 1064.28 1840.93 1007.73 1910.68 1007.73 C 1980.44 1007.73 2036.99 1064.28 2036.99 1134.04 C 2036.99 1203.79 1980.44 1260.34 1910.68 1260.34 C 1840.93 1260.34 1784.38 1203.79 1784.38 1134.04 Z " fill="rgb(255,185,62)"/><path d=" M 1910.68 1027.32 C 1881.78 1027.32 1854.6 1038.57 1834.16 1059.01 C 1813.73 1079.45 1802.47 1106.62 1802.47 1135.53 C 1802.47 1164.43 1813.73 1191.61 1834.16 1212.04 C 1854.6 1232.48 1881.78 1243.74 1910.68 1243.74 C 1939.59 1243.74 1966.76 1232.48 1987.2 1212.04 C 2007.64 1191.61 2018.89 1164.43 2018.89 1135.53 C 2018.89 1106.62 2007.64 1079.45 1987.2 1059.01 C 1966.76 1038.57 1939.59 1027.32 1910.68 1027.32 Z  M 1910.68 1250.6 C 1879.94 1250.6 1851.04 1238.63 1829.31 1216.9 C 1807.57 1195.16 1795.6 1166.27 1795.6 1135.53 C 1795.6 1104.79 1807.57 1075.89 1829.31 1054.16 C 1851.04 1032.42 1879.94 1020.45 1910.68 1020.45 C 1941.42 1020.45 1970.32 1032.42 1992.05 1054.16 C 2013.79 1075.89 2025.76 1104.79 2025.76 1135.53 C 2025.76 1166.27 2013.79 1195.16 1992.05 1216.9 C 1970.32 1238.63 1941.42 1250.6 1910.68 1250.6 Z " fill="rgb(255,164,18)"/><path d=" M 1926.52 1168.93 C 1926.82 1166.45 1926.73 1164.22 1926.25 1162.24 C 1925.78 1160.27 1924.83 1158.42 1923.43 1156.7 C 1922.02 1154.97 1920.14 1153.31 1917.78 1151.71 C 1915.42 1150.11 1912.5 1148.48 1909.02 1146.81 C 1903.05 1143.88 1897.66 1140.92 1892.85 1137.92 C 1888.05 1134.93 1884.02 1131.65 1880.76 1128.08 C 1877.51 1124.52 1875.13 1120.53 1873.62 1116.09 C 1872.12 1111.66 1871.71 1106.55 1872.4 1100.76 C 1872.99 1095.73 1874.42 1091.26 1876.7 1087.33 C 1878.97 1083.41 1881.94 1080.11 1885.61 1077.43 C 1889.29 1074.75 1893.54 1072.72 1898.38 1071.35 C 1903.22 1069.98 1908.54 1069.36 1914.32 1069.51 L 1916.57 1050.54 L 1931.84 1052.35 L 1929.56 1071.59 C 1934.94 1072.95 1939.73 1074.98 1943.93 1077.7 C 1948.12 1080.41 1951.57 1083.7 1954.27 1087.55 C 1956.97 1091.41 1958.89 1095.81 1960.01 1100.77 C 1961.13 1105.73 1961.34 1111.16 1960.64 1117.07 L 1933.06 1113.8 C 1933.91 1106.71 1932.96 1101.22 1930.23 1097.33 C 1927.5 1093.44 1923.49 1091.18 1918.21 1090.55 C 1915.35 1090.21 1912.84 1090.32 1910.68 1090.87 C 1908.51 1091.42 1906.68 1092.32 1905.18 1093.54 C 1903.68 1094.78 1902.5 1096.3 1901.64 1098.11 C 1900.78 1099.93 1900.22 1101.93 1899.96 1104.12 C 1899.7 1106.3 1899.78 1108.32 1900.21 1110.17 C 1900.63 1112.02 1901.54 1113.79 1902.92 1115.48 C 1904.3 1117.17 1906.2 1118.83 1908.62 1120.47 C 1911.03 1122.1 1914.07 1123.86 1917.72 1125.73 C 1923.61 1128.76 1928.95 1131.79 1933.72 1134.82 C 1938.48 1137.84 1942.5 1141.15 1945.75 1144.74 C 1949 1148.33 1951.38 1152.34 1952.88 1156.77 C 1954.39 1161.21 1954.8 1166.29 1954.12 1172.02 C 1953.5 1177.22 1952.04 1181.78 1949.74 1185.7 C 1947.44 1189.63 1944.45 1192.9 1940.79 1195.52 C 1937.12 1198.14 1932.84 1200.09 1927.95 1201.36 C 1923.06 1202.64 1917.71 1203.21 1911.93 1203.06 L 1909.83 1220.7 L 1894.66 1218.9 L 1896.75 1201.35 C 1891.53 1200.19 1886.56 1198.43 1881.84 1196.07 C 1877.12 1193.72 1873.05 1190.64 1869.63 1186.85 C 1866.21 1183.06 1863.66 1178.49 1861.97 1173.13 C 1860.28 1167.78 1859.86 1161.56 1860.7 1154.47 L 1888.28 1157.74 C 1887.78 1161.93 1887.95 1165.51 1888.8 1168.45 C 1889.64 1171.4 1890.95 1173.83 1892.72 1175.75 C 1894.49 1177.67 1896.59 1179.11 1899.03 1180.09 C 1901.46 1181.07 1903.98 1181.71 1906.59 1182.02 C 1909.58 1182.38 1912.24 1182.3 1914.59 1181.8 C 1916.94 1181.3 1918.96 1180.46 1920.65 1179.29 C 1922.34 1178.11 1923.67 1176.63 1924.66 1174.86 C 1925.64 1173.09 1926.26 1171.12 1926.52 1168.93 Z " fill="rgb(255,164,18)"/><path d=" M 363.089 1746.2 C 313.729 1661.74 248.342 1468.55 284.104 1296.93 C 301.854 1211.75 343.338 1124.05 423.809 1043.8 C 719.749 748.723 974.28 912.209 1103.41 904.009 C 1126.56 902.541 1146.89 893.027 1166.87 877.958 C 1203.48 850.343 1238.91 804.062 1288.34 754.38 C 1362.42 679.911 1501.83 521.163 1689.9 482.79 C 1922.62 435.307 2242.3 448.616 2380.62 591.323 C 2464.28 677.651 2447.68 887.961 2339.2 1084.17 C 2317.28 1123.79 2287.28 1164.6 2279.41 1214.11 C 2272.25 1259.13 2288.69 1291 2318.16 1317.22 C 2384.77 1376.51 2517.55 1406.79 2594.91 1494.77 C 2655.66 1563.78 2663.89 1649.49 2646.35 1740.91 C 2646.27 1741.35 2646.18 1741.79 2646.09 1742.24 L 363.089 1746.2 Z " fill="rgb(235,243,250)"/><path d=" M 2530.85 1750.81 L 2022.13 1740.25 L 1635.35 1739.03 L 1623.58 1738.98 L 1596.35 1738.9 C 1347.66 1596.11 1271.87 1446.39 1271.87 1446.39 C 1280.77 1444.09 1917.22 1308.37 2346.58 1338.64 C 2381.01 1361.16 2424.51 1380.49 2467.89 1403.15 C 2491.84 1415.67 2515.75 1429.2 2538.07 1444.84 C 2617.63 1500.59 2561.76 1591.76 2530.85 1750.81 Z " fill="rgb(225,239,255)"/><path d=" M 2531.85 1741.1 L 363.092 1746.2 C 363.092 1746.2 236.58 1525 284.104 1296.93 C 312.267 1316.73 344.198 1331.07 364.48 1314.75 C 390.083 1294.15 463.394 1233.96 518.911 1188.33 L 518.927 1188.32 C 557.115 1156.92 586.878 1132.41 586.878 1132.41 C 586.878 1132.41 618.072 1101.37 638.475 1110.06 C 647.916 1114.08 657.108 1123.7 665.198 1132.5 C 665.253 1132.54 665.277 1132.57 665.277 1132.57 C 674.638 1142.75 682.535 1151.79 687.681 1149.8 C 692.337 1147.99 726.572 1111.77 766.375 1071.54 C 808.7 1028.74 857.313 981.38 883.291 966.024 C 883.291 966.024 907.453 940.402 933.688 969.749 C 947.122 984.775 967.787 1023.18 990.877 1069.36 C 1044.15 1175.88 1110.32 1323.81 1130.41 1321.84 C 1159.21 1319.02 1314.4 1139.89 1341.6 1133.26 C 1368.81 1126.64 1548.03 1425.24 1600.84 1435.17 C 1653.65 1445.11 1588.72 1406.65 1670.34 1431.48 C 1751.96 1456.32 1883.98 1595.41 2006.41 1570.58 C 2104.39 1550.7 2327.82 1519.46 2469.79 1483.99 C 2579.1 1541.1 2571.44 1537.41 2531.85 1741.1 Z " fill="rgb(217,233,252)"/><path d=" M 990.877 1069.36 C 978.213 1073.59 960.586 1075.85 958.394 1058.25 C 955.193 1032.58 883.987 1082.25 847.183 1093.02 C 810.38 1103.78 831.182 1059.9 830.383 1047.48 C 829.894 1039.89 794.114 1057.05 766.375 1071.54 C 808.7 1028.74 857.313 981.38 883.291 966.024 C 883.291 966.024 907.453 940.402 933.688 969.749 C 947.122 984.775 967.787 1023.18 990.877 1069.36 Z " fill="rgb(248,251,255)"/><path d=" M 665.198 1132.5 C 664.39 1131.74 657.533 1125.94 645.027 1132.57 C 631.698 1139.65 614.097 1143.51 606.096 1141.03 C 598.095 1138.55 518.911 1188.33 518.911 1188.33 L 518.927 1188.32 C 557.115 1156.92 586.878 1132.41 586.878 1132.41 C 586.878 1132.41 618.072 1101.37 638.475 1110.06 C 647.916 1114.08 657.108 1123.7 665.198 1132.5 Z " fill="rgb(248,251,255)"/><path d=" M 2639.85 1483.99 C 2619.85 1378.45 2602.27 1361.81 2602.27 1361.81 C 2602.27 1361.81 2623.27 1092.84 2515.27 1014.27 C 2407.27 935.705 2410.83 1260.58 2282.94 1092.23 C 1968.97 678.947 1875.13 1772.67 1351.18 1629.88 C 890.136 1504.24 861.848 1309.66 703.848 1300.08 C 545.848 1290.5 531.848 1642.31 437.848 1566.77 C 343.848 1491.23 151.848 1591.56 219.848 1741.1 L 2555.85 1745.47 C 2555.85 1745.47 2664.8 1615.68 2639.85 1483.99 Z " fill="rgb(168,210,159)"/><path d=" M 2159.23 1240.29 L 2159.23 1254.3 C 2159.23 1255.41 2158.89 1256.45 2158.3 1257.31 C 2157.69 1258.22 2156.8 1258.93 2155.77 1259.33 C 2155.45 1259.46 2155.12 1259.55 2154.78 1259.61 C 2154.47 1259.67 2154.15 1259.7 2153.83 1259.7 L 1930.66 1259.7 C 1927.78 1259.7 1925.41 1257.42 1925.26 1254.57 C 1925.26 1254.48 1925.26 1254.39 1925.26 1254.3 L 1925.26 1240.29 C 1925.26 1240.19 1925.26 1240.1 1925.26 1240.01 C 1925.41 1237.17 1927.78 1234.89 1930.66 1234.89 L 2153.83 1234.89 C 2154.15 1234.89 2154.47 1234.92 2154.78 1234.97 C 2155.12 1235.03 2155.45 1235.13 2155.77 1235.25 C 2156.8 1235.65 2157.69 1236.36 2158.3 1237.27 C 2158.89 1238.13 2159.23 1239.17 2159.23 1240.29 Z " fill="rgb(255,185,62)"/><path d=" M 2049.64 1259.7 L 1930.08 1259.7 C 1927.51 1259.7 1925.4 1257.42 1925.26 1254.57 C 1925.26 1254.48 1925.26 1254.39 1925.26 1254.3 L 1925.26 1240.29 C 1925.26 1240.19 1925.26 1240.1 1925.26 1240.01 C 1925.4 1237.17 1927.51 1234.89 1930.08 1234.89 L 2034.96 1234.89 C 2036.63 1242.19 2040.54 1252.29 2049.64 1259.7 Z " fill="rgb(255,164,18)"/><path d=" M 2132.07 1259.7 L 2129.54 1259.7 L 2129.54 1234.89 L 2132.07 1234.89 L 2132.07 1259.7 Z " fill="rgb(255,164,18)"/><path d=" M 2123.49 1259.7 L 2120.95 1259.7 L 2120.95 1234.89 L 2123.49 1234.89 L 2123.49 1259.7 Z " fill="rgb(255,164,18)"/><path d=" M 2113.19 1259.7 L 2110.65 1259.7 L 2110.65 1234.89 L 2113.19 1234.89 L 2113.19 1259.7 Z " fill="rgb(255,164,18)"/><path d=" M 2097.41 1259.7 L 2094.87 1259.7 L 2094.87 1234.89 L 2097.41 1234.89 L 2097.41 1259.7 Z " fill="rgb(255,164,18)"/><path d=" M 2080.72 1259.7 L 2078.18 1259.7 L 2078.18 1234.89 L 2080.72 1234.89 L 2080.72 1259.7 Z " fill="rgb(255,164,18)"/><path d=" M 2055.14 1259.7 L 2052.6 1259.7 L 2052.6 1234.89 L 2055.14 1234.89 L 2055.14 1259.7 Z " fill="rgb(255,164,18)"/><path d=" M 2031.18 1259.7 L 2028.64 1259.7 L 2028.64 1234.89 L 2031.18 1234.89 L 2031.18 1259.7 Z " fill="rgb(255,164,18)"/><path d=" M 2009.79 1259.7 L 2007.25 1259.7 L 2007.25 1234.89 L 2009.79 1234.89 L 2009.79 1259.7 Z " fill="rgb(255,164,18)"/><path d=" M 2140.25 1259.7 L 2137.71 1259.7 L 2137.71 1234.89 L 2140.25 1234.89 L 2140.25 1259.7 Z " fill="rgb(255,164,18)"/><path d=" M 2145.64 1259.7 L 2143.11 1259.7 L 2143.11 1234.89 L 2145.64 1234.89 L 2145.64 1259.7 Z " fill="rgb(255,164,18)"/><path d=" M 2150.86 1259.7 L 2148.32 1259.7 L 2148.32 1234.89 L 2150.86 1234.89 L 2150.86 1259.7 Z " fill="rgb(255,164,18)"/><path d=" M 2154.78 1234.97 L 2154.78 1259.61 C 2154.47 1259.67 2154.15 1259.7 2153.83 1259.7 L 2152.24 1259.7 L 2152.24 1234.89 L 2153.83 1234.89 C 2154.15 1234.89 2154.47 1234.92 2154.78 1234.97 Z " fill="rgb(255,164,18)"/><path d=" M 2158.3 1237.27 L 2158.3 1257.31 C 2157.69 1258.22 2156.8 1258.93 2155.77 1259.33 L 2155.77 1235.25 C 2156.8 1235.65 2157.69 1236.36 2158.3 1237.27 Z " fill="rgb(255,164,18)"/><path d=" M 2135.37 1215.48 L 2135.37 1229.49 C 2135.37 1230.6 2135.03 1231.64 2134.44 1232.5 C 2133.83 1233.41 2132.94 1234.12 2131.91 1234.52 C 2131.59 1234.65 2131.26 1234.74 2130.92 1234.8 C 2130.61 1234.86 2130.29 1234.89 2129.97 1234.89 L 1906.8 1234.89 C 1903.92 1234.89 1901.55 1232.61 1901.4 1229.76 C 1901.4 1229.67 1901.4 1229.58 1901.4 1229.49 L 1901.4 1215.48 C 1901.4 1215.38 1901.4 1215.29 1901.4 1215.2 C 1901.55 1212.36 1903.92 1210.08 1906.8 1210.08 L 2129.97 1210.08 C 2130.11 1210.08 2130.25 1210.08 2130.39 1210.09 C 2130.45 1210.1 2130.52 1210.1 2130.58 1210.11 C 2130.64 1210.12 2130.71 1210.13 2130.78 1210.14 C 2130.82 1210.14 2130.87 1210.15 2130.92 1210.16 C 2131.26 1210.22 2131.59 1210.31 2131.91 1210.44 C 2131.96 1210.46 2132 1210.48 2132.05 1210.5 C 2132.09 1210.51 2132.14 1210.54 2132.19 1210.56 C 2132.28 1210.6 2132.37 1210.64 2132.46 1210.69 C 2132.51 1210.71 2132.56 1210.75 2132.61 1210.77 C 2132.66 1210.8 2132.71 1210.83 2132.75 1210.85 C 2132.84 1210.91 2132.92 1210.96 2133 1211.02 C 2133.1 1211.08 2133.19 1211.15 2133.28 1211.22 C 2133.35 1211.28 2133.42 1211.33 2133.49 1211.39 C 2133.49 1211.4 2133.5 1211.4 2133.5 1211.4 C 2133.55 1211.44 2133.59 1211.49 2133.64 1211.53 C 2133.78 1211.65 2133.91 1211.79 2134.03 1211.93 C 2134.07 1211.97 2134.1 1212.01 2134.14 1212.05 C 2134.17 1212.1 2134.21 1212.14 2134.24 1212.19 C 2134.31 1212.28 2134.38 1212.37 2134.44 1212.46 C 2135.03 1213.32 2135.37 1214.36 2135.37 1215.48 Z " fill="rgb(255,185,62)"/><path d=" M 2025.78 1234.89 L 1906.22 1234.89 C 1903.65 1234.89 1901.53 1232.61 1901.4 1229.76 C 1901.4 1229.67 1901.4 1229.58 1901.4 1229.49 L 1901.4 1215.48 C 1901.4 1215.38 1901.4 1215.29 1901.4 1215.2 C 1901.53 1212.36 1903.65 1210.08 1906.22 1210.08 L 2011.09 1210.08 C 2011.14 1210.28 2011.19 1210.48 2011.24 1210.69 C 2012.99 1217.94 2016.92 1227.69 2025.78 1234.89 Z " fill="rgb(255,164,18)"/><path d=" M 2108.21 1234.89 L 2105.67 1234.89 L 2105.67 1210.08 L 2108.21 1210.08 L 2108.21 1234.89 Z " fill="rgb(255,164,18)"/><path d=" M 2099.63 1234.89 L 2097.09 1234.89 L 2097.09 1210.08 L 2099.63 1210.08 L 2099.63 1234.89 Z " fill="rgb(255,164,18)"/><path d=" M 2089.33 1234.89 L 2086.79 1234.89 L 2086.79 1210.08 L 2089.33 1210.08 L 2089.33 1234.89 Z " fill="rgb(255,164,18)"/><path d=" M 2073.55 1234.89 L 2071.01 1234.89 L 2071.01 1210.08 L 2073.55 1210.08 L 2073.55 1234.89 Z " fill="rgb(255,164,18)"/><path d=" M 2056.86 1234.89 L 2054.32 1234.89 L 2054.32 1210.08 L 2056.86 1210.08 L 2056.86 1234.89 Z " fill="rgb(255,164,18)"/><path d=" M 2031.27 1234.89 L 2028.74 1234.89 L 2028.74 1210.08 L 2031.27 1210.08 L 2031.27 1234.89 Z " fill="rgb(255,164,18)"/><path d=" M 2007.32 1234.89 L 2004.78 1234.89 L 2004.78 1210.08 L 2007.32 1210.08 L 2007.32 1234.89 Z " fill="rgb(255,164,18)"/><path d=" M 1985.93 1234.89 L 1983.39 1234.89 L 1983.39 1210.08 L 1985.93 1210.08 L 1985.93 1234.89 Z " fill="rgb(255,164,18)"/><path d=" M 2116.38 1234.89 L 2113.85 1234.89 L 2113.85 1210.08 L 2116.38 1210.08 L 2116.38 1234.89 Z " fill="rgb(255,164,18)"/><path d=" M 2121.78 1234.89 L 2119.25 1234.89 L 2119.25 1210.08 L 2121.78 1210.08 L 2121.78 1234.89 Z " fill="rgb(255,164,18)"/><path d=" M 2127 1234.89 L 2124.46 1234.89 L 2124.46 1210.08 L 2127 1210.08 L 2127 1234.89 Z " fill="rgb(255,164,18)"/><path d=" M 2130.92 1210.16 L 2130.92 1234.8 C 2130.61 1234.86 2130.29 1234.89 2129.97 1234.89 L 2128.38 1234.89 L 2128.38 1210.08 L 2129.97 1210.08 C 2130.29 1210.08 2130.61 1210.11 2130.92 1210.16 Z " fill="rgb(255,164,18)"/><path d=" M 2134.44 1212.46 L 2134.44 1232.5 C 2133.83 1233.41 2132.94 1234.12 2131.91 1234.52 L 2131.91 1210.44 C 2132.94 1210.84 2133.83 1211.55 2134.44 1212.46 Z " fill="rgb(255,164,18)"/><path d=" M 2146.9 1191.28 L 2146.9 1205.29 C 2146.9 1206.4 2146.56 1207.44 2145.97 1208.3 C 2145.36 1209.21 2144.47 1209.92 2143.44 1210.32 C 2143.12 1210.45 2142.79 1210.54 2142.45 1210.6 C 2142.14 1210.66 2141.82 1210.69 2141.5 1210.69 L 1918.33 1210.69 C 1917.43 1210.69 1916.58 1210.47 1915.84 1210.08 C 1914.26 1209.25 1913.13 1207.66 1912.95 1205.81 C 1912.94 1205.73 1912.94 1205.65 1912.93 1205.57 C 1912.93 1205.47 1912.93 1205.38 1912.93 1205.29 L 1912.93 1191.28 C 1912.93 1191.19 1912.93 1191.09 1912.93 1191 C 1913.08 1188.16 1915.45 1185.88 1918.33 1185.88 L 2141.5 1185.88 C 2141.82 1185.88 2142.14 1185.91 2142.45 1185.96 C 2142.79 1186.02 2143.12 1186.12 2143.44 1186.24 C 2144.47 1186.64 2145.36 1187.36 2145.97 1188.26 C 2146.56 1189.13 2146.9 1190.16 2146.9 1191.28 Z " fill="rgb(255,185,62)"/><path d=" M 2037.31 1210.69 L 1917.75 1210.69 C 1916.95 1210.69 1916.19 1210.47 1915.53 1210.08 C 1914.12 1209.25 1913.11 1207.66 1912.95 1205.81 C 1912.94 1205.73 1912.94 1205.65 1912.93 1205.57 C 1912.93 1205.47 1912.93 1205.38 1912.93 1205.29 L 1912.93 1191.28 C 1912.93 1191.19 1912.93 1191.09 1912.93 1191 C 1913.06 1188.16 1915.18 1185.88 1917.75 1185.88 L 2022.63 1185.88 C 2024.26 1192.98 2027.99 1202.73 2036.58 1210.08 C 2036.82 1210.28 2037.06 1210.49 2037.31 1210.69 Z " fill="rgb(255,164,18)"/><path d=" M 2119.74 1210.69 L 2117.21 1210.69 L 2117.21 1185.88 L 2119.74 1185.88 L 2119.74 1210.69 Z " fill="rgb(255,164,18)"/><path d=" M 2111.16 1210.69 L 2108.62 1210.69 L 2108.62 1185.88 L 2111.16 1185.88 L 2111.16 1210.69 Z " fill="rgb(255,164,18)"/><path d=" M 2100.86 1210.69 L 2098.32 1210.69 L 2098.32 1185.88 L 2100.86 1185.88 L 2100.86 1210.69 Z " fill="rgb(255,164,18)"/><path d=" M 2085.08 1210.69 L 2082.54 1210.69 L 2082.54 1185.88 L 2085.08 1185.88 L 2085.08 1210.69 Z " fill="rgb(255,164,18)"/><path d=" M 2068.39 1210.69 L 2065.85 1210.69 L 2065.85 1185.88 L 2068.39 1185.88 L 2068.39 1210.69 Z " fill="rgb(255,164,18)"/><path d=" M 2042.81 1210.69 L 2040.27 1210.69 L 2040.27 1185.88 L 2042.81 1185.88 L 2042.81 1210.69 Z " fill="rgb(255,164,18)"/><path d=" M 2018.85 1210.69 L 2016.31 1210.69 L 2016.31 1185.88 L 2018.85 1185.88 L 2018.85 1210.69 Z " fill="rgb(255,164,18)"/><path d=" M 1997.46 1210.69 L 1994.92 1210.69 L 1994.92 1185.88 L 1997.46 1185.88 L 1997.46 1210.69 Z " fill="rgb(255,164,18)"/><path d=" M 2127.92 1210.69 L 2125.38 1210.69 L 2125.38 1185.88 L 2127.92 1185.88 L 2127.92 1210.69 Z " fill="rgb(255,164,18)"/><path d=" M 2133.31 1210.69 L 2130.78 1210.69 L 2130.78 1185.88 L 2133.31 1185.88 L 2133.31 1210.69 Z " fill="rgb(255,164,18)"/><path d=" M 2138.53 1210.69 L 2135.99 1210.69 L 2135.99 1185.88 L 2138.53 1185.88 L 2138.53 1210.69 Z " fill="rgb(255,164,18)"/><path d=" M 2142.45 1185.96 L 2142.45 1210.6 C 2142.14 1210.66 2141.82 1210.69 2141.5 1210.69 L 2139.91 1210.69 L 2139.91 1185.88 L 2141.5 1185.88 C 2141.82 1185.88 2142.14 1185.91 2142.45 1185.96 Z " fill="rgb(255,164,18)"/><path d=" M 2145.97 1188.26 L 2145.97 1208.3 C 2145.36 1209.21 2144.47 1209.92 2143.44 1210.32 L 2143.44 1186.24 C 2144.47 1186.64 2145.36 1187.36 2145.97 1188.26 Z " fill="rgb(255,164,18)"/><path d=" M 2152.24 1166.47 L 2152.24 1180.48 C 2152.24 1181.59 2151.9 1182.63 2151.32 1183.49 C 2150.7 1184.4 2149.82 1185.11 2148.78 1185.51 C 2148.47 1185.64 2148.14 1185.73 2147.8 1185.79 C 2147.49 1185.85 2147.17 1185.88 2146.84 1185.88 L 1923.67 1185.88 C 1920.8 1185.88 1918.43 1183.6 1918.28 1180.76 C 1918.28 1180.66 1918.27 1180.57 1918.27 1180.48 L 1918.27 1166.47 C 1918.27 1166.38 1918.28 1166.28 1918.28 1166.19 C 1918.41 1163.56 1920.45 1161.41 1923.03 1161.11 C 1923.24 1161.08 1923.46 1161.07 1923.67 1161.07 L 2146.84 1161.07 C 2147.17 1161.07 2147.49 1161.1 2147.8 1161.15 C 2148.14 1161.21 2148.47 1161.31 2148.78 1161.43 C 2149.82 1161.83 2150.7 1162.55 2151.32 1163.45 C 2151.9 1164.32 2152.24 1165.35 2152.24 1166.47 Z " fill="rgb(255,185,62)"/><path d=" M 2042.66 1185.88 L 1923.09 1185.88 C 1920.53 1185.88 1918.41 1183.6 1918.28 1180.76 C 1918.28 1180.66 1918.27 1180.57 1918.27 1180.48 L 1918.27 1166.47 C 1918.27 1166.38 1918.28 1166.28 1918.28 1166.19 C 1918.4 1163.56 1920.22 1161.41 1922.52 1161.11 C 1922.71 1161.08 1922.9 1161.07 1923.09 1161.07 L 2027.97 1161.07 C 2027.98 1161.08 2027.98 1161.09 2027.98 1161.11 C 2029.66 1168.4 2033.57 1178.48 2042.66 1185.88 Z " fill="rgb(255,164,18)"/><path d=" M 2125.09 1185.88 L 2122.55 1185.88 L 2122.55 1161.07 L 2125.09 1161.07 L 2125.09 1185.88 Z " fill="rgb(255,164,18)"/><path d=" M 2116.5 1185.88 L 2113.97 1185.88 L 2113.97 1161.07 L 2116.5 1161.07 L 2116.5 1185.88 Z " fill="rgb(255,164,18)"/><path d=" M 2106.21 1185.88 L 2103.67 1185.88 L 2103.67 1161.07 L 2106.21 1161.07 L 2106.21 1185.88 Z " fill="rgb(255,164,18)"/><path d=" M 2090.42 1185.88 L 2087.89 1185.88 L 2087.89 1161.07 L 2090.42 1161.07 L 2090.42 1185.88 Z " fill="rgb(255,164,18)"/><path d=" M 2073.74 1185.88 L 2071.2 1185.88 L 2071.2 1161.07 L 2073.74 1161.07 L 2073.74 1185.88 Z " fill="rgb(255,164,18)"/><path d=" M 2048.15 1185.88 L 2045.62 1185.88 L 2045.62 1161.07 L 2048.15 1161.07 L 2048.15 1185.88 Z " fill="rgb(255,164,18)"/><path d=" M 2024.2 1185.88 L 2021.66 1185.88 L 2021.66 1161.07 L 2024.2 1161.07 L 2024.2 1185.88 Z " fill="rgb(255,164,18)"/><path d=" M 2002.81 1185.88 L 2000.27 1185.88 L 2000.27 1161.07 L 2002.81 1161.07 L 2002.81 1185.88 Z " fill="rgb(255,164,18)"/><path d=" M 2133.26 1185.88 L 2130.72 1185.88 L 2130.72 1161.07 L 2133.26 1161.07 L 2133.26 1185.88 Z " fill="rgb(255,164,18)"/><path d=" M 2138.66 1185.88 L 2136.12 1185.88 L 2136.12 1161.07 L 2138.66 1161.07 L 2138.66 1185.88 Z " fill="rgb(255,164,18)"/><path d=" M 2143.87 1185.88 L 2141.34 1185.88 L 2141.34 1161.07 L 2143.87 1161.07 L 2143.87 1185.88 Z " fill="rgb(255,164,18)"/><path d=" M 2147.8 1161.15 L 2147.8 1185.79 C 2147.49 1185.85 2147.17 1185.88 2146.84 1185.88 L 2145.26 1185.88 L 2145.26 1161.07 L 2146.84 1161.07 C 2147.17 1161.07 2147.49 1161.1 2147.8 1161.15 Z " fill="rgb(255,164,18)"/><path d=" M 2151.32 1163.45 L 2151.32 1183.49 C 2150.7 1184.4 2149.82 1185.11 2148.78 1185.51 L 2148.78 1161.43 C 2149.82 1161.83 2150.7 1162.54 2151.32 1163.45 Z " fill="rgb(255,164,18)"/><path d=" M 2135.84 1141.7 L 2135.84 1155.71 C 2135.84 1156.82 2135.5 1157.86 2134.91 1158.72 C 2134.3 1159.63 2133.41 1160.34 2132.38 1160.74 C 2132.06 1160.87 2131.73 1160.96 2131.39 1161.02 C 2131.28 1161.04 2131.18 1161.06 2131.08 1161.07 C 2131.02 1161.07 2130.96 1161.08 2130.9 1161.09 C 2130.84 1161.09 2130.78 1161.09 2130.72 1161.1 C 2130.63 1161.1 2130.53 1161.11 2130.44 1161.11 L 1907.27 1161.11 C 1904.39 1161.11 1902.02 1158.83 1901.87 1155.98 C 1901.87 1155.89 1901.87 1155.8 1901.87 1155.71 L 1901.87 1141.7 C 1901.87 1141.6 1901.87 1141.51 1901.87 1141.42 C 1901.88 1141.34 1901.88 1141.27 1901.89 1141.19 C 1902.1 1138.91 1903.76 1137.02 1905.93 1136.46 C 1905.99 1136.45 1906.04 1136.44 1906.1 1136.42 C 1906.47 1136.34 1906.87 1136.3 1907.27 1136.3 L 2130.44 1136.3 C 2130.6 1136.3 2130.76 1136.31 2130.92 1136.32 C 2130.99 1136.33 2131.06 1136.33 2131.13 1136.34 L 2131.14 1136.34 C 2131.22 1136.35 2131.3 1136.37 2131.39 1136.38 C 2131.73 1136.44 2132.06 1136.54 2132.38 1136.66 C 2133.41 1137.06 2134.3 1137.77 2134.91 1138.68 C 2135.5 1139.54 2135.84 1140.58 2135.84 1141.7 Z " fill="rgb(255,185,62)"/><path d=" M 2026.25 1161.11 L 1906.69 1161.11 C 1904.12 1161.11 1902 1158.83 1901.87 1155.98 C 1901.87 1155.89 1901.87 1155.8 1901.87 1155.71 L 1901.87 1141.7 C 1901.87 1141.6 1901.87 1141.51 1901.87 1141.42 C 1901.88 1141.34 1901.88 1141.27 1901.89 1141.19 C 1902.08 1138.85 1903.62 1136.94 1905.63 1136.43 C 1905.7 1136.41 1905.76 1136.39 1905.83 1136.38 C 1906.11 1136.33 1906.39 1136.3 1906.69 1136.3 L 2011.56 1136.3 C 2011.58 1136.36 2011.59 1136.41 2011.61 1136.47 C 2013.3 1143.75 2017.2 1153.73 2026.2 1161.07 C 2026.21 1161.08 2026.23 1161.09 2026.25 1161.11 Z " fill="rgb(255,164,18)"/><path d=" M 2108.68 1161.11 L 2106.14 1161.11 L 2106.14 1136.3 L 2108.68 1136.3 L 2108.68 1161.11 Z " fill="rgb(255,164,18)"/><path d=" M 2100.09 1161.11 L 2097.56 1161.11 L 2097.56 1136.3 L 2100.09 1136.3 L 2100.09 1161.11 Z " fill="rgb(255,164,18)"/><path d=" M 2089.8 1161.11 L 2087.26 1161.11 L 2087.26 1136.3 L 2089.8 1136.3 L 2089.8 1161.11 Z " fill="rgb(255,164,18)"/><path d=" M 2074.02 1161.11 L 2071.48 1161.11 L 2071.48 1136.3 L 2074.02 1136.3 L 2074.02 1161.11 Z " fill="rgb(255,164,18)"/><path d=" M 2057.33 1161.11 L 2054.79 1161.11 L 2054.79 1136.3 L 2057.33 1136.3 L 2057.33 1161.11 Z " fill="rgb(255,164,18)"/><path d=" M 2031.74 1161.11 L 2029.21 1161.11 L 2029.21 1136.3 L 2031.74 1136.3 L 2031.74 1161.11 Z " fill="rgb(255,164,18)"/><path d=" M 2007.79 1161.11 L 2005.25 1161.11 L 2005.25 1136.3 L 2007.79 1136.3 L 2007.79 1161.11 Z " fill="rgb(255,164,18)"/><path d=" M 1986.4 1161.11 L 1983.86 1161.11 L 1983.86 1136.3 L 1986.4 1136.3 L 1986.4 1161.11 Z " fill="rgb(255,164,18)"/><path d=" M 2116.85 1161.11 L 2114.32 1161.11 L 2114.32 1136.3 L 2116.85 1136.3 L 2116.85 1161.11 Z " fill="rgb(255,164,18)"/><path d=" M 2122.25 1161.11 L 2119.72 1161.11 L 2119.72 1136.3 L 2122.25 1136.3 L 2122.25 1161.11 Z " fill="rgb(255,164,18)"/><path d=" M 2127.47 1161.11 L 2124.93 1161.11 L 2124.93 1136.3 L 2127.47 1136.3 L 2127.47 1161.11 Z " fill="rgb(255,164,18)"/><path d=" M 2131.39 1136.38 L 2131.39 1161.02 C 2131.08 1161.08 2130.76 1161.11 2130.44 1161.11 L 2128.85 1161.11 L 2128.85 1136.3 L 2130.44 1136.3 C 2130.76 1136.3 2131.08 1136.33 2131.39 1136.38 Z " fill="rgb(255,164,18)"/><path d=" M 2134.91 1138.68 L 2134.91 1158.72 C 2134.3 1159.63 2133.41 1160.34 2132.38 1160.74 L 2132.38 1136.66 C 2133.41 1137.06 2134.3 1137.77 2134.91 1138.68 Z " fill="rgb(255,164,18)"/><path d=" M 2135.37 1117.06 L 2135.37 1131.07 C 2135.37 1132.19 2135.03 1133.22 2134.44 1134.09 C 2133.83 1135 2132.94 1135.71 2131.91 1136.11 C 2131.66 1136.21 2131.4 1136.29 2131.14 1136.34 L 2131.13 1136.34 C 2131.06 1136.36 2130.99 1136.37 2130.92 1136.39 C 2130.61 1136.44 2130.29 1136.47 2129.97 1136.47 L 1906.8 1136.47 C 1906.56 1136.47 1906.33 1136.46 1906.1 1136.42 C 1906.01 1136.42 1905.92 1136.4 1905.83 1136.38 C 1903.41 1135.94 1901.53 1133.87 1901.4 1131.35 C 1901.4 1131.26 1901.4 1131.17 1901.4 1131.07 L 1901.4 1117.06 C 1901.4 1116.97 1901.4 1116.88 1901.4 1116.78 C 1901.55 1113.94 1903.92 1111.66 1906.8 1111.66 L 2129.97 1111.66 C 2130.11 1111.66 2130.25 1111.67 2130.39 1111.68 C 2130.45 1111.69 2130.52 1111.69 2130.58 1111.7 C 2130.64 1111.71 2130.71 1111.71 2130.78 1111.73 C 2130.82 1111.73 2130.87 1111.74 2130.92 1111.75 C 2131.26 1111.81 2131.59 1111.9 2131.91 1112.03 C 2131.96 1112.04 2132 1112.06 2132.05 1112.08 C 2132.09 1112.1 2132.14 1112.12 2132.19 1112.14 C 2132.28 1112.19 2132.37 1112.23 2132.46 1112.27 C 2132.56 1112.33 2132.65 1112.38 2132.75 1112.44 C 2132.84 1112.49 2132.92 1112.55 2133 1112.6 C 2133.1 1112.67 2133.19 1112.74 2133.28 1112.81 C 2133.35 1112.86 2133.42 1112.92 2133.49 1112.98 C 2133.49 1112.98 2133.5 1112.99 2133.5 1112.99 C 2133.55 1113.03 2133.59 1113.07 2133.64 1113.11 C 2133.78 1113.24 2133.91 1113.38 2134.03 1113.52 C 2134.07 1113.56 2134.1 1113.6 2134.14 1113.64 C 2134.17 1113.69 2134.21 1113.73 2134.24 1113.77 C 2134.31 1113.86 2134.38 1113.96 2134.44 1114.05 C 2135.03 1114.91 2135.37 1115.95 2135.37 1117.06 Z " fill="rgb(255,185,62)"/><path d=" M 2025.78 1136.47 L 1906.22 1136.47 C 1906.12 1136.47 1906.03 1136.47 1905.93 1136.46 C 1905.83 1136.46 1905.73 1136.45 1905.63 1136.43 C 1903.33 1136.11 1901.52 1133.97 1901.4 1131.35 C 1901.4 1131.26 1901.4 1131.17 1901.4 1131.07 L 1901.4 1117.06 C 1901.4 1116.97 1901.4 1116.88 1901.4 1116.78 C 1901.53 1113.94 1903.65 1111.66 1906.22 1111.66 L 2011.09 1111.66 C 2011.14 1111.87 2011.19 1112.07 2011.24 1112.27 C 2012.98 1119.46 2016.86 1129.11 2025.56 1136.3 C 2025.64 1136.36 2025.71 1136.41 2025.78 1136.47 Z " fill="rgb(255,164,18)"/><path d=" M 2108.21 1136.47 L 2105.67 1136.47 L 2105.67 1111.66 L 2108.21 1111.66 L 2108.21 1136.47 Z " fill="rgb(255,164,18)"/><path d=" M 2099.63 1136.47 L 2097.09 1136.47 L 2097.09 1111.66 L 2099.63 1111.66 L 2099.63 1136.47 Z " fill="rgb(255,164,18)"/><path d=" M 2089.33 1136.47 L 2086.79 1136.47 L 2086.79 1111.66 L 2089.33 1111.66 L 2089.33 1136.47 Z " fill="rgb(255,164,18)"/><path d=" M 2073.55 1136.47 L 2071.01 1136.47 L 2071.01 1111.66 L 2073.55 1111.66 L 2073.55 1136.47 Z " fill="rgb(255,164,18)"/><path d=" M 2056.86 1136.47 L 2054.32 1136.47 L 2054.32 1111.66 L 2056.86 1111.66 L 2056.86 1136.47 Z " fill="rgb(255,164,18)"/><path d=" M 2031.27 1136.47 L 2028.74 1136.47 L 2028.74 1111.66 L 2031.27 1111.66 L 2031.27 1136.47 Z " fill="rgb(255,164,18)"/><path d=" M 2007.32 1136.47 L 2004.78 1136.47 L 2004.78 1111.66 L 2007.32 1111.66 L 2007.32 1136.47 Z " fill="rgb(255,164,18)"/><path d=" M 1985.93 1136.47 L 1983.39 1136.47 L 1983.39 1111.66 L 1985.93 1111.66 L 1985.93 1136.47 Z " fill="rgb(255,164,18)"/><path d=" M 2116.38 1136.47 L 2113.85 1136.47 L 2113.85 1111.66 L 2116.38 1111.66 L 2116.38 1136.47 Z " fill="rgb(255,164,18)"/><path d=" M 2121.78 1136.47 L 2119.25 1136.47 L 2119.25 1111.66 L 2121.78 1111.66 L 2121.78 1136.47 Z " fill="rgb(255,164,18)"/><path d=" M 2127 1136.47 L 2124.46 1136.47 L 2124.46 1111.66 L 2127 1111.66 L 2127 1136.47 Z " fill="rgb(255,164,18)"/><path d=" M 2130.92 1111.75 L 2130.92 1136.39 C 2130.61 1136.44 2130.29 1136.47 2129.97 1136.47 L 2128.38 1136.47 L 2128.38 1111.66 L 2129.97 1111.66 C 2130.29 1111.66 2130.61 1111.69 2130.92 1111.75 Z " fill="rgb(255,164,18)"/><path d=" M 2134.44 1114.05 L 2134.44 1134.09 C 2133.83 1135 2132.94 1135.71 2131.91 1136.11 L 2131.91 1112.03 C 2132.94 1112.43 2133.83 1113.14 2134.44 1114.05 Z " fill="rgb(255,164,18)"/><path d=" M 2146.9 1092.86 L 2146.9 1106.88 C 2146.9 1107.99 2146.56 1109.03 2145.97 1109.89 C 2145.36 1110.8 2144.47 1111.51 2143.44 1111.91 C 2143.12 1112.04 2142.79 1112.13 2142.45 1112.19 C 2142.14 1112.25 2141.82 1112.27 2141.5 1112.27 L 1918.33 1112.27 C 1917.43 1112.27 1916.58 1112.05 1915.84 1111.66 C 1914.26 1110.84 1913.13 1109.25 1912.95 1107.39 C 1912.94 1107.31 1912.94 1107.23 1912.93 1107.15 C 1912.93 1107.06 1912.93 1106.97 1912.93 1106.88 L 1912.93 1092.86 C 1912.93 1092.77 1912.93 1092.68 1912.93 1092.59 C 1913.08 1089.75 1915.45 1087.46 1918.33 1087.46 L 2141.5 1087.46 C 2141.82 1087.46 2142.14 1087.49 2142.45 1087.55 C 2142.79 1087.61 2143.12 1087.7 2143.44 1087.83 C 2144.47 1088.23 2145.36 1088.94 2145.97 1089.85 C 2146.56 1090.71 2146.9 1091.75 2146.9 1092.86 Z " fill="rgb(255,185,62)"/><path d=" M 2037.31 1112.27 L 1917.75 1112.27 C 1916.95 1112.27 1916.19 1112.05 1915.53 1111.66 C 1914.12 1110.84 1913.11 1109.25 1912.95 1107.39 C 1912.94 1107.31 1912.94 1107.23 1912.93 1107.15 C 1912.93 1107.06 1912.93 1106.97 1912.93 1106.88 L 1912.93 1092.86 C 1912.93 1092.77 1912.93 1092.68 1912.93 1092.59 C 1913.06 1089.75 1915.18 1087.46 1917.75 1087.46 L 2022.63 1087.46 C 2024.26 1094.57 2027.99 1104.32 2036.58 1111.66 C 2036.82 1111.87 2037.06 1112.07 2037.31 1112.27 Z " fill="rgb(255,164,18)"/><path d=" M 2119.74 1112.28 L 2117.21 1112.28 L 2117.21 1087.47 L 2119.74 1087.47 L 2119.74 1112.28 Z " fill="rgb(255,164,18)"/><path d=" M 2111.16 1112.28 L 2108.62 1112.28 L 2108.62 1087.47 L 2111.16 1087.47 L 2111.16 1112.28 Z " fill="rgb(255,164,18)"/><path d=" M 2100.86 1112.28 L 2098.32 1112.28 L 2098.32 1087.47 L 2100.86 1087.47 L 2100.86 1112.28 Z " fill="rgb(255,164,18)"/><path d=" M 2085.08 1112.28 L 2082.54 1112.28 L 2082.54 1087.47 L 2085.08 1087.47 L 2085.08 1112.28 Z " fill="rgb(255,164,18)"/><path d=" M 2068.39 1112.28 L 2065.85 1112.28 L 2065.85 1087.47 L 2068.39 1087.47 L 2068.39 1112.28 Z " fill="rgb(255,164,18)"/><path d=" M 2042.81 1112.28 L 2040.27 1112.28 L 2040.27 1087.47 L 2042.81 1087.47 L 2042.81 1112.28 Z " fill="rgb(255,164,18)"/><path d=" M 2018.85 1112.28 L 2016.31 1112.28 L 2016.31 1087.47 L 2018.85 1087.47 L 2018.85 1112.28 Z " fill="rgb(255,164,18)"/><path d=" M 1997.46 1112.28 L 1994.92 1112.28 L 1994.92 1087.47 L 1997.46 1087.47 L 1997.46 1112.28 Z " fill="rgb(255,164,18)"/><path d=" M 2127.92 1112.28 L 2125.38 1112.28 L 2125.38 1087.47 L 2127.92 1087.47 L 2127.92 1112.28 Z " fill="rgb(255,164,18)"/><path d=" M 2133.31 1112.28 L 2130.78 1112.28 L 2130.78 1087.47 L 2133.31 1087.47 L 2133.31 1112.28 Z " fill="rgb(255,164,18)"/><path d=" M 2138.53 1112.28 L 2135.99 1112.28 L 2135.99 1087.47 L 2138.53 1087.47 L 2138.53 1112.28 Z " fill="rgb(255,164,18)"/><path d=" M 2142.45 1087.55 L 2142.45 1112.19 C 2142.14 1112.25 2141.82 1112.28 2141.5 1112.28 L 2139.91 1112.28 L 2139.91 1087.46 L 2141.5 1087.46 C 2141.82 1087.46 2142.14 1087.5 2142.45 1087.55 Z " fill="rgb(255,164,18)"/><path d=" M 2145.97 1089.85 L 2145.97 1109.89 C 2145.36 1110.8 2144.47 1111.51 2143.44 1111.91 L 2143.44 1087.83 C 2144.47 1088.23 2145.36 1088.94 2145.97 1089.85 Z " fill="rgb(255,164,18)"/><path d=" M 2165.13 1068.05 L 2165.13 1082.07 C 2165.13 1083.18 2164.79 1084.22 2164.21 1085.08 C 2163.6 1085.99 2162.71 1086.7 2161.68 1087.1 C 2161.36 1087.23 2161.03 1087.32 2160.69 1087.38 C 2160.38 1087.43 2160.06 1087.46 2159.74 1087.46 L 1936.56 1087.46 C 1933.69 1087.46 1931.32 1085.18 1931.17 1082.34 C 1931.17 1082.25 1931.17 1082.16 1931.17 1082.07 L 1931.17 1068.05 C 1931.17 1067.96 1931.17 1067.87 1931.17 1067.78 C 1931.31 1065.15 1933.34 1063 1935.93 1062.69 C 1936.13 1062.67 1936.35 1062.65 1936.56 1062.65 L 2159.74 1062.65 C 2160.06 1062.65 2160.38 1062.68 2160.69 1062.74 C 2161.03 1062.8 2161.36 1062.89 2161.68 1063.02 C 2162.71 1063.42 2163.6 1064.13 2164.21 1065.04 C 2164.79 1065.9 2165.13 1066.94 2165.13 1068.05 Z " fill="rgb(255,185,62)"/><path d=" M 2055.55 1087.46 L 1935.99 1087.46 C 1933.42 1087.46 1931.3 1085.18 1931.17 1082.34 C 1931.17 1082.25 1931.17 1082.16 1931.17 1082.07 L 1931.17 1068.05 C 1931.17 1067.96 1931.17 1067.87 1931.17 1067.78 C 1931.29 1065.15 1933.11 1063 1935.42 1062.69 C 1935.6 1062.67 1935.79 1062.65 1935.99 1062.65 L 2040.86 1062.65 C 2040.87 1062.67 2040.87 1062.68 2040.87 1062.69 C 2042.55 1069.99 2046.46 1080.07 2055.55 1087.46 Z " fill="rgb(255,164,18)"/><path d=" M 2137.98 1087.46 L 2135.44 1087.46 L 2135.44 1062.66 L 2137.98 1062.66 L 2137.98 1087.46 Z " fill="rgb(255,164,18)"/><path d=" M 2129.39 1087.46 L 2126.86 1087.46 L 2126.86 1062.66 L 2129.39 1062.66 L 2129.39 1087.46 Z " fill="rgb(255,164,18)"/><path d=" M 2119.1 1087.46 L 2116.56 1087.46 L 2116.56 1062.66 L 2119.1 1062.66 L 2119.1 1087.46 Z " fill="rgb(255,164,18)"/><path d=" M 2103.32 1087.46 L 2100.78 1087.46 L 2100.78 1062.66 L 2103.32 1062.66 L 2103.32 1087.46 Z " fill="rgb(255,164,18)"/><path d=" M 2086.63 1087.46 L 2084.09 1087.46 L 2084.09 1062.66 L 2086.63 1062.66 L 2086.63 1087.46 Z " fill="rgb(255,164,18)"/><path d=" M 2061.04 1087.46 L 2058.51 1087.46 L 2058.51 1062.66 L 2061.04 1062.66 L 2061.04 1087.46 Z " fill="rgb(255,164,18)"/><path d=" M 2037.09 1087.46 L 2034.55 1087.46 L 2034.55 1062.66 L 2037.09 1062.66 L 2037.09 1087.46 Z " fill="rgb(255,164,18)"/><path d=" M 2015.7 1087.46 L 2013.16 1087.46 L 2013.16 1062.66 L 2015.7 1062.66 L 2015.7 1087.46 Z " fill="rgb(255,164,18)"/><path d=" M 2146.15 1087.46 L 2143.62 1087.46 L 2143.62 1062.66 L 2146.15 1062.66 L 2146.15 1087.46 Z " fill="rgb(255,164,18)"/><path d=" M 2151.55 1087.46 L 2149.02 1087.46 L 2149.02 1062.66 L 2151.55 1062.66 L 2151.55 1087.46 Z " fill="rgb(255,164,18)"/><path d=" M 2156.77 1087.46 L 2154.23 1087.46 L 2154.23 1062.66 L 2156.77 1062.66 L 2156.77 1087.46 Z " fill="rgb(255,164,18)"/><path d=" M 2160.69 1062.74 L 2160.69 1087.38 C 2160.38 1087.43 2160.06 1087.46 2159.74 1087.46 L 2158.15 1087.46 L 2158.15 1062.65 L 2159.74 1062.65 C 2160.06 1062.65 2160.38 1062.68 2160.69 1062.74 Z " fill="rgb(255,164,18)"/><path d=" M 2164.21 1065.04 L 2164.21 1085.08 C 2163.6 1085.99 2162.71 1086.7 2161.68 1087.1 L 2161.68 1063.02 C 2162.71 1063.42 2163.6 1064.13 2164.21 1065.04 Z " fill="rgb(255,164,18)"/><path d=" M 2008.23 1240.35 L 2008.23 1254.36 C 2008.23 1255.48 2007.89 1256.51 2007.31 1257.38 C 2006.69 1258.28 2005.81 1259 2004.77 1259.4 C 2004.46 1259.52 2004.13 1259.62 2003.79 1259.67 C 2003.48 1259.73 2003.16 1259.76 2002.83 1259.76 L 1779.66 1259.76 C 1776.79 1259.76 1774.42 1257.48 1774.27 1254.64 C 1774.27 1254.55 1774.26 1254.45 1774.26 1254.36 L 1774.26 1240.35 C 1774.26 1240.26 1774.27 1240.17 1774.27 1240.07 C 1774.4 1237.45 1776.44 1235.3 1779.02 1234.99 C 1779.23 1234.96 1779.45 1234.95 1779.66 1234.95 L 2002.83 1234.95 C 2003.16 1234.95 2003.48 1234.98 2003.79 1235.04 C 2004.13 1235.1 2004.46 1235.19 2004.77 1235.32 C 2005.81 1235.72 2006.69 1236.43 2007.31 1237.34 C 2007.89 1238.2 2008.23 1239.23 2008.23 1240.35 Z " fill="rgb(255,185,62)"/><path d=" M 1898.65 1259.76 L 1779.08 1259.76 C 1776.52 1259.76 1774.4 1257.48 1774.27 1254.64 C 1774.27 1254.55 1774.26 1254.45 1774.26 1254.36 L 1774.26 1240.35 C 1774.26 1240.26 1774.27 1240.17 1774.27 1240.07 C 1774.39 1237.45 1776.21 1235.3 1778.51 1234.99 C 1778.7 1234.96 1778.89 1234.95 1779.08 1234.95 L 1883.96 1234.95 C 1883.97 1234.96 1883.97 1234.98 1883.97 1234.99 C 1885.65 1242.29 1889.56 1252.37 1898.65 1259.76 Z " fill="rgb(255,164,18)"/><path d=" M 1981.08 1259.76 L 1978.54 1259.76 L 1978.54 1234.95 L 1981.08 1234.95 L 1981.08 1259.76 Z " fill="rgb(255,164,18)"/><path d=" M 1972.49 1259.76 L 1969.96 1259.76 L 1969.96 1234.95 L 1972.49 1234.95 L 1972.49 1259.76 Z " fill="rgb(255,164,18)"/><path d=" M 1962.2 1259.76 L 1959.66 1259.76 L 1959.66 1234.95 L 1962.2 1234.95 L 1962.2 1259.76 Z " fill="rgb(255,164,18)"/><path d=" M 1946.42 1259.76 L 1943.88 1259.76 L 1943.88 1234.95 L 1946.42 1234.95 L 1946.42 1259.76 Z " fill="rgb(255,164,18)"/><path d=" M 1929.73 1259.76 L 1927.19 1259.76 L 1927.19 1234.95 L 1929.73 1234.95 L 1929.73 1259.76 Z " fill="rgb(255,164,18)"/><path d=" M 1904.14 1259.76 L 1901.61 1259.76 L 1901.61 1234.95 L 1904.14 1234.95 L 1904.14 1259.76 Z " fill="rgb(255,164,18)"/><path d=" M 1880.19 1259.76 L 1877.65 1259.76 L 1877.65 1234.95 L 1880.19 1234.95 L 1880.19 1259.76 Z " fill="rgb(255,164,18)"/><path d=" M 1858.8 1259.76 L 1856.26 1259.76 L 1856.26 1234.95 L 1858.8 1234.95 L 1858.8 1259.76 Z " fill="rgb(255,164,18)"/><path d=" M 1989.25 1259.76 L 1986.71 1259.76 L 1986.71 1234.95 L 1989.25 1234.95 L 1989.25 1259.76 Z " fill="rgb(255,164,18)"/><path d=" M 1994.65 1259.76 L 1992.11 1259.76 L 1992.11 1234.95 L 1994.65 1234.95 L 1994.65 1259.76 Z " fill="rgb(255,164,18)"/><path d=" M 1999.86 1259.76 L 1997.33 1259.76 L 1997.33 1234.95 L 1999.86 1234.95 L 1999.86 1259.76 Z " fill="rgb(255,164,18)"/><path d=" M 2003.79 1235.04 L 2003.79 1259.67 C 2003.48 1259.73 2003.16 1259.76 2002.84 1259.76 L 2001.25 1259.76 L 2001.25 1234.95 L 2002.84 1234.95 C 2003.16 1234.95 2003.48 1234.98 2003.79 1235.04 Z " fill="rgb(255,164,18)"/><path d=" M 2007.31 1237.34 L 2007.31 1257.38 C 2006.69 1258.28 2005.81 1259 2004.78 1259.4 L 2004.78 1235.32 C 2005.81 1235.71 2006.69 1236.43 2007.31 1237.34 Z " fill="rgb(255,164,18)"/><path d=" M 1978.93 1215.58 L 1978.93 1229.59 C 1978.93 1230.71 1978.59 1231.74 1978.01 1232.61 C 1977.39 1233.51 1976.51 1234.23 1975.47 1234.63 C 1975.16 1234.75 1974.83 1234.84 1974.49 1234.9 C 1974.38 1234.92 1974.28 1234.94 1974.17 1234.95 C 1974.09 1234.96 1974.01 1234.97 1973.92 1234.98 C 1973.88 1234.98 1973.84 1234.98 1973.8 1234.98 C 1973.71 1234.99 1973.62 1234.99 1973.54 1234.99 L 1750.36 1234.99 C 1747.49 1234.99 1745.12 1232.71 1744.97 1229.87 C 1744.97 1229.78 1744.96 1229.68 1744.96 1229.59 L 1744.96 1215.58 C 1744.96 1215.49 1744.97 1215.39 1744.97 1215.3 C 1745.12 1212.46 1747.49 1210.18 1750.36 1210.18 L 1973.54 1210.18 C 1973.63 1210.18 1973.73 1210.18 1973.82 1210.19 C 1974.05 1210.2 1974.27 1210.23 1974.49 1210.27 C 1974.83 1210.33 1975.16 1210.42 1975.47 1210.54 C 1975.64 1210.61 1975.79 1210.68 1975.94 1210.75 C 1976.04 1210.8 1976.13 1210.85 1976.22 1210.9 C 1976.23 1210.91 1976.24 1210.91 1976.25 1210.92 C 1976.34 1210.97 1976.43 1211.03 1976.52 1211.09 C 1976.54 1211.1 1976.56 1211.11 1976.57 1211.12 C 1976.65 1211.17 1976.73 1211.23 1976.81 1211.3 C 1977 1211.44 1977.18 1211.59 1977.35 1211.76 C 1977.4 1211.82 1977.45 1211.87 1977.5 1211.92 C 1977.51 1211.93 1977.52 1211.94 1977.53 1211.95 C 1977.56 1211.99 1977.59 1212.02 1977.62 1212.05 C 1977.62 1212.06 1977.63 1212.07 1977.64 1212.08 C 1977.69 1212.14 1977.74 1212.2 1977.79 1212.27 C 1977.87 1212.37 1977.94 1212.46 1978.01 1212.57 C 1978.59 1213.43 1978.93 1214.46 1978.93 1215.58 Z " fill="rgb(255,185,62)"/><path d=" M 1869.35 1234.99 L 1749.79 1234.99 C 1747.22 1234.99 1745.1 1232.71 1744.97 1229.87 C 1744.97 1229.78 1744.96 1229.68 1744.96 1229.59 L 1744.96 1215.58 C 1744.96 1215.49 1744.97 1215.39 1744.97 1215.3 C 1745.1 1212.46 1747.22 1210.18 1749.79 1210.18 L 1854.66 1210.18 C 1854.71 1210.37 1854.75 1210.56 1854.8 1210.75 C 1856.54 1217.99 1860.46 1227.74 1869.3 1234.95 C 1869.31 1234.96 1869.33 1234.98 1869.35 1234.99 Z " fill="rgb(255,164,18)"/><path d=" M 1951.78 1234.99 L 1949.24 1234.99 L 1949.24 1210.18 L 1951.78 1210.18 L 1951.78 1234.99 Z " fill="rgb(255,164,18)"/><path d=" M 1943.19 1234.99 L 1940.66 1234.99 L 1940.66 1210.18 L 1943.19 1210.18 L 1943.19 1234.99 Z " fill="rgb(255,164,18)"/><path d=" M 1932.9 1234.99 L 1930.36 1234.99 L 1930.36 1210.18 L 1932.9 1210.18 L 1932.9 1234.99 Z " fill="rgb(255,164,18)"/><path d=" M 1917.12 1234.99 L 1914.58 1234.99 L 1914.58 1210.18 L 1917.12 1210.18 L 1917.12 1234.99 Z " fill="rgb(255,164,18)"/><path d=" M 1900.43 1234.99 L 1897.89 1234.99 L 1897.89 1210.18 L 1900.43 1210.18 L 1900.43 1234.99 Z " fill="rgb(255,164,18)"/><path d=" M 1874.84 1234.99 L 1872.31 1234.99 L 1872.31 1210.18 L 1874.84 1210.18 L 1874.84 1234.99 Z " fill="rgb(255,164,18)"/><path d=" M 1850.89 1234.99 L 1848.35 1234.99 L 1848.35 1210.18 L 1850.89 1210.18 L 1850.89 1234.99 Z " fill="rgb(255,164,18)"/><path d=" M 1829.5 1234.99 L 1826.96 1234.99 L 1826.96 1210.18 L 1829.5 1210.18 L 1829.5 1234.99 Z " fill="rgb(255,164,18)"/><path d=" M 1959.95 1234.99 L 1957.42 1234.99 L 1957.42 1210.18 L 1959.95 1210.18 L 1959.95 1234.99 Z " fill="rgb(255,164,18)"/><path d=" M 1965.35 1234.99 L 1962.81 1234.99 L 1962.81 1210.18 L 1965.35 1210.18 L 1965.35 1234.99 Z " fill="rgb(255,164,18)"/><path d=" M 1970.56 1234.99 L 1968.03 1234.99 L 1968.03 1210.18 L 1970.56 1210.18 L 1970.56 1234.99 Z " fill="rgb(255,164,18)"/><path d=" M 1974.49 1210.27 L 1974.49 1234.9 C 1974.18 1234.96 1973.86 1234.99 1973.54 1234.99 L 1971.95 1234.99 L 1971.95 1210.18 L 1973.54 1210.18 C 1973.86 1210.18 1974.18 1210.21 1974.49 1210.27 Z " fill="rgb(255,164,18)"/><path d=" M 1978.01 1212.57 L 1978.01 1232.61 C 1977.39 1233.51 1976.51 1234.23 1975.48 1234.63 L 1975.48 1210.54 C 1976.51 1210.94 1977.39 1211.66 1978.01 1212.57 Z " fill="rgb(255,164,18)"/><path d=" M 1995.34 1191.34 L 1995.34 1205.35 C 1995.34 1206.47 1995 1207.51 1994.42 1208.37 C 1993.8 1209.28 1992.92 1209.99 1991.88 1210.39 C 1991.57 1210.51 1991.24 1210.61 1990.9 1210.67 C 1990.58 1210.72 1990.27 1210.75 1989.94 1210.75 L 1766.77 1210.75 C 1765.91 1210.75 1765.08 1210.55 1764.36 1210.18 C 1762.73 1209.37 1761.57 1207.75 1761.39 1205.85 C 1761.39 1205.78 1761.38 1205.71 1761.38 1205.63 C 1761.38 1205.54 1761.37 1205.45 1761.37 1205.35 L 1761.37 1191.34 C 1761.37 1191.25 1761.38 1191.16 1761.38 1191.07 C 1761.51 1188.44 1763.55 1186.29 1766.13 1185.98 C 1766.34 1185.96 1766.55 1185.94 1766.77 1185.94 L 1989.94 1185.94 C 1990.27 1185.94 1990.58 1185.97 1990.9 1186.03 C 1991.24 1186.09 1991.57 1186.18 1991.88 1186.31 C 1992.92 1186.71 1993.8 1187.42 1994.42 1188.33 C 1995 1189.19 1995.34 1190.23 1995.34 1191.34 Z " fill="rgb(255,185,62)"/><path d=" M 1885.75 1210.75 L 1766.19 1210.75 C 1765.42 1210.75 1764.69 1210.55 1764.04 1210.18 C 1762.59 1209.37 1761.55 1207.75 1761.39 1205.85 C 1761.39 1205.78 1761.38 1205.71 1761.38 1205.63 C 1761.38 1205.54 1761.37 1205.45 1761.37 1205.35 L 1761.37 1191.34 C 1761.37 1191.25 1761.38 1191.16 1761.38 1191.07 C 1761.5 1188.44 1763.32 1186.29 1765.62 1185.98 C 1765.81 1185.96 1766 1185.94 1766.19 1185.94 L 1871.07 1185.94 C 1871.07 1185.96 1871.08 1185.97 1871.08 1185.98 C 1872.72 1193.09 1876.47 1202.85 1885.07 1210.18 C 1885.29 1210.37 1885.52 1210.57 1885.75 1210.75 Z " fill="rgb(255,164,18)"/><path d=" M 1968.19 1210.75 L 1965.65 1210.75 L 1965.65 1185.94 L 1968.19 1185.94 L 1968.19 1210.75 Z " fill="rgb(255,164,18)"/><path d=" M 1959.6 1210.75 L 1957.06 1210.75 L 1957.06 1185.94 L 1959.6 1185.94 L 1959.6 1210.75 Z " fill="rgb(255,164,18)"/><path d=" M 1949.3 1210.75 L 1946.77 1210.75 L 1946.77 1185.94 L 1949.3 1185.94 L 1949.3 1210.75 Z " fill="rgb(255,164,18)"/><path d=" M 1933.52 1210.75 L 1930.99 1210.75 L 1930.99 1185.94 L 1933.52 1185.94 L 1933.52 1210.75 Z " fill="rgb(255,164,18)"/><path d=" M 1916.83 1210.75 L 1914.3 1210.75 L 1914.3 1185.94 L 1916.83 1185.94 L 1916.83 1210.75 Z " fill="rgb(255,164,18)"/><path d=" M 1891.25 1210.75 L 1888.71 1210.75 L 1888.71 1185.94 L 1891.25 1185.94 L 1891.25 1210.75 Z " fill="rgb(255,164,18)"/><path d=" M 1867.29 1210.75 L 1864.76 1210.75 L 1864.76 1185.94 L 1867.29 1185.94 L 1867.29 1210.75 Z " fill="rgb(255,164,18)"/><path d=" M 1845.91 1210.75 L 1843.37 1210.75 L 1843.37 1185.94 L 1845.91 1185.94 L 1845.91 1210.75 Z " fill="rgb(255,164,18)"/><path d=" M 1976.36 1210.75 L 1973.82 1210.75 L 1973.82 1185.94 L 1976.36 1185.94 L 1976.36 1210.75 Z " fill="rgb(255,164,18)"/><path d=" M 1981.76 1210.75 L 1979.22 1210.75 L 1979.22 1185.94 L 1981.76 1185.94 L 1981.76 1210.75 Z " fill="rgb(255,164,18)"/><path d=" M 1986.97 1210.75 L 1984.44 1210.75 L 1984.44 1185.94 L 1986.97 1185.94 L 1986.97 1210.75 Z " fill="rgb(255,164,18)"/><path d=" M 1990.9 1186.03 L 1990.9 1210.67 C 1990.58 1210.72 1990.27 1210.75 1989.94 1210.75 L 1988.36 1210.75 L 1988.36 1185.94 L 1989.94 1185.94 C 1990.27 1185.94 1990.58 1185.97 1990.9 1186.03 Z " fill="rgb(255,164,18)"/><path d=" M 1994.42 1188.33 L 1994.42 1208.37 C 1993.8 1209.28 1992.92 1209.99 1991.88 1210.39 L 1991.88 1186.31 C 1992.92 1186.71 1993.8 1187.42 1994.42 1188.33 Z " fill="rgb(255,164,18)"/><path d=" M 1978.93 1166.57 L 1978.93 1180.58 C 1978.93 1181.7 1978.59 1182.73 1978.01 1183.6 C 1977.39 1184.5 1976.51 1185.22 1975.47 1185.62 C 1975.16 1185.74 1974.83 1185.84 1974.49 1185.9 C 1974.38 1185.91 1974.28 1185.93 1974.17 1185.94 C 1974.12 1185.95 1974.06 1185.96 1974 1185.96 C 1973.94 1185.97 1973.88 1185.97 1973.82 1185.97 C 1973.73 1185.98 1973.63 1185.98 1973.54 1185.98 L 1750.36 1185.98 C 1747.49 1185.98 1745.12 1183.7 1744.97 1180.86 C 1744.97 1180.77 1744.96 1180.67 1744.96 1180.58 L 1744.96 1166.57 C 1744.96 1166.48 1744.97 1166.39 1744.97 1166.29 C 1745.12 1163.45 1747.49 1161.17 1750.36 1161.17 L 1973.54 1161.17 C 1973.86 1161.17 1974.18 1161.2 1974.49 1161.26 C 1974.83 1161.32 1975.16 1161.41 1975.47 1161.54 C 1976.51 1161.94 1977.39 1162.65 1978.01 1163.56 C 1978.59 1164.42 1978.93 1165.46 1978.93 1166.57 Z " fill="rgb(255,185,62)"/><path d=" M 1869.35 1185.98 L 1749.79 1185.98 C 1747.22 1185.98 1745.1 1183.7 1744.97 1180.86 C 1744.97 1180.77 1744.96 1180.67 1744.96 1180.58 L 1744.96 1166.57 C 1744.96 1166.48 1744.97 1166.39 1744.97 1166.29 C 1745.1 1163.45 1747.22 1161.17 1749.79 1161.17 L 1854.66 1161.17 C 1856.33 1168.46 1860.23 1178.54 1869.3 1185.94 C 1869.31 1185.96 1869.33 1185.97 1869.35 1185.98 Z " fill="rgb(255,164,18)"/><path d=" M 1951.78 1185.98 L 1949.24 1185.98 L 1949.24 1161.17 L 1951.78 1161.17 L 1951.78 1185.98 Z " fill="rgb(255,164,18)"/><path d=" M 1943.19 1185.98 L 1940.66 1185.98 L 1940.66 1161.17 L 1943.19 1161.17 L 1943.19 1185.98 Z " fill="rgb(255,164,18)"/><path d=" M 1932.9 1185.98 L 1930.36 1185.98 L 1930.36 1161.17 L 1932.9 1161.17 L 1932.9 1185.98 Z " fill="rgb(255,164,18)"/><path d=" M 1917.12 1185.98 L 1914.58 1185.98 L 1914.58 1161.17 L 1917.12 1161.17 L 1917.12 1185.98 Z " fill="rgb(255,164,18)"/><path d=" M 1900.43 1185.98 L 1897.89 1185.98 L 1897.89 1161.17 L 1900.43 1161.17 L 1900.43 1185.98 Z " fill="rgb(255,164,18)"/><path d=" M 1874.84 1185.98 L 1872.31 1185.98 L 1872.31 1161.17 L 1874.84 1161.17 L 1874.84 1185.98 Z " fill="rgb(255,164,18)"/><path d=" M 1850.89 1185.98 L 1848.35 1185.98 L 1848.35 1161.17 L 1850.89 1161.17 L 1850.89 1185.98 Z " fill="rgb(255,164,18)"/><path d=" M 1829.5 1161.17 L 1829.5 1185.98 L 1826.96 1185.98 L 1826.96 1161.17 L 1829.5 1161.17 Z " fill="rgb(255,164,18)"/><path d=" M 1959.95 1185.98 L 1957.42 1185.98 L 1957.42 1161.17 L 1959.95 1161.17 L 1959.95 1185.98 Z " fill="rgb(255,164,18)"/><path d=" M 1965.35 1185.98 L 1962.81 1185.98 L 1962.81 1161.17 L 1965.35 1161.17 L 1965.35 1185.98 Z " fill="rgb(255,164,18)"/><path d=" M 1970.56 1185.98 L 1968.03 1185.98 L 1968.03 1161.17 L 1970.56 1161.17 L 1970.56 1185.98 Z " fill="rgb(255,164,18)"/><path d=" M 1974.49 1161.26 L 1974.49 1185.89 C 1974.18 1185.95 1973.86 1185.98 1973.54 1185.98 L 1971.95 1185.98 L 1971.95 1161.17 L 1973.54 1161.17 C 1973.86 1161.17 1974.18 1161.2 1974.49 1161.26 Z " fill="rgb(255,164,18)"/><path d=" M 1978.01 1163.56 L 1978.01 1183.6 C 1977.39 1184.5 1976.51 1185.22 1975.48 1185.62 L 1975.48 1161.54 C 1976.51 1161.94 1977.39 1162.65 1978.01 1163.56 Z " fill="rgb(255,164,18)"/><path d=" M 170.596 1761.98 L 1619.78 1760.91 L 1633.33 1597.78 L 1485.86 1415.1 L 1297.84 1414.99 L 1135.58 1354 L 808.487 1476.16 L 690.012 1631.48 L 483.968 1597.67 L 170.596 1761.98 Z " fill="rgb(189,216,255)"/><path d=" M 1484.14 1259.7 L 1661.85 1259.7 L 1721.35 1297.17 L 1744.27 1259.8 L 2174.38 1259.7 L 2292 1305.59 L 2429.36 1192.7 L 2666.1 1316.11 L 2829.4 1574.4 L 2664.3 1760.91 L 1495.71 1760.91 L 1614.47 1574.4 L 1386.01 1472.14 L 1484.14 1259.7 Z " fill="rgb(189,216,255)"/><path d=" M 2666.1 1316.11 L 2505.48 1538 L 2107.71 1415.1 L 1614.47 1574.4 L 1495.71 1760.91 L 2664.3 1760.91 L 2829.4 1574.4 L 2666.1 1316.11 Z " fill="rgb(159,193,244)"/><path d=" M 170.596 1761.98 L 526.524 1642.82 L 881.575 1697.69 L 1073.83 1573.28 L 1375.17 1538.51 L 1614.47 1574.4 L 1619.78 1760.91 L 170.596 1761.98 Z " fill="rgb(159,193,244)"/><path d=" M 2829.4 1574.4 L 2505.48 1538 L 2168.44 1691.75 L 1614.47 1574.4 L 1495.71 1760.91 L 2664.3 1760.91 L 2829.4 1574.4 Z " fill="rgb(119,164,229)"/><path d=" M 1614.47 1574.4 L 1420.24 1708.92 L 1177.12 1622.38 L 848.468 1760.91 L 1619.78 1760.91 L 1614.47 1574.4 Z " fill="rgb(119,164,229)"/><path d=" M 690.012 1631.48 L 963.08 1538.51 L 808.487 1476.16 L 690.012 1631.48 Z " fill="rgb(159,193,244)"/><path d=" M 2174.38 1259.7 L 1399.88 1463.92 L 1744.27 1259.8 L 2174.38 1259.7 Z " fill="rgb(159,193,244)"/><path d=" M 1614.47 1574.4 L 1297.84 1414.99 L 1489.14 1415.1 L 1614.47 1574.4 Z " fill="rgb(159,193,244)"/><path d=" M 1183.33 510.511 L 1183.29 517.409 C 1183.29 517.409 1185.17 538.979 1158.61 542.128 C 1132.05 545.288 1110.27 544.872 1110.99 528.226 C 1113.38 515.339 1117.67 495.333 1117.84 484.67 C 1117.91 480.707 1117.64 476.502 1116.9 471.753 L 1168.37 470.726 L 1183.53 473.203 L 1183.33 510.511 Z " fill="rgb(255,178,125)"/><path d=" M 1183.53 473.203 L 1183.33 510.511 C 1177.86 513.054 1171.69 514.605 1164.78 514.605 C 1141.12 514.605 1125.83 497.259 1117.84 484.67 C 1117.91 480.707 1117.64 476.502 1116.9 471.753 L 1168.37 470.726 L 1183.53 473.203 Z " fill="rgb(226,145,90)"/><path d=" M 1112.96 463.472 C 1118.93 495.61 1160.4 494.555 1178.32 492.535 C 1183.36 491.974 1186.53 491.33 1186.53 491.33 C 1192.22 489.811 1195.39 480.854 1196.87 469.121 C 1199.79 445.903 1196.1 411.819 1192.17 403.102 C 1186.27 389.984 1175.15 375.798 1133.39 386.034 C 1091.62 396.278 1105.29 422.295 1112.96 463.472 Z " fill="rgb(255,178,125)"/><path d=" M 1079.02 1414.99 L 1137.79 1414.99 C 1137.35 1411.9 1135.85 1402.53 1133.1 1393.89 C 1132.15 1390.89 1131.03 1387.96 1129.77 1385.43 C 1124.06 1374.02 1087.76 1381.28 1087.76 1381.28 C 1087.76 1381.28 1084.38 1384.17 1081.75 1395.2 C 1080.59 1400.06 1079.56 1406.51 1079.02 1414.99 Z " fill="rgb(35,56,98)"/><path d=" M 1256.6 1396.44 C 1256.76 1404.43 1257.76 1412 1260.66 1414.99 L 1376.89 1414.99 C 1375.42 1410.78 1371.23 1404.46 1359.3 1402.52 C 1345.74 1400.32 1324.6 1393.8 1312.27 1380.75 C 1307.87 1376.12 1304.59 1370.65 1303.16 1364.26 C 1297.69 1339.91 1257.94 1371.72 1257.94 1371.72 C 1257.94 1371.72 1256.34 1384.54 1256.6 1396.44 Z " fill="rgb(35,56,98)"/><path d=" M 1179.29 1133.26 C 1180.91 1142.18 1181.93 1149.49 1182.2 1154.73 C 1185.9 1226.81 1242.87 1391.6 1253.06 1395.44 C 1268.83 1401.39 1293.66 1388.75 1306.65 1384.61 C 1312.04 1382.89 1315.67 1377.46 1314.47 1371.95 C 1286.26 1242.24 1275.89 1055.46 1272.12 944.885 C 1270.21 889.187 1260.65 850.711 1260.65 850.711 C 1260.65 850.711 1121.69 813.636 1120.87 860.536 C 1120.13 902.038 1166.9 1064.8 1179.29 1133.26 Z " fill="rgb(43,71,139)"/><path d=" M 1179.29 1133.26 L 1272.12 944.885 C 1270.21 889.187 1260.65 850.711 1260.65 850.711 C 1260.65 850.711 1121.69 813.636 1120.87 860.536 C 1120.13 902.038 1166.9 1064.8 1179.29 1133.26 Z " fill="rgb(35,56,98)"/><path d=" M 1210.2 860.7 L 1136.75 1393.11 C 1136.75 1393.11 1104.49 1400.89 1079.4 1394.66 C 1079.4 1394.66 1057.89 1111.5 1059.68 1043.05 C 1061.47 974.592 1044.25 859.873 1063.61 847.221 C 1082.98 834.569 1210.2 860.7 1210.2 860.7 Z " fill="rgb(43,71,139)"/><path d=" M 1204.99 372.511 C 1204.99 372.511 1186.61 371.097 1164.93 361.67 C 1147.33 354.02 1125.13 362.445 1117.92 366.242 C 1118.12 365.081 1118.58 363.496 1119.68 361.906 C 1119.68 361.906 1116.44 364.201 1115.97 367.408 C 1115.63 367.653 1115.49 367.823 1115.57 367.88 C 1115.57 367.88 1111.9 367.209 1109.55 368.269 C 1109.55 368.269 1111.2 368.033 1111.79 369.094 C 1111.85 369.206 1111.94 369.301 1112.05 369.386 C 1084.6 382.649 1082.07 426.031 1090.9 436.069 C 1101.53 448.146 1114.27 475.343 1114.27 475.343 C 1114.27 475.343 1118.92 468.918 1116.98 458.291 C 1115.05 447.663 1124.23 447.663 1135.82 442.832 C 1147.42 438.001 1137.76 424.475 1147.9 416.263 C 1158.05 408.05 1195.24 412.881 1194.76 406.601 C 1208.57 401.572 1204.99 373.925 1204.99 372.511 Z " fill="rgb(35,56,98)"/><path d=" M 1104.72 537.476 L 1121.64 900.364 C 1121.64 900.364 1262.79 902.67 1258.76 870.727 C 1254.73 838.784 1207.88 548.589 1207.88 548.589 L 1104.72 537.476 L 1104.72 537.476 Z " fill="rgb(233,243,254)"/><path d=" M 1054.33 743.17 C 1062.72 768.363 1046.89 852.901 1041.25 881.54 C 1040.01 887.597 1039.18 891.176 1039.18 891.176 C 1058.73 922.978 1130.33 922.568 1130.33 922.568 C 1144.09 861.711 1151.25 764.787 1151.25 764.787 L 1096.32 523.98 L 1027.2 587.866 C 1027.2 587.866 1032.43 626.831 1038.91 666.481 C 1044 697.873 1049.78 729.815 1054.33 743.17 Z " fill="rgb(34,64,122)"/><path d=" M 1171.8 468.758 C 1171.8 468.758 1173.14 472.903 1183.6 471.39 C 1183.6 471.39 1192.39 470.121 1191.74 465.498 C 1191.74 465.498 1182.91 462.894 1171.8 468.758 Z " fill="rgb(255,255,255)"/><path d=" M 1307.25 689.062 C 1307.38 688.921 1307.38 688.645 1307.38 688.512 C 1307.38 683.277 1287.42 671.711 1265.8 658.084 C 1265.53 657.809 1265.39 657.667 1265.39 657.667 C 1265.38 657.658 1265.36 657.649 1265.35 657.641 C 1265.73 668.775 1265.69 679.701 1265.03 689.872 C 1263.8 708.735 1265.17 731.281 1267.45 754.237 C 1277.75 738.166 1305.23 694.982 1307.25 689.062 Z  M 1251.14 542.649 C 1251.14 542.649 1251.15 542.711 1251.17 542.802 C 1254.51 546.039 1348.74 637.528 1367 673.365 C 1385.58 709.714 1282.05 782.131 1282.05 782.131 C 1282.05 782.131 1275.39 784.765 1270.76 783.734 C 1275.64 823.927 1281.13 861.012 1277.88 876.842 C 1272.01 905.452 1245.55 915.06 1245.55 912.859 C 1245.55 912.159 1238.73 808.537 1230.61 755.01 C 1212.59 636.209 1191.11 524.715 1191.11 524.715 C 1221.92 527.917 1251.14 542.649 1251.14 542.649 Z " fill="rgb(34,64,122)"/><path d=" M 1100.72 523.547 C 1100.55 520.084 1116.95 515.299 1116.95 515.299 C 1116.95 515.299 1135.73 541.331 1166.66 541.781 C 1166.66 541.781 1157.85 558.937 1147.46 563.379 C 1147.46 563.379 1101.74 544.114 1100.72 523.547 Z " fill="rgb(217,233,249)"/><path d=" M 1210.1 787.045 C 1209.35 795.521 1205.46 803.416 1199.2 809.184 L 1189.35 818.253 C 1186.88 820.531 1183 820.215 1180.92 817.576 L 1168.73 802.092 C 1165.46 797.939 1163.92 792.685 1164.42 787.425 C 1165.56 775.709 1167.68 753.134 1169.39 731.346 C 1170.77 713.692 1171.88 696.541 1171.96 686.108 C 1172.23 652.796 1165.62 546.567 1165.62 546.567 L 1173.61 546.983 C 1173.61 546.983 1193.44 588.219 1203.83 644.324 C 1206.39 658.136 1208.37 672.838 1209.35 688.062 C 1209.35 688.062 1213.51 748.735 1210.1 787.045 Z " fill="rgb(198,84,71)"/><path d=" M 1210.1 787.045 C 1209.35 795.521 1205.46 803.416 1199.2 809.184 L 1189.35 818.253 C 1186.88 820.531 1183 820.215 1180.92 817.576 L 1168.73 802.092 C 1165.46 797.939 1163.92 792.685 1164.42 787.425 C 1165.56 775.709 1167.68 753.134 1169.39 731.346 C 1191.45 706.552 1200.4 672.286 1203.83 644.324 C 1206.39 658.136 1208.37 672.838 1209.35 688.062 C 1209.35 688.062 1213.51 748.735 1210.1 787.045 Z " fill="rgb(186,76,67)"/><path d=" M 1166.66 541.172 C 1166.66 541.172 1183.05 531.458 1183.11 520.926 C 1183.11 520.926 1193.69 519.601 1198.31 524.733 C 1198.31 524.733 1202.2 542.782 1197.04 553.266 C 1197.04 553.266 1173.45 549.671 1166.66 541.172 Z " fill="rgb(217,233,249)"/><path d=" M 1155.54 539.61 L 1177.76 534.285 C 1177.76 534.285 1180.66 534.536 1180.58 538.157 C 1180.5 541.776 1174.32 552.352 1171.59 553.196 C 1168.85 554.042 1150.28 546.933 1155.54 539.61 Z " fill="rgb(186,76,67)"/><path d=" M 1103.31 521.76 C 1103.14 518.296 1114.24 511.161 1114.24 511.161 C 1114.24 511.161 1135.73 536.277 1166.66 536.726 C 1166.66 536.726 1157.85 553.883 1147.46 558.324 C 1147.46 558.324 1104.33 542.326 1103.31 521.76 Z " fill="rgb(233,243,254)"/><path d=" M 1166.66 536.726 C 1166.66 536.726 1183.24 527.941 1183.29 517.409 C 1183.29 517.409 1193.3 521.811 1197.92 526.943 C 1197.92 526.943 1202.2 538.336 1197.04 548.82 C 1197.04 548.82 1173.45 545.225 1166.66 536.726 Z " fill="rgb(233,243,254)"/><path d=" M 1288.65 788.026 C 1288.65 778.776 1280.52 771.351 1271.37 772.74 C 1268.83 773.125 1266.54 774.172 1264.95 776.283 C 1258.66 784.66 1252.67 809.034 1263.83 810.173 C 1268.36 810.637 1274.19 807.452 1278.69 804.04 C 1283.25 800.573 1288.65 795.145 1288.65 789.415 L 1288.65 788.026 Z " fill="rgb(255,178,125)"/><path d=" M 1041.25 881.54 C 1061.49 860.474 1096.46 819.032 1095.22 785.022 C 1093.56 737.385 1038.91 666.481 1038.91 666.481 C 1044 697.873 1049.78 729.815 1054.33 743.17 C 1062.72 768.363 1046.89 852.901 1041.25 881.54 Z " fill="rgb(35,56,98)"/><path d=" M 1041.88 798.679 C 1041.88 798.679 1056.43 805.954 1065.26 802.316 C 1074.1 798.679 1084.49 795.947 1094.36 807.186 C 1104.24 818.424 1106.31 826.219 1104.24 830.375 C 1102.16 834.533 1079.14 832.974 1075.32 830.375 C 1071.5 827.778 1065.46 821.381 1061.63 822.496 C 1051.05 825.569 1042.15 817.503 1037.17 811.08 C 1034.16 807.205 1042.27 805.327 1041.88 798.679 Z " fill="rgb(255,178,125)"/><path d=" M 1096.32 523.98 C 1096.32 523.98 1038.37 530.395 1024.7 555.632 C 1011.03 580.868 939.969 683.144 942.296 725.646 C 944.623 768.15 1039.24 815.811 1039.24 815.811 C 1039.24 815.811 1060.19 806.956 1060.51 797.429 C 1060.82 787.901 995.096 730.96 999.08 720.333 C 1003.06 709.708 1075.44 625.664 1082.42 597.953 C 1089.4 570.242 1096.32 523.98 1096.32 523.98 Z " fill="rgb(34,64,122)"/><path d=" M 1265.39 657.667 C 1265.39 657.667 1265.53 657.809 1265.8 658.084 C 1287.42 671.711 1307.38 683.277 1307.38 688.512 C 1310.27 679.284 1282.19 640.733 1273.1 632.888 C 1263.88 624.901 1265.39 657.667 1265.39 657.667 Z " fill="rgb(35,56,98)"/><path d=" M 1114.24 511.161 C 1114.24 511.161 1158.23 695.425 1151.23 764.836 C 1151.23 764.836 1135.06 690.662 1096.13 629.904 C 1096.13 629.904 1110.34 617.412 1109.57 612.806 C 1109.57 612.806 1099.02 609.679 1088.79 611.785 C 1088.79 611.785 1089.92 532.356 1096.3 523.966 C 1102.68 515.574 1114.24 511.161 1114.24 511.161 Z " fill="rgb(35,56,98)"/><path d=" M 1183.29 517.409 C 1182.7 517.688 1226.89 697.466 1230.61 755.01 C 1230.61 755.01 1226.2 652.324 1226.63 622.729 C 1226.63 622.729 1208.36 613.056 1208.36 609.661 C 1208.36 606.267 1227.85 597.09 1227.85 597.09 C 1227.85 597.09 1215.51 533.853 1208.77 526.884 C 1202.04 519.917 1183.29 517.409 1183.29 517.409 Z " fill="rgb(35,56,98)"/><path d=" M 1037.27 1414.99 L 1379.27 1414.99 L 1073.83 1573.28 L 963.08 1538.51 L 1037.27 1414.99 Z " fill="rgb(159,193,244)"/><path d=" M 996.544 1414.99 L 1141.93 1414.82 C 1160.86 1414.79 1176.32 1399.29 1176.3 1380.37 L 1176.22 1317.37 C 1176.2 1298.45 1160.7 1282.98 1141.78 1283 L 996.391 1283.17 C 977.47 1283.2 962.006 1298.69 962.027 1317.62 L 962.101 1380.62 C 962.123 1399.54 977.623 1415.01 996.544 1414.99 Z " fill="rgb(160,55,50)"/><path d=" M 1034.45 1268.53 C 1034.45 1266.63 1035.71 1265.01 1037.44 1264.47 C 1037.84 1264.34 1038.26 1264.27 1038.7 1264.27 L 1045.16 1264.26 L 1069.08 1264.24 L 1082.12 1264.22 C 1084.47 1264.22 1086.38 1266.13 1086.38 1268.47 L 1086.4 1282.06 L 1034.46 1282.12 L 1034.45 1268.53 Z  M 1152.47 1299.42 L 1152.47 1299.41 C 1147.03 1289.97 1137.25 1283.3 1125.9 1282.19 L 1125.89 1282.19 C 1125.89 1282.19 1125.88 1282.19 1125.87 1282.18 C 1124.76 1282.08 1123.63 1282.02 1122.49 1282.02 L 1093.54 1282.06 L 1093.52 1268.46 C 1093.52 1265.43 1092.33 1262.57 1090.17 1260.41 C 1088.01 1258.26 1085.14 1257.08 1082.11 1257.08 L 1074.56 1257.09 L 1044.17 1257.12 L 1038.68 1257.13 C 1032.41 1257.14 1027.29 1262.25 1027.31 1268.54 L 1027.32 1282.13 L 977.353 1282.19 C 958.361 1282.21 942.843 1297.77 942.857 1316.76 L 942.938 1380.5 C 942.961 1399.49 958.516 1415.01 977.508 1414.99 L 1122.64 1414.82 C 1125.2 1414.82 1127.69 1414.53 1130.09 1413.99 L 1130.1 1413.99 C 1130.1 1413.99 1130.1 1413.99 1130.11 1413.99 C 1133.96 1413.14 1137.57 1411.63 1140.81 1409.59 C 1150.6 1403.47 1157.14 1392.58 1157.13 1380.24 L 1157.06 1316.51 C 1157.05 1310.3 1155.38 1304.46 1152.47 1299.42 Z " fill="rgb(198,84,71)"/><path d=" M 2018.3 1259.7 L 2000.3 1259.7 L 2000.3 242.813 C 2000.3 237.842 2004.33 233.813 2009.3 233.813 L 2009.3 233.813 C 2014.27 233.813 2018.3 237.842 2018.3 242.813 L 2018.3 1259.7 Z " fill="rgb(35,56,98)"/><path d=" M 1662.27 437.061 C 1662.27 437.061 1738.27 378.061 1834.77 413.061 C 1931.27 448.061 2018.3 413.061 2018.3 413.061 L 2018.3 243.061 C 2018.3 243.061 1931.27 278.061 1834.77 243.061 C 1738.27 208.061 1662.27 267.061 1662.27 267.061 L 1662.27 437.061 Z " fill="rgb(255,185,62)"/><path d=" M 1818.77 334.514 C 1701.27 304.467 1662.27 437.061 1662.27 437.061 C 1662.27 437.061 1738.27 378.061 1834.77 413.061 C 1931.27 448.061 2018.3 413.061 2018.3 413.061 L 2018.3 243.061 C 2018.3 243.061 1936.27 364.561 1818.77 334.514 Z " fill="rgb(255,164,18)"/></g></g></svg>