<svg xmlns="http://www.w3.org/2000/svg" xmlns:xlink="http://www.w3.org/1999/xlink" width="375.236" height="209.651" viewBox="0 0 375.236 209.651">
  <defs>
    <clipPath id="clip-path">
      <path id="Path_33" data-name="Path 33" d="M168.047,331.432s7.984,17.758,9.911,21.337,4.13,13.766,4.406,19.823,0,7.3-1.377,7.159-1.927-7.709-1.927-8.948v-1.928s-.689,7.159-1.79,8.536-2.615,2.89-2.753,2.064.275-2.2.826-4.267a16.153,16.153,0,0,0,.275-4.818s-.826,3.854-2.753,5.231-3.992,1.927-3.3.826,2.478-2.34,2.891-3.717a17.62,17.62,0,0,0,.413-3.855s-2.616,4.268-3.717,4.956-1.1-.826-.413-1.514,2.2-5.369,2.2-5.369-.413-.275-2.34-4.543-3.029-11.7-3.58-14.592-1.652-6.745-1.652-6.745l-10.6-17.759s-.826-4.267,3.167-4.955S168.047,331.432,168.047,331.432Z" fill="#fff" stroke="#263238" stroke-linecap="round" stroke-linejoin="round" stroke-width="1"/>
    </clipPath>
    <clipPath id="clip-path-2">
      <path id="Path_37" data-name="Path 37" d="M177.958,358s1.377,6.746,1.239,9.774.551,4.543-.413,4.543-1.238-.688-2.2-3.717a35.124,35.124,0,0,1-1.239-6.883s-3.442,0-4.681-5.093" fill="#fff" stroke="#263238" stroke-linecap="round" stroke-linejoin="round" stroke-width="1"/>
    </clipPath>
    <clipPath id="clip-path-3">
      <path id="Path_53" data-name="Path 53" d="M239.041,333.22c-1.088,0-7.892,0-11.974-1.088s-23.483-6.514-34.642-10.6-24.144-8.454-24.144-8.454a39.231,39.231,0,0,1-4.626-6.532c-1.234-2.019-4.458-8.527-7.82-15.478-10.854,2.841-16.316,8.019-19.006,11.993a263.369,263.369,0,0,0,18.389,23.352c3.81,4.355,13.336,5.444,21.772,6.532s44.089,3.538,44.089,3.538a44.967,44.967,0,0,0,9.8,4.355c4.354,1.088,6.8,1.36,9.8.272s9.254-1.633,11.159-2.177,2.993-1.633,2.177-2.178S240.13,333.22,239.041,333.22Z" fill="#fff" stroke="#263238" stroke-linecap="round" stroke-linejoin="round" stroke-width="1"/>
    </clipPath>
    <clipPath id="clip-path-4">
      <path id="Path_60" data-name="Path 60" d="M171.3,191.365a20.634,20.634,0,0,1,11.117,7.417,19.1,19.1,0,0,1,3.732,8.263c1.325,8.094-3.237,10.6-1.766,14.275s2.944,5.593,1.766,7.359-4.856,2.06-5.445,2.207-1.766,6.917-4.121,9.861-10.6-.442-10.6-.442-3.385,5.74-4.415,7.653,1.03,13.393-.442,18.544-4.857-.442-11.332-8.536-9.419-14.717-9.125-16.925,5.446-7.358,6.329-9.272,1.324-2.8.883-4.562-5.593-8.977-5.593-18.249,7.359-18.1,17.072-18.838A35.63,35.63,0,0,1,171.3,191.365Z" fill="#fff" stroke="#263238" stroke-linecap="round" stroke-linejoin="round" stroke-width="1"/>
    </clipPath>
    <clipPath id="clip-path-5">
      <path id="Path_93" data-name="Path 93" d="M335.139,315.925c.261.784-.523,11.754-1.045,30.822-.4,14.638-3.877,40.635-5.471,51.934h55.59c.4-11.462.9-37.67-2.319-48.538-4.179-14.105-8.881-16.978-10.448-23.247s-3.918-40.748-7.836-53.808-15.672-20.9-17.5-23.769-7.575-19.591-7.575-19.591l-9.925,8.359s7.313,11.754,8.358,15.411-7.052,12.276-11.232,21.157-4.962,15.934-1.306,21.419S334.877,315.142,335.139,315.925Z" fill="#c6ff00" stroke="#263238" stroke-linecap="round" stroke-linejoin="round" stroke-width="1"/>
    </clipPath>
  </defs>
  <g id="Characters" transform="translate(-61.761 -189.53)">
    <g id="Group_34" data-name="Group 34">
      <g id="Group_20" data-name="Group 20">
        <g id="Group_16" data-name="Group 16">
          <path id="Path_11" data-name="Path 11" d="M234.466,191.7s-12.792-4.082-22.589,5.988-4.627,30.209-4.627,37.285-8.981,51.981-8.981,51.981-4.354,16.329,7.621,26.671,34.116,9.45,43.567-10.466-.567-48.319-.567-63.015,2.177-24.494-1.089-35.108A20.648,20.648,0,0,0,234.466,191.7Z" fill="#263238" stroke="#263238" stroke-linecap="round" stroke-linejoin="round" stroke-width="1"/>
          <path id="Path_12" data-name="Path 12" d="M230.667,199.333S218.333,214.667,210,219" fill="none" stroke="#fff" stroke-linecap="round" stroke-linejoin="round" stroke-width="1"/>
          <path id="Path_13" data-name="Path 13" d="M220,198s-6.333,15.333-12,19.667" fill="none" stroke="#fff" stroke-linecap="round" stroke-linejoin="round" stroke-width="1"/>
        </g>
        <g id="Group_17" data-name="Group 17">
          <path id="Path_14" data-name="Path 14" d="M255.514,250.727a10.209,10.209,0,0,1,4.279,7.2c.728,5.1-4.714,16.887-5.807,22.716a209.965,209.965,0,0,0-2,21.312c0,1.822,6.193,28.781,7.286,35.339s-.546,22.041-1.457,23.134-3.461-4.19-3.643-7.651-6.922-30.056-9.472-38.071-1.822-18.58-1.822-18.58,3.461-24.227,3.461-33.517.282-16.238.282-16.238Z" fill="#c6ff00" stroke="#263238" stroke-linecap="round" stroke-linejoin="round" stroke-width="1"/>
          <path id="Path_15" data-name="Path 15" d="M257.811,360.431c.911-1.093,2.55-16.576,1.457-23.134s-7.286-33.517-7.286-35.339a209.965,209.965,0,0,1,2-21.312,47.308,47.308,0,0,1,1.545-5.517,15.746,15.746,0,0,1-6.876,1.558c-1.267,0-2.507,1.177-3.7,3.163-.965,8.458-2.082,16.279-2.082,16.279s-.728,10.565,1.822,18.58,9.29,34.61,9.472,38.071S256.9,361.524,257.811,360.431Z" fill="#fff" stroke="#263238" stroke-linecap="round" stroke-linejoin="round" stroke-width="1"/>
        </g>
        <g id="Group_18" data-name="Group 18">
          <path id="Path_16" data-name="Path 16" d="M221.239,398.681c.4-4.477,1.239-13.605,1.78-17.12.729-4.736,2.186-14.39,2.186-14.39l3.687,31.51h25.28c.9-6.874,3.2-25.291,3.639-38.25.547-16.212-11.658-49.729-12.022-52.279s.364-10.019.364-12.205,6.353-16.158,6.9-23.263,2.186-9.29,2.186-9.29l.911-12.022c-.547-.182-8.722-6.612-16.919-8.98a30.632,30.632,0,0,0-15.3-.364s-11.841,5.283-17.852,7.833-10.929,7.468-11.112,13.844,11.659,33.517,12.752,35.521-2.368,9.108-3.826,12.751-7.468,16.759-11.476,31.331c-3.422,12.445-1.132,45.875-.391,55.373Z" fill="#c6ff00" stroke="#263238" stroke-linecap="round" stroke-linejoin="round" stroke-width="1"/>
          <path id="Path_17" data-name="Path 17" d="M226.919,294.2s9.345,1.121,18.691-7.851" fill="none" stroke="#263238" stroke-linecap="round" stroke-linejoin="round" stroke-width="1"/>
        </g>
        <path id="Path_18" data-name="Path 18" d="M233.4,268.077c2.732-.729,6.193-12.023,6.558-17.852.2-3.268.4-5.71.313-7.5-.345-.113-.689-.228-1.042-.33a30.632,30.632,0,0,0-15.3-.364s-2.024.9-4.821,2.142a15.136,15.136,0,0,0,.813,7.7C221.926,257.329,230.67,268.8,233.4,268.077Z" fill="#fff" stroke="#263238" stroke-linecap="round" stroke-linejoin="round" stroke-width="1"/>
        <path id="Path_19" data-name="Path 19" d="M221.2,236.436s.921,10.73,1.474,13.365,6.08,12.989,9.212,12.424,5.158-14.118,5.158-15.436.368-12.047.368-12.047S230.777,240.2,221.2,236.436Z" fill="#fff" stroke="#263238" stroke-linecap="round" stroke-linejoin="round" stroke-width="1"/>
        <path id="Path_20" data-name="Path 20" d="M203.164,251.683s-7.469.364-11.659,8.743.729,14.026,2.369,17.3,6.193,16.759,7.65,20.766,4.372,8.744,9.472,15.3,15.848,20.583,15.848,20.583l2.915,5.1s4.918,5.647,5.465,5.829,3.825,4.372,5.1,1.822,0-11.659,0-11.659,2,4.008,2.732,3.1-.182-2.914-.91-5.1-7.46-6.376-8.922-6.558-3.283-2-5.469-6.376-3.825-12.022-7.286-16.576-8.015-11.294-8.015-11.294-5.1-18.216-5.1-18.944A20.133,20.133,0,0,0,205.9,263.7" fill="#c6ff00" stroke="#263238" stroke-linecap="round" stroke-linejoin="round" stroke-width="1"/>
        <path id="Path_21" data-name="Path 21" d="M233.224,326.914c-1.461-.182-3.283-2-5.469-6.376s-3.825-12.022-7.286-16.576-8.015-11.294-8.015-11.294S209,280.332,207.777,275.56c-6.695-.939-11.114.411-13.928,2.126l.025.045c1.639,3.279,6.193,16.759,7.65,20.766s4.372,8.744,9.472,15.3,15.848,20.583,15.848,20.583l2.915,5.1s4.918,5.647,5.465,5.829,3.825,4.372,5.1,1.821,0-11.658,0-11.658,2,4.008,2.732,3.1-.182-2.914-.91-5.1S234.686,327.1,233.224,326.914Z" fill="#fff" stroke="#263238" stroke-linecap="round" stroke-linejoin="round" stroke-width="1"/>
        <path id="Path_22" data-name="Path 22" d="M221.239,398.681c.4-4.477,1.239-13.605,1.78-17.12.729-4.736,2.186-14.39,2.186-14.39l3.687,31.51h25.28c.9-6.874,3.2-25.291,3.639-38.25.228-6.754-1.759-16.51-4.18-25.781-21.371,4.68-45.6,1.3-58.18-1.15-1.064,3.127-2.1,6.424-3.035,9.808-3.422,12.445-1.132,45.875-.391,55.373Z" fill="#263238" stroke="#263238" stroke-linecap="round" stroke-linejoin="round" stroke-width="1"/>
        <g id="Group_19" data-name="Group 19">
          <path id="Path_23" data-name="Path 23" d="M214.871,220.458s-1.633-.726-1.633,2.54,3.628,5.443,3.628,5.443Z" fill="#fff" stroke="#263238" stroke-linecap="round" stroke-linejoin="round" stroke-width="1"/>
          <path id="Path_24" data-name="Path 24" d="M233.584,202.5s-5.829,8.2-10.929,11.476a80.057,80.057,0,0,1-8.2,4.736s2.551,10.565,3.644,14.026,4.364,9.491,10.922,9.855,9.479-6.576,10.754-9.855a14.011,14.011,0,0,0,1.15-5.357,7.608,7.608,0,0,0,3.461-5.282c.364-3.461-.547-3.279-.547-3.279s-.958,1.128-3.175-.568C238.906,216.906,233.038,207.418,233.584,202.5Z" fill="#fff" stroke="#263238" stroke-linecap="round" stroke-linejoin="round" stroke-width="1"/>
          <path id="Path_25" data-name="Path 25" d="M219.693,223.207s2.566-1.881,6.328,0" fill="none" stroke="#263238" stroke-linecap="round" stroke-linejoin="round" stroke-width="1"/>
          <path id="Path_26" data-name="Path 26" d="M231.322,223.549s3.079-2.736,6.328-.513" fill="none" stroke="#263238" stroke-linecap="round" stroke-linejoin="round" stroke-width="1"/>
          <path id="Path_27" data-name="Path 27" d="M219.18,219.1s1.369-2.565,5.986-1.368" fill="none" stroke="#263238" stroke-linecap="round" stroke-linejoin="round" stroke-width="1"/>
          <path id="Path_28" data-name="Path 28" d="M231.322,217.906a5.3,5.3,0,0,1,7.012.684" fill="none" stroke="#263238" stroke-linecap="round" stroke-linejoin="round" stroke-width="1"/>
          <path id="Path_29" data-name="Path 29" d="M230.809,229.193s-2.736,1.881-3.933,0" fill="none" stroke="#263238" stroke-linecap="round" stroke-linejoin="round" stroke-width="1"/>
          <path id="Path_30" data-name="Path 30" d="M225.85,233.126s3.42,1.368,5.13-.171" fill="none" stroke="#263238" stroke-linecap="round" stroke-linejoin="round" stroke-width="1"/>
        </g>
      </g>
      <g id="Group_33" data-name="Group 33">
        <g id="Group_22" data-name="Group 22">
          <path id="Path_31" data-name="Path 31" d="M168.047,331.432s7.984,17.758,9.911,21.337,4.13,13.766,4.406,19.823,0,7.3-1.377,7.159-1.927-7.709-1.927-8.948v-1.928s-.689,7.159-1.79,8.536-2.615,2.89-2.753,2.064.275-2.2.826-4.267a16.153,16.153,0,0,0,.275-4.818s-.826,3.854-2.753,5.231-3.992,1.927-3.3.826,2.478-2.34,2.891-3.717a17.62,17.62,0,0,0,.413-3.855s-2.616,4.268-3.717,4.956-1.1-.826-.413-1.514,2.2-5.369,2.2-5.369-.413-.275-2.34-4.543-3.029-11.7-3.58-14.592-1.652-6.745-1.652-6.745l-10.6-17.759s-.826-4.267,3.167-4.955S168.047,331.432,168.047,331.432Z" fill="#fff"/>
          <g id="Group_21" data-name="Group 21" clip-path="url(#clip-path)">
            <path id="Path_32" data-name="Path 32" d="M168.047,331.432s7.984,17.758,9.911,21.337,4.13,13.766,4.406,19.823,0,7.3-1.377,7.159-1.927-7.709-1.927-8.948v-1.928s-.689,7.159-1.79,8.536-2.615,2.89-2.753,2.064.275-2.2.826-4.267a16.153,16.153,0,0,0,.275-4.818s-.826,3.854-2.753,5.231-3.992,1.927-3.3.826,2.478-2.34,2.891-3.717a17.62,17.62,0,0,0,.413-3.855s-2.616,4.268-3.717,4.956-1.1-.826-.413-1.514,2.2-5.369,2.2-5.369-.413-.275-2.34-4.543-3.029-11.7-3.58-14.592-1.652-6.745-1.652-6.745l-10.6-17.759s-.826-4.267,3.167-4.955S168.047,331.432,168.047,331.432Z" opacity="0.15"/>
          </g>
          <path id="Path_34" data-name="Path 34" d="M168.047,331.432s7.984,17.758,9.911,21.337,4.13,13.766,4.406,19.823,0,7.3-1.377,7.159-1.927-7.709-1.927-8.948v-1.928s-.689,7.159-1.79,8.536-2.615,2.89-2.753,2.064.275-2.2.826-4.267a16.153,16.153,0,0,0,.275-4.818s-.826,3.854-2.753,5.231-3.992,1.927-3.3.826,2.478-2.34,2.891-3.717a17.62,17.62,0,0,0,.413-3.855s-2.616,4.268-3.717,4.956-1.1-.826-.413-1.514,2.2-5.369,2.2-5.369-.413-.275-2.34-4.543-3.029-11.7-3.58-14.592-1.652-6.745-1.652-6.745l-10.6-17.759s-.826-4.267,3.167-4.955S168.047,331.432,168.047,331.432Z" fill="none" stroke="#263238" stroke-linecap="round" stroke-linejoin="round" stroke-width="1"/>
        </g>
        <g id="Group_24" data-name="Group 24">
          <path id="Path_35" data-name="Path 35" d="M177.958,358s1.377,6.746,1.239,9.774.551,4.543-.413,4.543-1.238-.688-2.2-3.717a35.124,35.124,0,0,1-1.239-6.883s-3.442,0-4.681-5.093" fill="#fff"/>
          <g id="Group_23" data-name="Group 23" clip-path="url(#clip-path-2)">
            <path id="Path_36" data-name="Path 36" d="M177.958,358s1.377,6.746,1.239,9.774.551,4.543-.413,4.543-1.238-.688-2.2-3.717a35.124,35.124,0,0,1-1.239-6.883s-3.442,0-4.681-5.093" opacity="0.15"/>
          </g>
          <path id="Path_38" data-name="Path 38" d="M177.958,358s1.377,6.746,1.239,9.774.551,4.543-.413,4.543-1.238-.688-2.2-3.717a35.124,35.124,0,0,1-1.239-6.883s-3.442,0-4.681-5.093" fill="none" stroke="#263238" stroke-linecap="round" stroke-linejoin="round" stroke-width="1"/>
        </g>
        <path id="Path_39" data-name="Path 39" d="M116.555,398.681h50.67c.252-9.482,1.915-71.406,2.417-74.17.544-2.993,3.266-31.3,3.538-42.456s-4.626-27.215-4.626-28.3-.817-7.892-8.437-13.607-13.608-5.716-15.241-4.9c0,0-5.987,4.082-15.513,14.152s-12.791,18.234-12.791,33.747a162.608,162.608,0,0,0,2.45,28.032s-2.994,48.443-2.994,49.532C116.028,361.681,116.463,392.212,116.555,398.681Z" fill="#fff" stroke="#263238" stroke-linecap="round" stroke-linejoin="round" stroke-width="1"/>
        <g id="Group_25" data-name="Group 25">
          <path id="Path_40" data-name="Path 40" d="M139.545,289.178a29.808,29.808,0,0,0,3.227-.178c11.658-1.273,21.795-13.189,28.487-23.486-.307-1.5-.623-2.922-.926-4.231-6.311,10.286-16.514,23.493-27.886,24.734-15.822,1.723-23.05-10.749-24.958-14.781-.276,1.541-.485,3.162-.632,4.876C120.365,281.466,127.508,289.178,139.545,289.178Z" fill="#263238"/>
          <path id="Path_41" data-name="Path 41" d="M135.75,265.12l2.9.771a62.646,62.646,0,0,1,17.008-28.577,25.435,25.435,0,0,0-2.988-1.335A65.047,65.047,0,0,0,135.75,265.12Z" fill="#263238"/>
          <path id="Path_42" data-name="Path 42" d="M138.6,279.466c.674-.344,14.843-7.725,29.807-26.982a16.3,16.3,0,0,0-1.1-3.513c-15.061,19.98-29.912,27.739-30.076,27.823Z" fill="#263238"/>
          <path id="Path_43" data-name="Path 43" d="M123.814,268.619l2.967-.446c-.011-.079-.875-7.171,6.105-22.4-1.112,1.11-2.286,2.311-3.523,3.619-.8.845-1.539,1.675-2.252,2.5C123.05,263.019,123.768,268.323,123.814,268.619Z" fill="#263238"/>
          <path id="Path_44" data-name="Path 44" d="M148.548,313.073c-17.241,2.237-25.955-1.388-29.92-4.161.236,1.455.394,2.264.394,2.264s-.034.537-.092,1.489c3.839,2.117,9.961,4.112,19.426,4.112a82.285,82.285,0,0,0,10.579-.73,56.538,56.538,0,0,0,22.418-7.914c.114-1.264.229-2.558.341-3.864A53.482,53.482,0,0,1,148.548,313.073Z" fill="#263238"/>
          <path id="Path_45" data-name="Path 45" d="M147.656,331.527A75.469,75.469,0,0,0,170,321.786c.123-1.073.265-2.392.42-3.9a73.822,73.822,0,0,1-23.475,10.732c-11.61,2.845-22.877-.336-28.832-2.627-.064,1.03-.128,2.087-.194,3.164a56.484,56.484,0,0,0,19.279,3.607A43.915,43.915,0,0,0,147.656,331.527Z" fill="#263238"/>
          <path id="Path_46" data-name="Path 46" d="M116.578,351.134c-.065,1.078-.125,2.1-.181,3.034a103.722,103.722,0,0,0,23.558,2.8,77.134,77.134,0,0,0,28.607-5.179q.051-1.66.1-3.277C148.617,357.032,127.135,353.7,116.578,351.134Z" fill="#263238"/>
          <path id="Path_47" data-name="Path 47" d="M149.849,341.233a61.515,61.515,0,0,1-32.608-1.045c-.064,1.052-.128,2.094-.19,3.117a60.128,60.128,0,0,0,17.963,2.64,69.228,69.228,0,0,0,15.506-1.788,76.845,76.845,0,0,0,18.52-6.9c.044-1.238.087-2.416.129-3.513A73.9,73.9,0,0,1,149.849,341.233Z" fill="#263238"/>
          <path id="Path_48" data-name="Path 48" d="M141.452,298.995c-12.3.617-20.254-3.927-24.662-7.669.072,1.382.159,2.72.256,4a37.264,37.264,0,0,0,22.132,6.725q1.185,0,2.426-.062c12.062-.613,22.749-5.89,31.38-15.246.1-1.76.164-3.351.2-4.69,0-.063,0-.129,0-.192C166.133,290.622,155.9,298.26,141.452,298.995Z" fill="#263238"/>
        </g>
        <path id="Path_49" data-name="Path 49" d="M161.877,241.6c-.547-.49-1.121-.978-1.76-1.457-7.621-5.716-13.608-5.716-15.241-4.9a83.3,83.3,0,0,0-8.985,7.613,8.259,8.259,0,0,0,1.637,7.083c5.171,6.532,22.044,31.57,26.4,26.127s3.266-20.412-1.633-33.475C162.164,242.247,162.022,241.921,161.877,241.6Z" fill="#c6ff00" stroke="#263238" stroke-linecap="round" stroke-linejoin="round" stroke-width="1"/>
        <path id="Path_50" data-name="Path 50" d="M145.965,270.353s14.7,31.3,17.69,36.2a39.231,39.231,0,0,0,4.626,6.532s12.986,4.372,24.144,8.454,30.559,9.508,34.642,10.6,10.886,1.088,11.974,1.088,14.152,2.994,14.969,3.538-.272,1.633-2.177,2.178-8.165,1.088-11.159,2.177-5.443.816-9.8-.272a44.967,44.967,0,0,1-9.8-4.355s-35.652-2.449-44.089-3.538-17.962-2.177-21.772-6.532a253.624,253.624,0,0,1-20.9-27.059c-5.114-7.739-14.49-18.6-10.942-28.46" fill="#fff" stroke="#263238" stroke-linecap="round" stroke-linejoin="round" stroke-width="1"/>
        <g id="Group_27" data-name="Group 27">
          <path id="Path_51" data-name="Path 51" d="M239.041,333.22c-1.088,0-7.892,0-11.974-1.088s-23.483-6.514-34.642-10.6-24.144-8.454-24.144-8.454a39.231,39.231,0,0,1-4.626-6.532c-1.234-2.019-4.458-8.527-7.82-15.478-10.854,2.841-16.316,8.019-19.006,11.993a263.369,263.369,0,0,0,18.389,23.352c3.81,4.355,13.336,5.444,21.772,6.532s44.089,3.538,44.089,3.538a44.967,44.967,0,0,0,9.8,4.355c4.354,1.088,6.8,1.36,9.8.272s9.254-1.633,11.159-2.177,2.993-1.633,2.177-2.178S240.13,333.22,239.041,333.22Z" fill="#fff"/>
          <g id="Group_26" data-name="Group 26" clip-path="url(#clip-path-3)">
            <path id="Path_52" data-name="Path 52" d="M239.041,333.22c-1.088,0-7.892,0-11.974-1.088s-23.483-6.514-34.642-10.6-24.144-8.454-24.144-8.454a39.231,39.231,0,0,1-4.626-6.532c-1.234-2.019-4.458-8.527-7.82-15.478-10.854,2.841-16.316,8.019-19.006,11.993a263.369,263.369,0,0,0,18.389,23.352c3.81,4.355,13.336,5.444,21.772,6.532s44.089,3.538,44.089,3.538a44.967,44.967,0,0,0,9.8,4.355c4.354,1.088,6.8,1.36,9.8.272s9.254-1.633,11.159-2.177,2.993-1.633,2.177-2.178S240.13,333.22,239.041,333.22Z" opacity="0.15"/>
          </g>
          <path id="Path_54" data-name="Path 54" d="M239.041,333.22c-1.088,0-7.892,0-11.974-1.088s-23.483-6.514-34.642-10.6-24.144-8.454-24.144-8.454a39.231,39.231,0,0,1-4.626-6.532c-1.234-2.019-4.458-8.527-7.82-15.478-10.854,2.841-16.316,8.019-19.006,11.993a263.369,263.369,0,0,0,18.389,23.352c3.81,4.355,13.336,5.444,21.772,6.532s44.089,3.538,44.089,3.538a44.967,44.967,0,0,0,9.8,4.355c4.354,1.088,6.8,1.36,9.8.272s9.254-1.633,11.159-2.177,2.993-1.633,2.177-2.178S240.13,333.22,239.041,333.22Z" fill="none" stroke="#263238" stroke-linecap="round" stroke-linejoin="round" stroke-width="1"/>
        </g>
        <g id="Group_28" data-name="Group 28">
          <path id="Path_55" data-name="Path 55" d="M167.225,398.681c.126-4.723.6-22.547,1.113-39.557a84.857,84.857,0,0,1-22.464,5.394c-15.949,1.876-25.22-2.007-29.788-4.989-.038.675-.058,1.089-.058,1.179,0,.973.435,31.5.527,37.973Z" fill="#c6ff00" stroke="#263238" stroke-linecap="round" stroke-linejoin="round" stroke-width="1"/>
          <path id="Path_56" data-name="Path 56" d="M154.483,396.411C152,387.032,158,375.032,149.345,368.77" fill="none" stroke="#263238" stroke-linecap="round" stroke-linejoin="round" stroke-width="1"/>
          <line id="Line_33" data-name="Line 33" y1="10.704" x2="11.133" transform="translate(154.483 364.06)" fill="none" stroke="#263238" stroke-linecap="round" stroke-linejoin="round" stroke-width="1"/>
          <path id="Path_57" data-name="Path 57" d="M126.548,374.829l-.288,21.584" fill="none" stroke="#263238" stroke-linecap="round" stroke-linejoin="round" stroke-width="1"/>
          <line id="Line_34" data-name="Line 34" x1="0.053" y2="3.945" transform="translate(126.599 367.057)" fill="none" stroke="#263238" stroke-linecap="round" stroke-linejoin="round" stroke-width="1"/>
        </g>
        <g id="Group_31" data-name="Group 31">
          <g id="Group_30" data-name="Group 30">
            <path id="Path_58" data-name="Path 58" d="M171.3,191.365a20.634,20.634,0,0,1,11.117,7.417,19.1,19.1,0,0,1,3.732,8.263c1.325,8.094-3.237,10.6-1.766,14.275s2.944,5.593,1.766,7.359-4.856,2.06-5.445,2.207-1.766,6.917-4.121,9.861-10.6-.442-10.6-.442-3.385,5.74-4.415,7.653,1.03,13.393-.442,18.544-4.857-.442-11.332-8.536-9.419-14.717-9.125-16.925,5.446-7.358,6.329-9.272,1.324-2.8.883-4.562-5.593-8.977-5.593-18.249,7.359-18.1,17.072-18.838A35.63,35.63,0,0,1,171.3,191.365Z" fill="#fff"/>
            <g id="Group_29" data-name="Group 29" clip-path="url(#clip-path-4)">
              <path id="Path_59" data-name="Path 59" d="M171.3,191.365a20.634,20.634,0,0,1,11.117,7.417,19.1,19.1,0,0,1,3.732,8.263c1.325,8.094-3.237,10.6-1.766,14.275s2.944,5.593,1.766,7.359-4.856,2.06-5.445,2.207-1.766,6.917-4.121,9.861-10.6-.442-10.6-.442-3.385,5.74-4.415,7.653,1.03,13.393-.442,18.544-4.857-.442-11.332-8.536-9.419-14.717-9.125-16.925,5.446-7.358,6.329-9.272,1.324-2.8.883-4.562-5.593-8.977-5.593-18.249,7.359-18.1,17.072-18.838A35.63,35.63,0,0,1,171.3,191.365Z" opacity="0.15"/>
            </g>
            <path id="Path_61" data-name="Path 61" d="M171.3,191.365a20.634,20.634,0,0,1,11.117,7.417,19.1,19.1,0,0,1,3.732,8.263c1.325,8.094-3.237,10.6-1.766,14.275s2.944,5.593,1.766,7.359-4.856,2.06-5.445,2.207-1.766,6.917-4.121,9.861-10.6-.442-10.6-.442-3.385,5.74-4.415,7.653,1.03,13.393-.442,18.544-4.857-.442-11.332-8.536-9.419-14.717-9.125-16.925,5.446-7.358,6.329-9.272,1.324-2.8.883-4.562-5.593-8.977-5.593-18.249,7.359-18.1,17.072-18.838A35.63,35.63,0,0,1,171.3,191.365Z" fill="none" stroke="#263238" stroke-linecap="round" stroke-linejoin="round" stroke-width="1"/>
          </g>
          <path id="Path_62" data-name="Path 62" d="M173.055,198.067c3.548-1.738,6.059-1.692,7.7-1.2a20.911,20.911,0,0,0-9.449-5.5,35.63,35.63,0,0,0-11.936-1.245c-9.713.736-17.072,9.566-17.072,18.838s5.151,16.483,5.593,18.249a4.605,4.605,0,0,1,.129,1.816c6.961,1.382,9.29-2.11,9.29-2.11a5.973,5.973,0,0,1-4.563-1.325c-2.06-1.766-2.06-8.536.442-11.626s5,1.177,5,3.679,1.177,4.562,2.354,4.268.884-3.091,1.325-4.857,5.593-4.415,6.77-5.887-.589-2.8-2.5-5S165.844,201.6,173.055,198.067Z" fill="#263238" stroke="#263238" stroke-linecap="round" stroke-linejoin="round" stroke-width="1"/>
          <path id="Path_63" data-name="Path 63" d="M157.013,227.354s0,4.121,2.5,6.77" fill="none" stroke="#263238" stroke-linecap="round" stroke-linejoin="round" stroke-width="1"/>
          <path id="Path_64" data-name="Path 64" d="M179.921,219.9a8.031,8.031,0,0,0-3.949-.592" fill="none" stroke="#263238" stroke-linecap="round" stroke-linejoin="round" stroke-width="1"/>
          <path id="Path_65" data-name="Path 65" d="M182.092,216.348s-2.171-3.751-6.318-.789" fill="none" stroke="#263238" stroke-linecap="round" stroke-linejoin="round" stroke-width="1"/>
          <path id="Path_66" data-name="Path 66" d="M176.959,232.933a3.99,3.99,0,0,1-4.146-2.764" fill="none" stroke="#263238" stroke-linecap="round" stroke-linejoin="round" stroke-width="1"/>
        </g>
        <g id="Group_32" data-name="Group 32">
          <path id="Path_67" data-name="Path 67" d="M148.453,275.626c-.8-1.691-1.453-3.073-1.887-4-12.084.214-19.169,4.723-23.166,8.966a28.918,28.918,0,0,0,1.621,4.154C128.174,280.69,134.923,275.342,148.453,275.626Z" fill="#263238"/>
          <path id="Path_68" data-name="Path 68" d="M152.636,284.42c-.648-1.355-1.28-2.68-1.878-3.936-11.231.593-18.783,4.739-23.409,8.534.706,1.162,1.447,2.3,2.2,3.413C133.825,288.833,141.246,284.631,152.636,284.42Z" fill="#263238"/>
        </g>
      </g>
    </g>
    <g id="Group_50" data-name="Group 50">
      <g id="Group_38" data-name="Group 38">
        <g id="Group_36" data-name="Group 36">
          <path id="Path_69" data-name="Path 69" d="M282.811,311.142c1.257,3.771,2.1,17.18,2.1,24.3,0,5.949-3.8,49.148-5.051,63.236h56.812c.682-13.749,2.712-55.074,2.712-60.3,0-6.286-2.1-32.055.628-41.064s5.866-32.684,1.048-40.017-23.047-11.523-28.494-13.408-13.618-2.934-17.6-1.048c0,0-10.894,6.076-17.6,12.361s-9.638,15.923-8.381,23.675S281.554,307.371,282.811,311.142Z" fill="#fff" stroke="#263238" stroke-linecap="round" stroke-linejoin="round" stroke-width="1"/>
          <g id="Group_35" data-name="Group 35">
            <path id="Path_70" data-name="Path 70" d="M332.178,250.714a74.925,74.925,0,0,0-7.506-3.019,165.523,165.523,0,0,1-42.53,61.817c.31.693.542,1.251.669,1.63a42.237,42.237,0,0,1,1.216,7.476A171.176,171.176,0,0,0,332.178,250.714Z" fill="#263238"/>
            <path id="Path_71" data-name="Path 71" d="M343.261,278.021a64.682,64.682,0,0,0-.276-15.053c-11.673,19.711-31.855,49.772-58.095,73.306-.066,2.065-.335,6.107-.719,11.222C309.71,326.39,329.911,299.064,343.261,278.021Z" fill="#263238"/>
          </g>
        </g>
        <path id="Path_72" data-name="Path 72" d="M336.666,398.681c.486-9.787,1.654-33.544,2.288-48.311-27.656,5.289-47.093.265-54.815-2.453-1.177,15.57-3.385,40.656-4.284,50.764Z" fill="#263238" stroke="#263238" stroke-linecap="round" stroke-linejoin="round" stroke-width="1"/>
        <ellipse id="Ellipse_1" data-name="Ellipse 1" cx="13.741" cy="13.288" rx="13.741" ry="13.288" transform="translate(288.337 241.267)" fill="#c6ff00" stroke="#263238" stroke-linecap="round" stroke-linejoin="round" stroke-width="1"/>
        <path id="Path_73" data-name="Path 73" d="M289.515,237.814s2.3,8.171,2.3,12.989,5.237,15.923,13.827,10.9,4.191-16.551,2.724-20.113a59.726,59.726,0,0,1-2.514-8.381s-2.724,5.029-7.961,5.238A30.9,30.9,0,0,1,289.515,237.814Z" fill="#fff" stroke="#263238" stroke-linecap="round" stroke-linejoin="round" stroke-width="1"/>
        <g id="Group_37" data-name="Group 37">
          <path id="Path_74" data-name="Path 74" d="M275.347,208.154s-1.443,3.607.361,6.493,4.328,6.853,4.328,6.853l-.361-15.871S276.068,202.744,275.347,208.154Z" fill="#263238" stroke="#263238" stroke-linecap="round" stroke-linejoin="round" stroke-width="1"/>
          <path id="Path_75" data-name="Path 75" d="M280.036,217.893s-2.886,1.082-1.443,5.771,3.607,3.247,3.607,3.247Z" fill="#fff" stroke="#263238" stroke-linecap="round" stroke-linejoin="round" stroke-width="1"/>
          <path id="Path_76" data-name="Path 76" d="M277.364,209.739s2.514,12.99,3.98,19.485,9.428,12.361,13.618,13.618,9.638-3.352,10.895-6.076,1.885-8.8,1.885-8.8,4.61-1.886,5.029-6.705-.838-6.285-3.352-6.913l-1.886-.838s1.048-7.752-1.676-12.571-12.361,1.466-17.389,2.933S276.735,204.921,277.364,209.739Z" fill="#fff" stroke="#263238" stroke-linecap="round" stroke-linejoin="round" stroke-width="1"/>
          <path id="Path_77" data-name="Path 77" d="M289.515,219.167s-1.047,7.543.419,8.171,4.19-.838,4.819-1.047" fill="none" stroke="#263238" stroke-linecap="round" stroke-linejoin="round" stroke-width="1"/>
          <path id="Path_78" data-name="Path 78" d="M293.5,231.947s5.866.838,8.171-5.866" fill="none" stroke="#263238" stroke-linecap="round" stroke-linejoin="round" stroke-width="1"/>
          <path id="Path_79" data-name="Path 79" d="M282.392,217.491a4.626,4.626,0,0,1,4.4-2.1" fill="none" stroke="#263238" stroke-linecap="round" stroke-linejoin="round" stroke-width="1"/>
          <path id="Path_80" data-name="Path 80" d="M292.448,214.349s4.19-2.1,6.705.209" fill="none" stroke="#263238" stroke-linecap="round" stroke-linejoin="round" stroke-width="1"/>
          <ellipse id="Ellipse_2" data-name="Ellipse 2" cx="1.048" cy="2.095" rx="1.048" ry="2.095" transform="translate(284.562 218.959) rotate(-9.864)" fill="#263238"/>
          <ellipse id="Ellipse_3" data-name="Ellipse 3" cx="1.048" cy="2.095" rx="1.048" ry="2.095" transform="translate(293.781 217.073) rotate(-9.864)" fill="#263238"/>
        </g>
        <path id="Path_81" data-name="Path 81" d="M301.248,204.083a83.015,83.015,0,0,1-17.39,5.866c-9.218,1.885-13.408-.21-12.989-4.819s12.361-14.666,23.255-14.666,14.666,5.029,15.3,10.266a90.4,90.4,0,0,1,0,13.619l-1.886,2.723s.419-2.1-2.514-3.771S299.781,208.482,301.248,204.083Z" fill="#263238" stroke="#263238" stroke-linecap="round" stroke-linejoin="round" stroke-width="1"/>
      </g>
      <g id="Group_46" data-name="Group 46">
        <path id="Path_82" data-name="Path 82" d="M359.562,219.06c2.05,1.574-.366,8.129,6.4,13.394,15.554,12.1,24.551,20.287,26.217,38.271,1.814,19.6-8.709,27.215-5.443,33.747s7.62,14.152.725,19.958-18.143,10.886-27.578-2.9-14.515-44.271-18.506-60.963-10.522-24.673-9.436-31.929c1.054-7.042,6.764-12.02,13.6-13.211A17.464,17.464,0,0,1,359.562,219.06Z" fill="#263238" stroke="#263238" stroke-linecap="round" stroke-linejoin="round" stroke-width="1"/>
        <path id="Path_83" data-name="Path 83" d="M340.822,288.734l-29.079,21.282s-46.569,16.647-49.309,17.49-15.8,3.161-18.543,4.636-8.007,11.168-8.85,13.486a1.712,1.712,0,0,0,2.318,2.318c.632-.632,6.743-6.532,8.639-6.743s3.582-.422,3.582-.422-4.846,4.215-5.057,5.479.843.843,2.107.211,6.111-2.318,8.008-5.69,3.582-5.268,6.743-6.532,44.4-10.2,51.777-11.461,33.934-17.207,35.2-17.418S344.825,288.734,340.822,288.734Z" fill="#fff" stroke="#263238" stroke-linecap="round" stroke-linejoin="round" stroke-width="1"/>
        <g id="Group_42" data-name="Group 42">
          <g id="Group_41" data-name="Group 41">
            <path id="Path_84" data-name="Path 84" d="M335.139,315.925c.261.784-.523,11.754-1.045,30.822-.4,14.638-3.877,40.635-5.471,51.934h55.59c.4-11.462.9-37.67-2.319-48.538-4.179-14.105-8.881-16.978-10.448-23.247s-3.918-40.748-7.836-53.808-15.672-20.9-17.5-23.769-7.575-19.591-7.575-19.591l-9.925,8.359s7.313,11.754,8.358,15.411-7.052,12.276-11.232,21.157-4.962,15.934-1.306,21.419S334.877,315.142,335.139,315.925Z" fill="#c6ff00"/>
            <g id="Group_40" data-name="Group 40" clip-path="url(#clip-path-5)">
              <g id="Group_39" data-name="Group 39">
                <path id="Path_85" data-name="Path 85" d="M343.644,369.6l9.108,2,9.109-2,9.108,2,9.106-2,4.221.927q-.039-1.039-.089-2.066l-4.132-.908-9.106,2-9.108-2-9.109,2-9.108-2-9.107,2-2.187-.48q-.108,1-.218,2l2.4.528Z" fill="#fff"/>
                <path id="Path_86" data-name="Path 86" d="M353.7,301.16l-9.109,2-9.108-2-7.125,1.564c.332.6.666,1.215,1,1.828l6.128-1.345,9.108,2,9.109-2,9.108,2,5.764-1.266q-.114-.994-.23-2l-5.534,1.216Z" fill="#fff"/>
                <path id="Path_87" data-name="Path 87" d="M343.644,384.835l9.108,2,9.109-2,9.108,2,9.106-2,4.417.97c.005-.673.009-1.356.011-2.045l-4.428-.972-9.106,2-9.108-2-9.109,2-9.108-2-9.107,2-3.937-.865c-.085.672-.17,1.337-.254,1.991l4.191.921Z" fill="#fff"/>
                <path id="Path_88" data-name="Path 88" d="M384.413,391.36l-4.338-.953-9.106,2-9.108-2-9.109,2-9.108-2-9.107,2-4.9-1.077q-.137,1.025-.268,1.988l5.171,1.136,9.107-2,9.108,2,9.109-2,9.108,2,9.106-2,4.293.943Q384.392,392.409,384.413,391.36Z" fill="#fff"/>
                <path id="Path_89" data-name="Path 89" d="M323.074,281.626l3.3.725,9.107-2,9.108,2,9.109-2,9.108,2,2.737-.6q-.18-1.01-.364-1.967l-2.373.521-9.108-2-9.109,2-9.108-2-9.107,2-2.706-.594C323.445,280.361,323.25,281,323.074,281.626Z" fill="#fff"/>
                <path id="Path_90" data-name="Path 90" d="M353.7,285.922l-9.109,2-9.108-2-9.107,2-4.244-.932a17.929,17.929,0,0,0,0,2.047l4.247.932,9.107-2,9.108,2,9.109-2,9.108,2,3.9-.857q-.144-1-.29-1.983l-3.612.793Z" fill="#fff"/>
                <path id="Path_91" data-name="Path 91" d="M353.7,293.542l-9.109,2-9.108-2-9.107,2-2.607-.573c.2.375.422.744.662,1.105.256.383.528.81.811,1.265l1.134.249,9.107-2,9.108,2,9.109-2,9.108,2,4.884-1.072q-.123-1-.251-1.992l-4.633,1.018Z" fill="#fff"/>
                <path id="Path_92" data-name="Path 92" d="M343.644,377.216l9.108,2,9.109-2,9.108,2,9.106-2,4.406.968q-.012-1.024-.03-2.053l-4.376-.962-9.106,2-9.108-2-9.109,2-9.108-2-9.107,2-3.027-.664q-.119,1-.238,1.994l3.265.717Z" fill="#fff"/>
              </g>
            </g>
            <path id="Path_94" data-name="Path 94" d="M335.139,315.925c.261.784-.523,11.754-1.045,30.822-.4,14.638-3.877,40.635-5.471,51.934h55.59c.4-11.462.9-37.67-2.319-48.538-4.179-14.105-8.881-16.978-10.448-23.247s-3.918-40.748-7.836-53.808-15.672-20.9-17.5-23.769-7.575-19.591-7.575-19.591l-9.925,8.359s7.313,11.754,8.358,15.411-7.052,12.276-11.232,21.157-4.962,15.934-1.306,21.419S334.877,315.142,335.139,315.925Z" fill="none" stroke="#263238" stroke-linecap="round" stroke-linejoin="round" stroke-width="1"/>
          </g>
          <path id="Path_95" data-name="Path 95" d="M328.6,299.061s3.365,6.729,14.579,4.112" fill="none" stroke="#263238" stroke-linecap="round" stroke-linejoin="round" stroke-width="1"/>
          <path id="Path_96" data-name="Path 96" d="M359.25,342.424s-16.821,20.56-24.3,37.008" fill="none" stroke="#263238" stroke-linecap="round" stroke-linejoin="round" stroke-width="1"/>
          <path id="Path_97" data-name="Path 97" d="M341.307,359.246s-7.1,13.084-8.971,21.308" fill="none" stroke="#263238" stroke-linecap="round" stroke-linejoin="round" stroke-width="1"/>
        </g>
        <path id="Path_98" data-name="Path 98" d="M331.807,272.628c5.429-3.016,12.365-15.984,15.381-18.4l2.06-1.648a24.086,24.086,0,0,1-3.139-3.264c-1.828-2.874-7.575-19.591-7.575-19.591l-9.925,8.359s7.313,11.754,8.358,15.411c.923,3.231-5.288,10.339-9.631,18.076C327.85,273.043,329.048,274.161,331.807,272.628Z" fill="#fff" stroke="#263238" stroke-linecap="round" stroke-linejoin="round" stroke-width="1"/>
        <g id="Group_44" data-name="Group 44">
          <path id="Path_99" data-name="Path 99" d="M319.849,209.619a21.607,21.607,0,0,0-1.7,8.682c.18,2.642.742,4.731-.318,7.339-.61,1.5-2.715,3.406-2.427,5.136.262,1.567,4.179,2.089,4.179,2.089s3.919,12.277,6.008,12.538,6.791-1.045,12.8-6.007-1.306-22.986-6.53-27.688S322.461,206.484,319.849,209.619Z" fill="#fff" stroke="#263238" stroke-linecap="round" stroke-linejoin="round" stroke-width="1"/>
          <g id="Group_43" data-name="Group 43">
            <ellipse id="Ellipse_4" data-name="Ellipse 4" cx="0.679" cy="1.925" rx="0.679" ry="1.925" transform="translate(320.955 222.146)" fill="#263238"/>
            <path id="Path_100" data-name="Path 100" d="M319.823,219.656s.68-2.717,3.4-.68" fill="none" stroke="#263238" stroke-linecap="round" stroke-linejoin="round" stroke-width="1"/>
            <path id="Path_101" data-name="Path 101" d="M321.182,235.505s1.811.453,3.849-2.038" fill="none" stroke="#263238" stroke-linecap="round" stroke-linejoin="round" stroke-width="1"/>
          </g>
        </g>
        <g id="Group_45" data-name="Group 45">
          <path id="Path_102" data-name="Path 102" d="M325.6,195.775s-9.664.261-11.232,6.53,5.486,11.754,10.449,14.366,9.4,6.791,9.4,11.232.261,9.664,3.918,14.366,12.015,8.619,18.545,8.358-.522-15.672,3.135-26.642-1.045-21.941-8.359-26.643S325.6,195.775,325.6,195.775Z" fill="#263238" stroke="#263238" stroke-linecap="round" stroke-linejoin="round" stroke-width="1"/>
          <path id="Path_103" data-name="Path 103" d="M384.639,290.613a22.032,22.032,0,0,1-.639,4.054" fill="none" stroke="#fff" stroke-linecap="round" stroke-linejoin="round" stroke-width="1"/>
          <path id="Path_104" data-name="Path 104" d="M323.375,211.975c1.808,2.963,5.213,6.193,11.625,8.025,14,4,19.333,13.667,19.333,22s.667,14.333,14,21a29.636,29.636,0,0,1,15.672,19.975" fill="none" stroke="#fff" stroke-linecap="round" stroke-linejoin="round" stroke-width="1"/>
          <path id="Path_105" data-name="Path 105" d="M321.333,205.333a9.413,9.413,0,0,0,.167,1.729" fill="none" stroke="#fff" stroke-linecap="round" stroke-linejoin="round" stroke-width="1"/>
          <path id="Path_106" data-name="Path 106" d="M340,205.333s16.667,8.334,16.333,19.667.667,22,11,28.333,21,10.334,24.667,23" fill="none" stroke="#fff" stroke-linecap="round" stroke-linejoin="round" stroke-width="1"/>
        </g>
        <path id="Path_107" data-name="Path 107" d="M349.3,265.976s-4.425,1.686-6.743,10.325,7.164,23.812,8.639,30.555,2.95,17.068,2.95,17.068S321.062,350.9,316.216,355.11s-7.375,6.954-7.375,6.954S296.83,372.6,295.776,374.707s-4,13.065-2.95,13.486,2.95-4.214,2.95-5.057,2.107-5.479,2.107-5.479S296.2,388.4,296.2,389.036s1.685,0,1.9-.843,2.529-9.693,2.529-9.693-1.265,9.9-.422,10.957,2.318-6.321,2.318-6.321l1.686-5.9s-.422,10.325.421,10.746,2.74-10.114,2.74-10.114,3.793-7.586,5.268-10.115a17.159,17.159,0,0,0,1.9-4.425s19.6-10.746,31.819-16.646,22.547-16.858,23.811-18.754-1.475-28.447-3.582-39.826S360.045,263.026,349.3,265.976Z" fill="#fff" stroke="#263238" stroke-linecap="round" stroke-linejoin="round" stroke-width="1"/>
      </g>
      <g id="Group_49" data-name="Group 49">
        <path id="Path_108" data-name="Path 108" d="M280.839,252.421s-7.54,5.127-13.572,9.953-5.127,14.476-5.127,16.587-.3,11.762-.3,11.762l-4.524,9.651s-6.937,6.333-8.445,7.841-10.254,18.7-10.254,18.7l-2.111,3.016,11.461,1.508a98.988,98.988,0,0,1,14.174-12.969c7.54-5.428,13.873-20.508,14.175-22.317a107.892,107.892,0,0,0,2.714-15.381" fill="#fff" stroke="#263238" stroke-linecap="round" stroke-linejoin="round" stroke-width="1"/>
        <g id="Group_48" data-name="Group 48">
          <path id="Path_109" data-name="Path 109" d="M277.042,292.934c-5.068-8.319-11.981-7.243-15.084-6.2-.064,2.2-.119,3.993-.119,3.993l-4.524,9.651s-6.937,6.333-8.445,7.841-10.254,18.7-10.254,18.7l-2.111,3.016,11.461,1.508a98.988,98.988,0,0,1,14.174-12.969c7.54-5.428,13.873-20.508,14.175-22.317C276.418,295.536,276.7,294.421,277.042,292.934Z" fill="#fff" stroke="#263238" stroke-linecap="round" stroke-linejoin="round" stroke-width="1"/>
          <g id="Group_47" data-name="Group 47">
            <path id="Path_110" data-name="Path 110" d="M242.919,322.993s-7.488,6.116-8.985,8.062-2.7,13.343-2.1,14.177,4.792,3.058,6.59,1.112,8.386-11.4,8.386-11.4-4.993,6.768-1.435,6.379S251.006,335.5,253.1,333s1.8-2.78,0-6.394l-1.8-3.614" fill="#fff" stroke="#263238" stroke-linecap="round" stroke-linejoin="round" stroke-width="1"/>
            <path id="Path_111" data-name="Path 111" d="M231.837,345.232s3.815-12.951,5.337-13.965" fill="none" stroke="#263238" stroke-linecap="round" stroke-linejoin="round" stroke-width="1"/>
            <path id="Path_112" data-name="Path 112" d="M233.634,346.179s4.414-12.217,6.7-14.753" fill="none" stroke="#263238" stroke-linecap="round" stroke-linejoin="round" stroke-width="1"/>
            <path id="Path_113" data-name="Path 113" d="M235.963,347.053s4.791-11.963,7.928-14.911" fill="none" stroke="#263238" stroke-linecap="round" stroke-linejoin="round" stroke-width="1"/>
            <path id="Path_114" data-name="Path 114" d="M246.813,334.947s2.544-2.259,2.932-3.618" fill="#fff" stroke="#263238" stroke-linecap="round" stroke-linejoin="round" stroke-width="1"/>
          </g>
        </g>
      </g>
    </g>
    <line id="Line_35" data-name="Line 35" x2="374.236" transform="translate(62.261 398.681)" fill="none" stroke="#263238" stroke-linecap="round" stroke-linejoin="round" stroke-width="1"/>
  </g>
</svg>
