<svg xmlns="http://www.w3.org/2000/svg" width="407.619" height="278.091" viewBox="0 0 407.619 278.091">
  <g id="Group_137" data-name="Group 137" transform="translate(-46.559 -143.299)">
    <g id="Shadows">
      <g id="Shadow--inject-214">
        <ellipse id="path--inject-214" cx="193.89" cy="11.32" rx="193.89" ry="11.32" transform="translate(56.11 398.75)" fill="#f5f5f5"/>
      </g>
    </g>
    <g id="Desk">
      <g id="Group_40" data-name="Group 40">
        <g id="Group">
          <rect id="Rectangle_40" data-name="Rectangle 40" width="407.619" height="5.129" transform="translate(46.559 273.12)" fill="#407bff"/>
          <path id="Path_18" data-name="Path 18" d="M70.839,276.8V399.14h3.18l4-122.34Z" fill="#407bff"/>
          <g id="Group_37" data-name="Group 37">
            <path id="Path_19" data-name="Path 19" d="M108.379,280.8V394.14h3.18l4-113.34Z" fill="#407bff"/>
            <path id="Path_20" data-name="Path 20" d="M108.379,280.8V394.14h3.18l4-113.34Z" opacity="0.5"/>
          </g>
          <path id="Path_21" data-name="Path 21" d="M431.345,276.8V399.14h-3.17l-4.01-122.34Z" fill="#407bff"/>
          <g id="Group_38" data-name="Group 38">
            <path id="Path_22" data-name="Path 22" d="M393.815,280.8V394.14h-3.18l-4-113.34Z" fill="#407bff"/>
            <path id="Path_23" data-name="Path 23" d="M393.815,280.8V394.14h-3.18l-4-113.34Z" opacity="0.5"/>
          </g>
          <g id="Group_39" data-name="Group 39">
            <path id="Path_24" data-name="Path 24" d="M438.6,283.739H63.339l-8.3-5.489H446.9Z" fill="#407bff"/>
            <path id="Path_25" data-name="Path 25" d="M438.6,283.739H63.339l-8.3-5.489H446.9Z" opacity="0.5"/>
          </g>
        </g>
      </g>
    </g>
    <g id="Beverages">
      <g id="Group_42" data-name="Group 42">
        <path id="Path_26" data-name="Path 26" d="M73.35,257.394v3.956a2.487,2.487,0,0,0,.73,1.766l3.174,3.173a2.463,2.463,0,0,0,1.027.608,8.135,8.135,0,0,0,7.38,4.717h1.188a8.143,8.143,0,0,0,8.144-8.143v-9.332H77.517v.757h-1.67A2.5,2.5,0,0,0,73.35,257.394Zm2,0a.5.5,0,0,1,.5-.5h1.67v6.575c0,.09.011.177.014.266L75.5,261.7a.507.507,0,0,1-.145-.352Z" fill="#407bff"/>
        <path id="Path_27" data-name="Path 27" d="M73.35,257.394v3.956a2.487,2.487,0,0,0,.73,1.766l3.174,3.173a2.463,2.463,0,0,0,1.027.608,8.135,8.135,0,0,0,7.38,4.717h1.188a8.143,8.143,0,0,0,8.144-8.143v-9.332H77.517v.757h-1.67A2.5,2.5,0,0,0,73.35,257.394Zm2,0a.5.5,0,0,1,.5-.5h1.67v6.575c0,.09.011.177.014.266L75.5,261.7a.507.507,0,0,1-.145-.352Z" fill="#fff" opacity="0.5"/>
        <g id="Group_41" data-name="Group 41">
          <path id="Path_28" data-name="Path 28" d="M99.141,272.951H74a4.614,4.614,0,0,1-2.96-1.48H102.1A4.614,4.614,0,0,1,99.141,272.951Z" fill="#407bff"/>
          <path id="Path_29" data-name="Path 29" d="M99.141,272.951H74a4.614,4.614,0,0,1-2.96-1.48H102.1A4.614,4.614,0,0,1,99.141,272.951Z" fill="#fff" opacity="0.5"/>
        </g>
      </g>
      <g id="Group_46" data-name="Group 46">
        <g id="Group_44" data-name="Group 44">
          <g id="Group_43" data-name="Group 43">
            <path id="Path_30" data-name="Path 30" d="M437.364,260.76c-.131-3.969-3.152-4.942-7.1-5.39v-1.449a.631.631,0,0,0-.642-.619H415.995a.644.644,0,0,0-.669.616v18.912h14.94v-2.067C434.219,270.32,437.244,264.736,437.364,260.76Zm-7.1,7.558v-10.5c2.9.428,4.9.824,4.477,3.724C434.4,263.857,432.582,267.976,430.266,268.318Z" fill="#407bff"/>
          </g>
        </g>
        <g id="Group_45" data-name="Group 45" opacity="0.5">
          <path id="Path_31" data-name="Path 31" d="M437.364,260.76c-.131-3.969-3.152-4.942-7.1-5.39v-1.449a.631.631,0,0,0-.642-.619H415.995a.644.644,0,0,0-.669.616v18.912h14.94v-2.067C434.219,270.32,437.244,264.736,437.364,260.76Zm-7.1,7.558v-10.5c2.9.428,4.9.824,4.477,3.724C434.4,263.857,432.582,267.976,430.266,268.318Z" fill="#fff"/>
        </g>
      </g>
    </g>
    <g id="PC">
      <g id="Group_74" data-name="Group 74">
        <g id="Group_49" data-name="Group 49">
          <g id="Group_47" data-name="Group 47">
            <rect id="Rectangle_41" data-name="Rectangle 41" width="11.79" height="23.952" transform="translate(244.105 248.731)" fill="#407bff"/>
            <rect id="Rectangle_42" data-name="Rectangle 42" width="11.79" height="23.952" transform="translate(244.105 248.731)" fill="#fff" opacity="0.5"/>
          </g>
          <g id="Group_48" data-name="Group 48">
            <path id="Path_32" data-name="Path 32" d="M261.218,273.112H238.881l5.448-4.8H255.77Z" fill="#407bff"/>
            <path id="Path_33" data-name="Path 33" d="M261.218,273.112H238.881l5.448-4.8H255.77Z" fill="#fff" opacity="0.5"/>
          </g>
        </g>
        <g id="Group_53" data-name="Group 53">
          <g id="Group_51" data-name="Group 51">
            <g id="Group_50" data-name="Group 50">
              <path id="Path_34" data-name="Path 34" d="M310.329,265.357h-55.84l10.09,7.784h55.83Z" fill="#407bff"/>
              <path id="Path_35" data-name="Path 35" d="M310.329,265.357h-55.84l10.09,7.784h55.83Z" fill="#fff" opacity="0.4"/>
            </g>
          </g>
          <g id="Group_52" data-name="Group 52">
            <path id="Path_36" data-name="Path 36" d="M255.779,273.141l-1.29-7.784,10.09,7.784Z" fill="#407bff"/>
            <path id="Path_37" data-name="Path 37" d="M255.779,273.141l-1.29-7.784,10.09,7.784Z" opacity="0.5"/>
          </g>
        </g>
        <g id="Group_54" data-name="Group 54">
          <rect id="Rectangle_43" data-name="Rectangle 43" width="105.492" height="66.181" rx="1.928" transform="translate(196.968 192.044)" fill="#407bff"/>
          <rect id="Rectangle_44" data-name="Rectangle 44" width="97.721" height="57.674" transform="translate(200.8 196.179)" opacity="0.5"/>
        </g>
        <g id="Group_57" data-name="Group 57">
          <g id="Group_55" data-name="Group 55">
            <rect id="Rectangle_45" data-name="Rectangle 45" width="49.311" height="33.948" transform="translate(246.105 208.042)" opacity="0.4"/>
            <rect id="Rectangle_46" data-name="Rectangle 46" width="49.311" height="3.11" transform="translate(246.105 208.042)" fill="#407bff"/>
          </g>
          <g id="Group_56" data-name="Group 56">
            <path id="Path_38" data-name="Path 38" d="M255.14,226.817l8.062,4.468a2.68,2.68,0,0,1,.807.607,1.1,1.1,0,0,1,.2.68,1.247,1.247,0,0,1-.376.9,1.189,1.189,0,0,1-.874.382,2.335,2.335,0,0,1-.983-.364l-10.4-5.784a1.023,1.023,0,0,1,0-1.788l10.4-5.783a2.4,2.4,0,0,1,.971-.353,1.212,1.212,0,0,1,.886.377,1.225,1.225,0,0,1,.376.9,1.1,1.1,0,0,1-.2.68,2.664,2.664,0,0,1-.807.607Z" fill="#fff"/>
            <path id="Path_39" data-name="Path 39" d="M275.883,218.488l-7.976,17.192a2.5,2.5,0,0,1-.547.838,1.177,1.177,0,0,1-.765.255,1.21,1.21,0,0,1-.88-.365,1.126,1.126,0,0,1-.37-.825,2.575,2.575,0,0,1,.291-.959l8-17.18a2.66,2.66,0,0,1,.534-.838,1.258,1.258,0,0,1,1.639.1,1.116,1.116,0,0,1,.365.819A2.552,2.552,0,0,1,275.883,218.488Z" fill="#fff"/>
            <path id="Path_40" data-name="Path 40" d="M285.914,226.817l-8.062-4.468a2.65,2.65,0,0,1-.807-.607,1.1,1.1,0,0,1-.2-.68,1.226,1.226,0,0,1,.377-.9,1.211,1.211,0,0,1,.886-.377,2.4,2.4,0,0,1,.971.353l10.4,5.783a1.023,1.023,0,0,1,0,1.788l-10.4,5.784a2.342,2.342,0,0,1-.971.364,1.216,1.216,0,0,1-.895-.385,1.277,1.277,0,0,1-.368-.9,1.106,1.106,0,0,1,.2-.679,2.666,2.666,0,0,1,.807-.607Z" fill="#fff"/>
          </g>
        </g>
        <g id="Group_73" data-name="Group 73">
          <g id="Group_58" data-name="Group 58">
            <rect id="Rectangle_47" data-name="Rectangle 47" width="3.338" height="3.338" transform="translate(204.806 201.503)" fill="#fff"/>
            <rect id="Rectangle_48" data-name="Rectangle 48" width="3.338" height="3.338" transform="translate(204.806 210.145)" fill="#fff"/>
            <rect id="Rectangle_49" data-name="Rectangle 49" width="3.338" height="3.338" transform="translate(204.806 218.787)" fill="#fff"/>
            <rect id="Rectangle_50" data-name="Rectangle 50" width="3.338" height="3.338" transform="translate(204.806 227.429)" fill="#fff"/>
            <rect id="Rectangle_51" data-name="Rectangle 51" width="3.338" height="3.338" transform="translate(204.806 236.071)" fill="#fff"/>
            <rect id="Rectangle_52" data-name="Rectangle 52" width="3.338" height="3.338" transform="translate(204.806 244.713)" fill="#fff"/>
          </g>
          <g id="Group_59" data-name="Group 59">
            <rect id="Rectangle_53" data-name="Rectangle 53" width="13.308" height="1" transform="translate(211.316 202.255)" fill="#fff"/>
          </g>
          <g id="Group_60" data-name="Group 60">
            <rect id="Rectangle_54" data-name="Rectangle 54" width="4.74" height="1" transform="translate(214.418 210.92)" fill="#fff"/>
          </g>
          <g id="Group_61" data-name="Group 61">
            <rect id="Rectangle_55" data-name="Rectangle 55" width="4.74" height="1" transform="translate(235.049 220.64)" fill="#fff"/>
          </g>
          <g id="Group_62" data-name="Group 62">
            <rect id="Rectangle_56" data-name="Rectangle 56" width="4.74" height="1" transform="translate(214.418 228.354)" fill="#fff"/>
          </g>
          <g id="Group_63" data-name="Group 63">
            <rect id="Rectangle_57" data-name="Rectangle 57" width="4.74" height="1" transform="translate(221.254 228.354)" fill="#fff"/>
          </g>
          <g id="Group_64" data-name="Group 64">
            <rect id="Rectangle_58" data-name="Rectangle 58" width="12.112" height="1" transform="translate(221.254 220.64)" fill="#fff"/>
          </g>
          <g id="Group_65" data-name="Group 65">
            <rect id="Rectangle_59" data-name="Rectangle 59" width="7.975" height="1" transform="translate(228.31 228.354)" fill="#fff"/>
          </g>
          <g id="Group_66" data-name="Group 66">
            <rect id="Rectangle_60" data-name="Rectangle 60" width="4.74" height="1" transform="translate(228.282 246.882)" fill="#fff"/>
          </g>
          <g id="Group_67" data-name="Group 67">
            <rect id="Rectangle_61" data-name="Rectangle 61" width="4.74" height="1" transform="translate(235.117 246.882)" fill="#fff"/>
          </g>
          <g id="Group_68" data-name="Group 68">
            <rect id="Rectangle_62" data-name="Rectangle 62" width="2.648" height="1" transform="translate(242.174 246.882)" fill="#fff"/>
          </g>
          <g id="Group_69" data-name="Group 69">
            <rect id="Rectangle_63" data-name="Rectangle 63" width="14.75" height="1" transform="translate(221.534 210.92)" fill="#fff"/>
          </g>
          <g id="Group_70" data-name="Group 70">
            <rect id="Rectangle_64" data-name="Rectangle 64" width="4.74" height="1" transform="translate(221.254 237.38)" fill="#fff"/>
          </g>
          <g id="Group_71" data-name="Group 71">
            <rect id="Rectangle_65" data-name="Rectangle 65" width="2.74" height="1" transform="translate(227.578 237.38)" fill="#fff"/>
          </g>
          <g id="Group_72" data-name="Group 72">
            <rect id="Rectangle_66" data-name="Rectangle 66" width="7.74" height="1" transform="translate(232.414 237.38)" fill="#fff"/>
          </g>
        </g>
      </g>
    </g>
    <g id="Speech_Code" data-name="Speech Code">
      <g id="Group_86" data-name="Group 86">
        <g id="Group_76" data-name="Group 76">
          <g id="Group_75" data-name="Group 75">
            <path id="Path_41" data-name="Path 41" d="M241.436,164.5c-.244,12.1-12.82,22.244-28.088,22.648a32.406,32.406,0,0,1-13.681-2.534c-1.533,3.8-4.777,7.061-14.069,8.521,9.7-7.489,4.392-13.824,2.182-19.4h0a17.47,17.47,0,0,1-1.667-7.779c.244-12.107,12.819-22.244,28.088-22.648C229.478,142.876,241.68,152.4,241.436,164.5Z" fill="#407bff"/>
          </g>
        </g>
        <g id="Group_85" data-name="Group 85">
          <g id="Group_77" data-name="Group 77">
            <rect id="Rectangle_67" data-name="Rectangle 67" width="13.308" height="1" transform="translate(200.791 151.834)" fill="#fff"/>
          </g>
          <g id="Group_78" data-name="Group 78">
            <rect id="Rectangle_68" data-name="Rectangle 68" width="4.74" height="1" transform="translate(203.892 160.499)" fill="#fff"/>
          </g>
          <g id="Group_79" data-name="Group 79">
            <rect id="Rectangle_69" data-name="Rectangle 69" width="4.74" height="1" transform="translate(224.523 170.218)" fill="#fff"/>
          </g>
          <g id="Group_80" data-name="Group 80">
            <rect id="Rectangle_70" data-name="Rectangle 70" width="4.74" height="1" transform="translate(203.892 177.933)" fill="#fff"/>
          </g>
          <g id="Group_81" data-name="Group 81">
            <rect id="Rectangle_71" data-name="Rectangle 71" width="4.74" height="1" transform="translate(210.728 177.933)" fill="#fff"/>
          </g>
          <g id="Group_82" data-name="Group 82">
            <rect id="Rectangle_72" data-name="Rectangle 72" width="12.112" height="1" transform="translate(210.728 170.218)" fill="#fff"/>
          </g>
          <g id="Group_83" data-name="Group 83">
            <rect id="Rectangle_73" data-name="Rectangle 73" width="7.975" height="1" transform="translate(217.784 177.933)" fill="#fff"/>
          </g>
          <g id="Group_84" data-name="Group 84">
            <rect id="Rectangle_74" data-name="Rectangle 74" width="14.75" height="1" transform="translate(211.008 160.499)" fill="#fff"/>
          </g>
        </g>
      </g>
    </g>
    <g id="Character_2" data-name="Character 2">
      <g id="Group_114" data-name="Group 114">
        <g id="Group_105" data-name="Group 105">
          <g id="Group_89" data-name="Group 89">
            <g id="Group_88" data-name="Group 88">
              <g id="Group_87" data-name="Group 87">
                <path id="Path_42" data-name="Path 42" d="M299.167,393.749l-7.29-2.18,1.7-17.87,7.29,2.18Z" fill="#7f3e3b"/>
                <path id="Path_43" data-name="Path 43" d="M301.468,371.842l-7.29-2.17-.95,10.01,7.37,1.37Z" opacity="0.2" style="isolation: isolate"/>
              </g>
              <path id="Path_44" data-name="Path 44" d="M342.317,283.379s-50.13,4.23-48.9,26c1.009,17.822,3.65,12.977-1.54,65.966l12.611.7s12.829-43.342,11.1-60.562c14.13,0,46.48,1.24,51.18-11.51a56.674,56.674,0,0,0,3.35-20.2Z" fill="#407bff"/>
            </g>
            <path id="Path_45" data-name="Path 45" d="M306.494,378.481l-16.48-2.82.27-7.29,17.06,3.79Z" fill="#263238"/>
          </g>
          <g id="Group_91" data-name="Group 91">
            <path id="Path_46" data-name="Path 46" d="M291.127,388.57l8.42,1.666a.633.633,0,0,1,.48.708l-.7,7.961a1.406,1.406,0,0,1-1.54,1.311c-2.92-.638-4.3-1.11-8-1.843-2.28-.448-7.49-1.547-10.66-1.9s-2.79-4.063-1.42-4.252c6.16-.815,9.66-1.807,12.05-3.354A1.873,1.873,0,0,1,291.127,388.57Z" fill="#263238"/>
            <g id="Group_90" data-name="Group 90">
              <path id="Path_47" data-name="Path 47" d="M287.349,390.013a9.556,9.556,0,0,0,2,.06.159.159,0,0,0,.15-.11.19.19,0,0,0,0-.19c-.21-.21-2.1-2-3.07-1.8a.632.632,0,0,0-.49.42,1,1,0,0,0,.06,1A2.09,2.09,0,0,0,287.349,390.013Zm1.61-.27c-1.39,0-2.37-.16-2.66-.57a.632.632,0,0,1,0-.64.323.323,0,0,1,.23-.22C287.039,388.2,288.179,389.043,288.959,389.743Z" fill="#407bff"/>
              <path id="Path_48" data-name="Path 48" d="M289.359,390.073h.08a.2.2,0,0,0,.12-.13c0-.09.55-2.22-.09-3.07a.851.851,0,0,0-.7-.37.672.672,0,0,0-.72.42c-.31.79.55,2.54,1.22,3.11A.129.129,0,0,0,289.359,390.073Zm-.52-3.21a.532.532,0,0,1,.35.22,3.915,3.915,0,0,1,.09,2.46,3.591,3.591,0,0,1-.9-2.49c0-.1.11-.21.37-.2Z" fill="#407bff"/>
            </g>
          </g>
          <g id="Group_94" data-name="Group 94">
            <g id="Group_92" data-name="Group 92">
              <path id="Path_49" data-name="Path 49" d="M266.667,396.529l-6.94-3.12,4.8-17.12,6.94,3.12Z" fill="#7f3e3b"/>
              <path id="Path_50" data-name="Path 50" d="M272.639,375l-6.94-3.12-2.47,8.83,6.94,3.12Z" opacity="0.2" style="isolation: isolate"/>
            </g>
            <g id="Group_93" data-name="Group 93">
              <path id="Path_51" data-name="Path 51" d="M327.4,283.379c-.33,0-56.2,5.75-56.27,24.7-.12,31.34-9.07,67.266-9.07,67.266l11.042,5.47s19.228-38.946,18.938-63.376c15.37-4.41,55.13,3,59.83-9.74,3.85-10.42,1.77-24.32,1.77-24.32Z" fill="#407bff"/>
              <path id="Path_52" data-name="Path 52" d="M274.864,382.4l-14.8-6.66,1.19-6.06,15.61,5.39Z" fill="#263238"/>
            </g>
          </g>
          <g id="Group_96" data-name="Group 96">
            <path id="Path_53" data-name="Path 53" d="M260.417,387.655l8.44,1.753a.7.7,0,0,1,.47.779l-.66,8.752c-.113.95-.8,1.6-1.529,1.455h0c-2.92-.675-4.3-1.2-8-1.961-2.28-.467-8.49-1.974-11.62-2.792s-2.43-4.8-1-4.831c6.19-.09,10.2-1.1,12.58-2.83A1.694,1.694,0,0,1,260.417,387.655Z" fill="#263238"/>
            <g id="Group_95" data-name="Group 95">
              <path id="Path_54" data-name="Path 54" d="M256.951,389.545a9.478,9.478,0,0,0,1.647-1.136.18.18,0,0,0,.058-.191.169.169,0,0,0-.146-.116c-.293-.046-2.875-.382-3.544.364a.673.673,0,0,0-.135.63,1,1,0,0,0,.637.773A2.089,2.089,0,0,0,256.951,389.545Zm1.129-1.167c-1.087.852-2,1.267-2.475,1.119a.638.638,0,0,1-.382-.525.3.3,0,0,1,.063-.3C255.643,388.308,257.043,388.278,258.08,388.378Z" fill="#407bff"/>
              <path id="Path_55" data-name="Path 55" d="M258.6,388.409l.072-.053a.15.15,0,0,0,.019-.162c-.053-.072-.875-2.12-1.893-2.431a.867.867,0,0,0-.778.12.68.68,0,0,0-.329.772c.214.821,1.941,1.716,2.826,1.777A.2.2,0,0,0,258.6,388.409Zm-2.325-2.278a.521.521,0,0,1,.414-.042,4,4,0,0,1,1.542,1.933,3.567,3.567,0,0,1-2.208-1.473c-.059-.081-.035-.234.181-.379Z" fill="#407bff"/>
            </g>
          </g>
          <g id="Group_97" data-name="Group 97">
            <path id="Path_56" data-name="Path 56" d="M346.377,222.916c1.47,3.16,2.68,6.2,3.89,9.36s2.28,6.32,3.27,9.56,1.85,6.56,2.54,10a52.169,52.169,0,0,1,1.12,10.87,22.4,22.4,0,0,1-.95,6.33,14.222,14.222,0,0,1-1.67,3.56,11.365,11.365,0,0,1-1.43,1.74l-.43.42c-.24.2-.5.42-.75.59a7.988,7.988,0,0,1-1.34.74,10.555,10.555,0,0,1-2.16.69,14.092,14.092,0,0,1-1.77.26,24.251,24.251,0,0,1-3.05,0,42.817,42.817,0,0,1-5.38-.6,101.913,101.913,0,0,1-19.41-5.56l1.45-5.51c6.35.76,12.83,1.57,18.94,1.85,1.52,0,3,.07,4.38,0a12.946,12.946,0,0,0,1.83-.23c.5-.09.93-.27.78-.26a1.165,1.165,0,0,0-.28.14,1.678,1.678,0,0,0-.28.21h0a1.56,1.56,0,0,0,.09-.17,4.659,4.659,0,0,0,.3-.89,14.024,14.024,0,0,0,.27-3.34,44.265,44.265,0,0,0-1.27-8.49c-.68-3-1.56-5.92-2.52-8.89s-2-5.94-3.14-8.9-2.34-5.93-3.52-8.72Z" fill="#7f3e3b"/>
            <path id="Path_57" data-name="Path 57" d="M323.067,266.866l-6.63-3.73-3.33,7.18s7.75,3.23,9.38,1.21Z" fill="#7f3e3b"/>
            <path id="Path_58" data-name="Path 58" d="M311.067,264.5l-3.03,4.8,5.07.97,3.33-7.18Z" fill="#7f3e3b"/>
          </g>
          <g id="Group_99" data-name="Group 99">
            <path id="Path_59" data-name="Path 59" d="M330.917,228.619c-1.27,3.19-2.6,6.24-4,9.33s-2.8,6.13-4.28,9.17a175.951,175.951,0,0,1-10,18c-1,1.48-2,2.95-3.12,4.42-.56.74-1.18,1.47-1.84,2.22-.36.38-.65.73-1.07,1.12l-.6.58-.34.32a8.5,8.5,0,0,1-3.28,1.74,14.606,14.606,0,0,1-1.94.41,20.253,20.253,0,0,1-3.22.13,41.66,41.66,0,0,1-5.54-.55,101.742,101.742,0,0,1-19.82-5.62l1.46-5.52c6.47.78,13.08,1.61,19.3,1.87a42.487,42.487,0,0,0,4.4-.06,11.13,11.13,0,0,0,1.75-.28,2.306,2.306,0,0,0,.54-.2c.06,0,0-.07-.27.1a1.285,1.285,0,0,0-.27.2s.07-.09.1-.12l.28-.31c.18-.18.4-.48.61-.72.41-.52.83-1.08,1.25-1.69.83-1.19,1.64-2.51,2.44-3.85,1.6-2.68,3.09-5.53,4.55-8.41s2.86-5.82,4.24-8.78c2.75-5.9,5.44-11.95,8-17.9Z" fill="#7f3e3b"/>
            <g id="Group_98" data-name="Group 98">
              <path id="Path_60" data-name="Path 60" d="M276.167,265.808l-6.64-3.779-3.33,7.18s7.75,3.24,9.39,1.22Z" fill="#7f3e3b"/>
              <path id="Path_61" data-name="Path 61" d="M264.167,263.449l-3.04,4.79,5.07.97,3.33-7.18Z" fill="#7f3e3b"/>
            </g>
          </g>
          <g id="Group_101" data-name="Group 101">
            <path id="Path_62" data-name="Path 62" d="M348.087,193.139l-4.24,4.91-6.471,6.694c.133.329.312.758.495,1.212a12.027,12.027,0,0,1,.863,3.872c.141,2.683-.116,4.952-4.347,6.772,0,0-4.44,5.8,6.12,4.19s12.15-7.09,12.15-7.09C347.977,210.369,347.717,199.3,348.087,193.139Z" fill="#7f3e3b"/>
            <g id="Group_100" data-name="Group 100">
              <path id="Path_63" data-name="Path 63" d="M326.557,187.6c0,.66-.33,1.22-.77,1.24s-.79-.5-.8-1.16.34-1.22.77-1.24S326.547,186.939,326.557,187.6Z" fill="#263238"/>
              <path id="Path_64" data-name="Path 64" d="M328.767,185.139a.384.384,0,0,1-.32-.18,3.248,3.248,0,0,0-2.42-1.54.4.4,0,0,1-.38-.4.389.389,0,0,1,.4-.38h0a4,4,0,0,1,3.06,1.9.4.4,0,0,1-.12.54A.438.438,0,0,1,328.767,185.139Z" fill="#263238"/>
              <path id="Path_65" data-name="Path 65" d="M326.317,187.969a21.209,21.209,0,0,1-2.3,5.12,3.2,3.2,0,0,0,2.72.2Z" fill="#630f0f"/>
              <path id="Path_66" data-name="Path 66" d="M348.687,184.269c-.39,8.16-.21,13-4.26,17.32a10.63,10.63,0,0,1-18.22-4.71c-1.84-7.23-.88-19.36,7-23a10.74,10.74,0,0,1,15.48,10.39Z" fill="#7f3e3b"/>
            </g>
          </g>
          <g id="Group_103" data-name="Group 103">
            <g id="Group_102" data-name="Group 102">
              <path id="Path_67" data-name="Path 67" d="M352.39,186.99a30.22,30.22,0,0,1-5.3,9.5l-10.62,2s-8.39-3.51-6.15-9.29c-1.42-1.2-.89-4.91.11-6.95a4.327,4.327,0,0,0,5.67-.15,3.885,3.885,0,0,0,6.15.51,4.1,4.1,0,0,0,6.46-1.04,3.671,3.671,0,0,0,4.28-.28c.05-.05.1-.09.15-.14A14.6,14.6,0,0,1,352.39,186.99Z" fill="#263238"/>
              <path id="Path_68" data-name="Path 68" d="M352.39,186.99a30.22,30.22,0,0,1-5.3,9.5l-10.62,2s-8.39-3.51-6.15-9.29c-1.42-1.2-.89-4.91.11-6.95a4.327,4.327,0,0,0,5.67-.15,3.885,3.885,0,0,0,6.15.51,4.1,4.1,0,0,0,6.46-1.04,3.671,3.671,0,0,0,4.28-.28c.05-.05.1-.09.15-.14A14.6,14.6,0,0,1,352.39,186.99Z" fill="#fff" opacity="0.1"/>
            </g>
            <path id="Path_69" data-name="Path 69" d="M353.92,177.1a3.689,3.689,0,0,1-.78,4.05c-.05.05-.1.09-.15.14a3.671,3.671,0,0,1-4.28.28,4.1,4.1,0,0,1-6.46,1.04,3.885,3.885,0,0,1-6.15-.51,4.327,4.327,0,0,1-5.67.15,3.453,3.453,0,0,1-1-1.24,2.327,2.327,0,0,1-.14-.33,2.368,2.368,0,0,1-.28.27,3.086,3.086,0,0,1-3.56.21,3.034,3.034,0,0,1-1.28-2.69,2.766,2.766,0,0,1,.11-.64,1.73,1.73,0,0,1-.3.41,2.5,2.5,0,0,1-3.56-.09,3.094,3.094,0,0,1,.99-4.36,3.678,3.678,0,0,1,1.88-.5,4.816,4.816,0,0,1,2.87.99,2.956,2.956,0,0,1,4.74-3.53,2.609,2.609,0,0,1,1.07-2.71c1.38-.8,3.68-.11,4.8,1.23,0,0,1.54-3.72,4.2-3.3.58.08,3.31,1.29,3.24,2.27a.414.414,0,0,1-.05.19,1.591,1.591,0,0,1,.13-.22,2.962,2.962,0,0,1,2.56-1.21,8.594,8.594,0,0,1,3.08.82c2.07.85,4.27,1.8,5.47,3.69S356.07,176.5,353.92,177.1Z" fill="#263238"/>
            <path id="Path_70" data-name="Path 70" d="M335.007,189.959a9.577,9.577,0,0,1-2.64,5.339c-1.81,1.731-3.35,0-3.37-2.63,0-2.38.89-6.149,3-6.849S335.4,187.369,335.007,189.959Z" fill="#7f3e3b"/>
          </g>
          <g id="Group_104" data-name="Group 104">
            <path id="Path_71" data-name="Path 71" d="M366.987,216.539c-.75-2-4.25-4-6.4-4h-1.42a77.683,77.683,0,0,0-8.57.55,152.51,152.51,0,0,0-17,2.86c-2.58.679-5.07,1.54-7.05,2.28-2.52,1-4,1.67-4,1.67s2.762,18.384,4.19,36.646c.8,10.162.466,20.254.72,27.194h42.66c1.47-8.34,1.238-15.614,1.358-30.674C371.545,244.025,370.077,224.769,366.987,216.539Z" fill="#263238"/>
            <path id="Path_72" data-name="Path 72" d="M325.815,246.338c.32,3.83.65,7.85,1,11.87,5-7.3,7.77-27.271,7.77-27.271Z" opacity="0.2" style="isolation: isolate"/>
          </g>
          <path id="Path_73" data-name="Path 73" d="M320.136,221.243c-6.11,3.44-12.1,21.044-12.1,21.044l13.989,10.556c5.34-5.05,13.15-17.58,14-22.59C337.4,222.563,329.926,215.763,320.136,221.243Z" fill="#263238"/>
        </g>
        <g id="Group_113" data-name="Group 113">
          <g id="Group_106" data-name="Group 106">
            <path id="Path_74" data-name="Path 74" d="M308.063,400.435a4.35,4.35,0,1,1-4.35-4.35,4.35,4.35,0,0,1,4.35,4.35Z" fill="#263238"/>
            <path id="Path_75" data-name="Path 75" d="M372.953,400.435a4.35,4.35,0,1,0,4.35-4.35,4.35,4.35,0,0,0-4.35,4.35Z" fill="#263238"/>
            <path id="Path_76" data-name="Path 76" d="M336.274,399.045a4.35,4.35,0,1,0,4.35-4.35,4.351,4.351,0,0,0-4.35,4.35Z" fill="#263238"/>
          </g>
          <g id="Group_107" data-name="Group 107">
            <path id="Path_77" data-name="Path 77" d="M339.273,393.675v-8.41h-12.46a39.793,39.793,0,0,0-7.29.68l-23.2,4.509a2.11,2.11,0,0,0,.47,4.181Z" fill="#263238"/>
            <path id="Path_78" data-name="Path 78" d="M339.273,393.675v-8.41h12.47a39.618,39.618,0,0,1,7.29.68l26.075,4.169a2.11,2.11,0,0,1-.47,4.181Z" fill="#263238"/>
          </g>
          <g id="Group_108" data-name="Group 108">
            <rect id="Rectangle_75" data-name="Rectangle 75" width="15.43" height="38.51" transform="translate(331.553 346.765)" fill="#263238"/>
            <rect id="Rectangle_76" data-name="Rectangle 76" width="11" height="17.91" transform="translate(333.773 328.845)" fill="#263238"/>
            <path id="Path_79" data-name="Path 79" d="M333.773,334.105l11,2.77v-8.03h-11Z" opacity="0.5" style="isolation: isolate"/>
          </g>
          <g id="Group_112" data-name="Group 112">
            <g id="Group_110" data-name="Group 110">
              <rect id="Rectangle_77" data-name="Rectangle 77" width="5.59" height="23.85" transform="translate(298.123 288.326)" fill="#263238"/>
              <path id="Path_80" data-name="Path 80" d="M331.739,328.845V225.163a13.617,13.617,0,0,1,4.647-10.246l7.39-6.47a13.623,13.623,0,0,1,8.97-3.372h26.7l13.045,13.881V328.845Z" fill="#407bff"/>
              <path id="Path_81" data-name="Path 81" d="M291.993,308.785h60.9v20.06h-70.82a7.2,7.2,0,0,1-6.2-10.869h0A18.721,18.721,0,0,1,291.993,308.785Z" fill="#407bff"/>
              <path id="Path_82" data-name="Path 82" d="M392.49,218.96V328.85H282.07a7.207,7.207,0,0,1-6.2-10.87,18.707,18.707,0,0,1,16.09-9.19h30.673a9.107,9.107,0,0,0,9.107-9.107V225.16a13.585,13.585,0,0,1,4.65-10.24l7.39-6.47a13.577,13.577,0,0,1,8.97-3.37h26.69Z" fill="#fff" opacity="0.7"/>
              <g id="Group_109" data-name="Group 109">
                <path id="Path_83" data-name="Path 83" d="M340.624,328.845V225.163a13.615,13.615,0,0,1,4.648-10.246l7.39-6.47a13.621,13.621,0,0,1,8.97-3.372h20.807a13.617,13.617,0,0,1,9.922,4.292l5.317,5.657a13.617,13.617,0,0,1,3.695,9.326v94.114a10.381,10.381,0,0,1-10.381,10.381Z" fill="#407bff"/>
                <path id="Path_84" data-name="Path 84" d="M340.624,328.845V225.163a13.615,13.615,0,0,1,4.648-10.246l7.39-6.47a13.621,13.621,0,0,1,8.97-3.372h20.807a13.617,13.617,0,0,1,9.922,4.292l5.317,5.657a13.617,13.617,0,0,1,3.695,9.326v94.114a10.381,10.381,0,0,1-10.381,10.381Z" fill="#fff" opacity="0.5"/>
              </g>
            </g>
            <g id="Group_111" data-name="Group 111">
              <path id="Path_85" data-name="Path 85" d="M319.9,295.605a57.657,57.657,0,0,0-38,0,5.4,5.4,0,0,1-6.69-2.549h0c-1.14-2.41.39-5.531,3.49-6.621a67.274,67.274,0,0,1,44.38,0c3.1,1.08,4.63,4.211,3.49,6.621h0A5.41,5.41,0,0,1,319.9,295.605Z" fill="#407bff"/>
              <path id="Path_86" data-name="Path 86" d="M319.9,295.605a57.657,57.657,0,0,0-38,0,5.4,5.4,0,0,1-6.69-2.549h0c-1.14-2.41.39-5.531,3.49-6.621a67.274,67.274,0,0,1,44.38,0c3.1,1.08,4.63,4.211,3.49,6.621h0A5.41,5.41,0,0,1,319.9,295.605Z" fill="#fff" opacity="0.7"/>
            </g>
          </g>
        </g>
      </g>
    </g>
    <g id="Character_1" data-name="Character 1">
      <g id="Group_136" data-name="Group 136">
        <g id="_Group_" data-name="&lt;Group&gt;">
          <g id="Group_116" data-name="Group 116">
            <g id="Group_115" data-name="Group 115">
              <path id="Path_87" data-name="Path 87" d="M164.492,196.4c-.21.59-.06,1.18.33,1.31s.87-.23,1.07-.82.06-1.19-.32-1.32S164.7,195.795,164.492,196.4Z" fill="#263238"/>
              <path id="Path_88" data-name="Path 88" d="M164.382,197.005a22.536,22.536,0,0,0,1.07,6.06,3.631,3.631,0,0,1-3-.46Z" fill="#a02724"/>
              <path id="Path_89" data-name="Path 89" d="M163.532,192.375a.362.362,0,0,0,.23,0,2.92,2.92,0,0,1,2.63.4.37.37,0,0,0,.48-.56,3.669,3.669,0,0,0-3.32-.55.37.37,0,0,0,0,.7Z" fill="#263238"/>
              <path id="Path_90" data-name="Path 90" d="M142.562,198.575c1.12,5.69,2.23,16.12-1.75,19.92,0,0,1.56,5.77,12.14,5.77,11.63,0,5.56-5.77,5.56-5.77-6.35-1.52-5.328-6.23-4.218-10.65Z" fill="#b55b52"/>
              <path id="Path_91" data-name="Path 91" d="M145.152,188.255c-2.08,7.44-3.68,11.69-1.3,16.7,3.57,7.55,16.045,8.529,19.45-.113,2.59-7.957,5.15-16.367-.97-21.737a10.539,10.539,0,0,0-17.18,5.15Z" fill="#b55b52"/>
            </g>
            <path id="Path_92" data-name="Path 92" d="M137.088,190.728c-.541-2.741-.68-5.739.688-8.176s4.684-3.929,7.09-2.508a11.7,11.7,0,1,1,16.59,15.045q.833-3.067,1.666-6.134a11.932,11.932,0,0,1-4.262,7.248q.483-3.066.964-6.133a9.4,9.4,0,0,1-4.541,7.053q.583-2.148,1.166-4.3a37.652,37.652,0,0,1-2.255,5.748c-.982,1.144-1.64,8.663-5.086,8.9C137.327,209.834,138.353,197.13,137.088,190.728Z" fill="#263238"/>
            <path id="Path_93" data-name="Path 93" d="M153,194.293a8.8,8.8,0,0,0,1.22,5.47c1.33,2.14,3.28,1.32,4-.87.64-2,.71-5.45-1.14-6.84S153.279,191.993,153,194.293Z" fill="#b55b52"/>
          </g>
          <g id="Group_118" data-name="Group 118">
            <path id="Path_94" data-name="Path 94" d="M124.813,266.371c-1.274-.423-7.222-3.482-8.169-2.935,2.747-7.008,4.459-8.083,5.708-12.544a6.865,6.865,0,0,0-1.33-6.507c-1.757-2.354-2.373-3.547-5.3-3.257-4.02,6.722-9.082,15.017-11.063,22.594-.667,2.551-1.15,4.487.368,6.644,1.337,1.9,3.811,2.667,6.126,2.874,5.575.5,13.842-.525,13.737-3.834C124.827,267.319,124.813,266.371,124.813,266.371Z" fill="#b55b52"/>
            <g id="Group_117" data-name="Group 117">
              <path id="Path_95" data-name="Path 95" d="M123.867,266.121l4.725-1.534-.42,8.532s-3.783.135-5.8-2.395Z" fill="#b55b52"/>
              <path id="Path_96" data-name="Path 96" d="M134.492,264.454l-.677,7.036-5.643,1.63.42-8.533Z" fill="#b55b52"/>
            </g>
          </g>
          <g id="Group_123" data-name="Group 123">
            <path id="Path_97" data-name="Path 97" d="M188.613,272.177s-6.583-5.16-15.228-22.215q-1.923-3.578-3.68-7.212c-1.177-2.447-2.308-4.84-3.385-7.41l10.216-4.4c2.107,4.584,5.382,9.312,7.7,13.862s7.795,15.326,8.481,16.332c.341.517.709.947,1.064,1.425l.528.7-6.591,7.619Z" fill="#b55b52"/>
            <g id="Group_120" data-name="Group 120">
              <g id="Group_119" data-name="Group 119">
                <path id="Path_98" data-name="Path 98" d="M197.259,239.024l-2.047-2.44-.946-3.653,6.171-5.733a26.737,26.737,0,0,1,2.537,3.818,1.955,1.955,0,0,1,.214.986l-.251,6.424Z" fill="#b55b52"/>
                <path id="Path_99" data-name="Path 99" d="M194.356,228.975l4.618-4.2,1.461,2.45-6.169,5.7Z" fill="#b55b52"/>
              </g>
              <path id="Path_100" data-name="Path 100" d="M197.35,237.238c.162-.687.3.66.757.119,1.365-1.634,3.346-1.811,4.525-.039s.17,19.618-1.714,25.207c-1.252,3.714-1.919,6.678-5.121,8.937a7.771,7.771,0,0,1-4.5,1.614,4.265,4.265,0,0,1-3.9-2.412c-.951-2.332,2.579-10.73,3.842-13.44C195.193,248.731,195.455,245.3,197.35,237.238Z" fill="#b55b52"/>
            </g>
            <g id="Group_122" data-name="Group 122">
              <g id="Group_121" data-name="Group 121">
                <path id="Path_101" data-name="Path 101" d="M184.115,236.47l8.175-.079a7.944,7.944,0,0,0,3.42-.542,6.21,6.21,0,0,0,2.793-3.489c1.156-2.965,1.253-6.216,1.712-9.365s1.406-6.433,3.788-8.543c-4.342.576-12.016-.785-15.35,2.772C186.886,219.11,183.781,236.473,184.115,236.47Z" fill="#407bff"/>
                <path id="Path_102" data-name="Path 102" d="M184.115,236.47l8.175-.079a7.944,7.944,0,0,0,3.42-.542,6.21,6.21,0,0,0,2.793-3.489c1.156-2.965,1.253-6.216,1.712-9.365s1.406-6.433,3.788-8.543c-4.342.576-12.016-.785-15.35,2.772C186.886,219.11,183.781,236.473,184.115,236.47Z" fill="#fff" opacity="0.5"/>
              </g>
              <path id="Path_103" data-name="Path 103" d="M198.1,224.333h0c-.469.123-.779,1.8-.677,2.276l.458.819.934,4.053,3.119-1.726-2.812-4.99A.908.908,0,0,0,198.1,224.333Z" fill="#b55b52"/>
            </g>
          </g>
          <path id="Path_104" data-name="Path 104" d="M127.626,219.923c-7.3,1.67-18.094,24.414-18.094,24.414l14.65,10a164.2,164.2,0,0,0,11.4-18.849C139.91,226.428,135.086,218.213,127.626,219.923Z" fill="#407bff"/>
          <g id="Group_124" data-name="Group 124">
            <path id="Path_105" data-name="Path 105" d="M138.292,220.475c-.84-1.83-1.75-3.92.14-4.57,2.09-.72,13.53-1.46,17.47-.11a4.059,4.059,0,0,1,2.851,4.983l-.021.077Z" fill="#263238"/>
            <path id="Path_106" data-name="Path 106" d="M132.14,233.058l-10.414,19.6,2.456,1.676s4.718-6.569,7.958-12.249Z" opacity="0.2" style="isolation: isolate"/>
            <path id="Path_107" data-name="Path 107" d="M172.012,229.931c1.577,7.983-2.108,26.965-2.07,57.974h-41.63c-.275-6.267,4.283-21.106-1.379-50.667-.183-.958-.267-17.146.693-17.315a108.886,108.886,0,0,1,12.186-1.438,151.477,151.477,0,0,1,17.7,0c2.405.242,6.2,1.737,8.594,2.6C169.841,222.427,171.242,226.036,172.012,229.931Z" fill="#407bff"/>
            <path id="Path_108" data-name="Path 108" d="M160.995,237.88c1.086,6.571,5.4,15.253,9.689,20.345.17-3.73.542-7.625.532-10.615Z" opacity="0.2" style="isolation: isolate"/>
          </g>
          <path id="Path_109" data-name="Path 109" d="M158.034,228.005c-1,7.37,13.5,26.19,13.5,26.19l14.59-10s-4.05-10.37-10.86-17.17C167.5,219.225,159.174,219.985,158.034,228.005Z" fill="#407bff"/>
          <g id="Group_125" data-name="Group 125">
            <path id="Path_110" data-name="Path 110" d="M205.722,391.125h7.78l1.77-18.03h-7.78Z" fill="#b55b52"/>
            <path id="Path_111" data-name="Path 111" d="M215.153,374.194l-.9,9.29h-7.79l.91-9.29Z" opacity="0.2" style="isolation: isolate"/>
          </g>
          <g id="Group_127" data-name="Group 127">
            <path id="Path_112" data-name="Path 112" d="M175.032,391.125h7.78l3.91-18.03h-7.78Z" fill="#b55b52"/>
            <g id="Group_126" data-name="Group 126" opacity="0.2">
              <path id="Path_113" data-name="Path 113" d="M178.773,374.056h7.78l-2.02,9.29h-7.78Z"/>
            </g>
          </g>
          <path id="Path_114" data-name="Path 114" d="M213.942,387.629h-8.49a.758.758,0,0,0-.67.7l-1.54,8.9a1.522,1.522,0,0,0,.839,1.76.9.9,0,0,0,.281.039c3.06-.065,7.49-.3,11.34-.3,4.51,0,8.4.311,13.68.311,3.2,0,4.09-4.181,2.75-4.556-6.09-1.722-11.06-1.9-16.32-6.109A3.067,3.067,0,0,0,213.942,387.629Z" fill="#263238"/>
          <g id="Group_128" data-name="Group 128">
            <path id="Path_115" data-name="Path 115" d="M220.122,390.525c1,0,2-.14,2.29-.59a.71.71,0,0,0,0-.81,1,1,0,0,0-.58-.43c-1.3-.35-4,1.2-4.13,1.27a.169.169,0,0,0-.09.19.19.19,0,0,0,.14.15A13.65,13.65,0,0,0,220.122,390.525Zm1.24-1.51a1.205,1.205,0,0,1,.35,0,.518.518,0,0,1,.36.26c.13.23.09.34,0,.4-.36.51-2.33.52-3.78.31A8.33,8.33,0,0,1,221.362,389.015Z" fill="#407bff"/>
            <path id="Path_116" data-name="Path 116" d="M217.772,390.3h.08c.94-.42,2.8-2.1,2.65-3,0-.21-.18-.46-.68-.52a1.358,1.358,0,0,0-1,.32c-1,.81-1.2,2.91-1.21,3a.189.189,0,0,0,.07.17A.234.234,0,0,0,217.772,390.3Zm1.9-3.15h.11c.33,0,.35.17.36.21.09.53-1.18,1.85-2.14,2.42a4.3,4.3,0,0,1,1-2.39A1,1,0,0,1,219.672,387.155Z" fill="#407bff"/>
          </g>
          <path id="Path_117" data-name="Path 117" d="M183.362,387.629h-8.74a.751.751,0,0,0-.66.7l-1.54,8.9a1.53,1.53,0,0,0,.884,1.766.928.928,0,0,0,.256.033c3.05-.065,4.54-.3,8.38-.3,2.37,0,5.4.311,8.67.311s3.69-4.181,2.35-4.556c-6-1.7-6.41-4.038-8.33-6.278A1.66,1.66,0,0,0,183.362,387.629Z" fill="#263238"/>
          <g id="Group_129" data-name="Group 129">
            <path id="Path_118" data-name="Path 118" d="M187.932,391.515a2.514,2.514,0,0,0,1.87-.51.741.741,0,0,0,0-.87.85.85,0,0,0-.58-.43c-1.14-.27-3.29,1.2-3.38,1.26a.209.209,0,0,0-.08.19.18.18,0,0,0,.14.14A9.621,9.621,0,0,0,187.932,391.515Zm1-1.48a.736.736,0,0,1,.22,0,.459.459,0,0,1,.34.24c.17.31.07.43,0,.48-.33.43-1.92.44-3.09.25a6,6,0,0,1,2.51-.97Z" fill="#407bff"/>
            <path id="Path_119" data-name="Path 119" d="M185.952,391.3h.08c.81-.44,2.37-2.14,2.2-3a.6.6,0,0,0-.59-.49,1,1,0,0,0-.78.24c-.9.74-1.09,3-1.1,3.08a.2.2,0,0,0,.09.17A.17.17,0,0,0,185.952,391.3Zm1.57-3.15h.08c.24,0,.26.14.27.19.1.51-.9,1.8-1.7,2.41a4.408,4.408,0,0,1,.92-2.44.658.658,0,0,1,.43-.16Z" fill="#407bff"/>
          </g>
          <g id="Group_131" data-name="Group 131">
            <g id="Group_130" data-name="Group 130">
              <path id="Path_120" data-name="Path 120" d="M157.462,287.915s36.849,15.212,44.468,26.91c-4.53,29.739-12.66,63.62-12.66,63.62H175.412A273.645,273.645,0,0,1,179,334.684c2-36.35-63.418,1.261-50.708-46.769Z" fill="#263238"/>
              <path id="Path_121" data-name="Path 121" d="M182.938,312.985a67.819,67.819,0,0,0-7.7.886l-8.076,1.242a121.548,121.548,0,0,0,13.157,9.619c2.788,1.764,5.822,3.465,9.121,3.48,3.695.018,13.735-4.745,12.07-9.669C199.827,313.552,187.139,312.822,182.938,312.985Z" opacity="0.3"/>
            </g>
            <path id="Path_122" data-name="Path 122" d="M169.942,287.915S204,292.307,222.78,303c5.781,3.292,4.972,13.864,4.822,20.825a164.535,164.535,0,0,1-10.62,54.62h-11.56s.59-18.87.2-49.32c-.12-9.13-18.55-12.14-36.56-13.2a41,41,0,0,1-35.24-25.07l-1.23-2.94Z" fill="#263238"/>
            <path id="Path_123" data-name="Path 123" d="M219.812,375.345c.06,0-.75,5.47-.75,5.47h-16l-.44-4.88Z" fill="#407bff"/>
            <path id="Path_124" data-name="Path 124" d="M190.612,375.345c.06,0-1.47,5.47-1.47,5.47h-16l.29-4.88Z" fill="#407bff"/>
          </g>
          <g id="Group_135" data-name="Group 135">
            <g id="Group_132" data-name="Group 132">
              <path id="Path_125" data-name="Path 125" d="M147.615,315.509l-11.464,84.507-2.071-.283,8.848-84.864Z" fill="#407bff"/>
              <path id="Path_126" data-name="Path 126" d="M147.2,318.535l-11.054,81.481-2.071-.283,8.467-81.208Z" opacity="0.4" style="isolation: isolate"/>
            </g>
            <g id="Group_133" data-name="Group 133">
              <path id="Path_127" data-name="Path 127" d="M187.942,318.535h-65a7.42,7.42,0,0,1,7.42-7.42h50.16a7.42,7.42,0,0,1,7.42,7.42Z" fill="#407bff"/>
              <path id="Path_128" data-name="Path 128" d="M187.942,318.535h-65a7.42,7.42,0,0,1,7.42-7.42h50.16a7.42,7.42,0,0,1,7.42,7.42Z" fill="#fff" opacity="0.7"/>
            </g>
            <path id="Path_129" data-name="Path 129" d="M125.952,318.525l-9.8,82.16h2.1l12.43-82.16Z" fill="#407bff"/>
            <g id="Group_134" data-name="Group 134">
              <path id="Path_130" data-name="Path 130" d="M184.932,318.525l9.8,82.16h-2.1l-12.42-82.16Z" fill="#407bff"/>
              <path id="Path_131" data-name="Path 131" d="M184.932,318.525l9.8,82.16h-2.1l-12.42-82.16Z" opacity="0.4" style="isolation: isolate"/>
            </g>
            <path id="Path_132" data-name="Path 132" d="M171.822,318.525l.19,82.16h-2.09l-2.83-82.16Z" fill="#407bff"/>
          </g>
        </g>
      </g>
    </g>
  </g>
</svg>
