<svg xmlns="http://www.w3.org/2000/svg" width="701.697" height="431.317" viewBox="0 0 701.697 431.317"><g transform="translate(-23.823 -29.835)"><rect width="152.297" height="101.972" transform="translate(24.096 79.595)" fill="#fff"/><path d="M176.393,181.567s-.016-.638-.024-1.855-.014-3.027-.024-5.38c-.013-4.72-.032-11.644-.056-20.509-.027-17.716-.066-43.182-.114-74.228l.218.218-152.285.055H24.1l.273-.273c-.008,36.328-.016,70.873-.023,101.972l-.25-.25,109.72.123,31.347.067,8.338.03,2.153.015c.485.005.739.015.739.015s-.235.01-.71.015l-2.125.014-8.288.031-31.29.067L24.1,181.817h-.25v-.25c-.007-31.1-.015-65.644-.023-101.972v-.273h.285l152.285.054h.218V79.6c-.048,31.1-.087,56.615-.115,74.364-.024,8.844-.042,15.751-.055,20.46-.011,2.335-.019,4.123-.025,5.339S176.393,181.567,176.393,181.567Z" fill="#e0e0e0"/><path d="M24.1,88.695c0-.151,34.067-.273,76.082-.273s76.089.122,76.089.273-34.06.273-76.089.273S24.1,88.845,24.1,88.695Z" fill="#e0e0e0"/><g opacity="0.3"><path d="M30.1,84.1a1.221,1.221,0,1,1-1.22-1.221A1.22,1.22,0,0,1,30.1,84.1Z" fill="#e0e0e0"/></g><g opacity="0.3"><path d="M34.287,84.1a1.22,1.22,0,1,1-1.221-1.221A1.221,1.221,0,0,1,34.287,84.1Z" fill="#e0e0e0"/></g><g opacity="0.3"><path d="M38.409,84.1a1.221,1.221,0,1,1-1.22-1.221A1.22,1.22,0,0,1,38.409,84.1Z" fill="#e0e0e0"/></g><rect width="40.625" height="40.625" transform="translate(37.189 99.329)" fill="#e0e0e0"/><path d="M155.508,110.812c0,.15-15.845.273-35.385.273s-35.388-.123-35.388-.273,15.841-.273,35.388-.273S155.508,110.661,155.508,110.812Z" fill="#e0e0e0"/><path d="M155.508,118.361c0,.151-15.845.273-35.385.273s-35.388-.122-35.388-.273,15.841-.273,35.388-.273S155.508,118.21,155.508,118.361Z" fill="#e0e0e0"/><path d="M155.508,125.91c0,.151-15.845.273-35.385.273s-35.388-.122-35.388-.273,15.841-.273,35.388-.273S155.508,125.759,155.508,125.91Z" fill="#e0e0e0"/><path d="M126.563,133.459a9.463,9.463,0,0,1-1.644.107l-4.482.087c-3.785.049-9.013.08-14.787.08s-11.005-.031-14.79-.08l-4.482-.087a9.443,9.443,0,0,1-1.643-.107,9.655,9.655,0,0,1,1.643-.106l4.482-.086c3.785-.05,9.013-.08,14.79-.08s11,.03,14.787.08l4.482.086A9.676,9.676,0,0,1,126.563,133.459Z" fill="#e0e0e0"/><rect width="19.092" height="19.092" transform="translate(39.731 153.651)" fill="#e0e0e0"/><rect width="19.092" height="19.092" transform="translate(74.355 153.651)" fill="#e0e0e0"/><rect width="19.092" height="19.092" transform="translate(108.978 153.651)" fill="#e0e0e0"/><rect width="19.092" height="19.092" transform="translate(143.602 153.651)" fill="#e0e0e0"/><rect width="131.189" height="53.287" transform="translate(198.866 30.043)" fill="#fff"/><path d="M330.055,83.33s-.01-.328-.015-.952-.009-1.555-.015-2.765c-.009-2.431-.021-6-.037-10.6-.018-9.2-.045-22.5-.079-38.966l.146.146-131.18.062h-.009l.208-.208c0,18.66-.006,36.673-.009,53.287l-.2-.2,94.06.094,27.286.055,7.3.025,1.891.012c.426,0,.649.013.649.013s-.207.008-.625.012l-1.867.013-7.261.025-27.241.055-94.2.094h-.2v-.2c0-16.614-.006-34.627-.009-53.287v-.208h.217l131.18.062h.147v.146c-.033,16.5-.06,29.836-.079,39.054-.015,4.587-.028,8.148-.036,10.572-.007,1.2-.012,2.113-.016,2.738S330.055,83.33,330.055,83.33Z" fill="#e0e0e0"/><path d="M199,37.229c0-.115,29.324-.208,65.488-.208s65.493.093,65.493.208-29.317.208-65.493.208S199,37.344,199,37.229Z" fill="#e0e0e0"/><g opacity="0.3"><path d="M204.489,34.015a.952.952,0,1,1-.952-.952A.952.952,0,0,1,204.489,34.015Z" fill="#ebebeb"/></g><g opacity="0.3"><path d="M207.752,34.015a.952.952,0,1,1-.952-.952A.952.952,0,0,1,207.752,34.015Z" fill="#ebebeb"/></g><g opacity="0.3"><circle cx="0.952" cy="0.952" r="0.952" transform="translate(209.063 33.063)" fill="#ebebeb"/></g><rect width="31.687" height="31.687" transform="translate(210.015 45.89)" fill="#e0e0e0"/><path d="M320.978,54.382c0,.114-16.306.207-36.416.207s-36.419-.093-36.419-.207,16.3-.208,36.419-.208S320.978,54.267,320.978,54.382Z" fill="#e0e0e0"/><path d="M320.978,60.837c0,.115-16.306.208-36.416.208s-36.419-.093-36.419-.208,16.3-.208,36.419-.208S320.978,60.722,320.978,60.837Z" fill="#e0e0e0"/><path d="M295.03,67.292a1.982,1.982,0,0,1-.476.042l-1.366.039-5.024.066-16.576.061-16.579-.061-5.024-.066-1.366-.039a1.982,1.982,0,0,1-.476-.042,2.123,2.123,0,0,1,.476-.042l1.366-.039,5.024-.065,16.579-.061,16.576.061,5.024.065,1.366.039A2.124,2.124,0,0,1,295.03,67.292Z" fill="#e0e0e0"/><path d="M684.02,101.158a4.821,4.821,0,0,1,.743-.844l2.156-2.167c1.836-1.813,4.4-4.293,7.243-7.01l.065-.061,0,.366c-2.87-2.666-5.446-5.1-7.293-6.873l-2.169-2.123a4.718,4.718,0,0,1-.748-.828,4.857,4.857,0,0,1,.88.685l2.277,2.006c1.908,1.71,4.522,4.1,7.392,6.764l.2.182-.193.185-.065.062c-2.848,2.716-5.446,5.155-7.344,6.9q-1.343,1.213-2.266,2.051A4.828,4.828,0,0,1,684.02,101.158Z" fill="#e0e0e0"/><path d="M661.87,81.618a4.824,4.824,0,0,1-.743.844l-2.156,2.167c-1.836,1.813-4.4,4.293-7.243,7.01l-.065.061,0-.366c2.87,2.666,5.446,5.1,7.293,6.873l2.169,2.123a4.725,4.725,0,0,1,.748.828,4.853,4.853,0,0,1-.88-.685l-2.277-2.006c-1.908-1.71-4.522-4.1-7.392-6.764l-.2-.182.193-.185.065-.062c2.848-2.716,5.446-5.155,7.344-6.9l2.266-2.05A4.853,4.853,0,0,1,661.87,81.618Z" fill="#e0e0e0"/><path d="M667.556,105.76c-.13-.048,2.195-6.584,5.192-14.6s5.531-14.468,5.661-14.42-2.2,6.583-5.193,14.6S667.685,105.809,667.556,105.76Z" fill="#e0e0e0"/><path d="M709.19,119.744s-.015-.38-.023-1.093c-.005-.728-.013-1.778-.023-3.144-.013-2.761-.031-6.782-.054-11.907-.026-10.251-.063-24.9-.108-42.563l.208.209-72.043.042h-.006l.25-.251c-.009,21.223-.019,41.264-.026,58.707l-.224-.225,52.026.113,14.746.059,3.914.027,1.012.013c.229,0,.351.013.351.013s-.1.008-.325.012l-.987.013-3.871.027-14.7.06-52.17.112h-.223v-.224c-.008-17.443-.017-37.484-.027-58.707v-.251h.256l72.043.042h.209v.209c-.045,17.718-.082,32.412-.108,42.7-.023,5.1-.041,9.11-.054,11.859-.01,1.349-.018,2.386-.024,3.1C709.206,119.395,709.19,119.744,709.19,119.744Z" fill="#e0e0e0"/><path d="M709.755,69.748c0,.138-16.264.251-36.321.251s-36.325-.113-36.325-.251,16.26-.252,36.325-.252S709.755,69.609,709.755,69.748Z" fill="#e0e0e0"/><path d="M643.021,65.463a.97.97,0,1,1-.97-.973A.972.972,0,0,1,643.021,65.463Z" fill="#e0e0e0"/><path d="M646.557,65.463a.97.97,0,1,1-.97-.973A.972.972,0,0,1,646.557,65.463Z" fill="#e0e0e0"/><path d="M650.093,65.463a.97.97,0,1,1-.97-.973A.972.972,0,0,1,650.093,65.463Z" fill="#e0e0e0"/><path d="M692.59,377.9c4.164-2.148,9.066-2.427,13.688-1.663,2.483.41,5.072,1.153,6.762,3.019s2.009,5.147.069,6.75a6.472,6.472,0,0,1-4.263,1.081c-3.618-.042-7.633-.679-10.524,1.5-1.649,1.242-2.747,3.307-4.719,3.918a4.662,4.662,0,0,1-5.129-2.282,7.97,7.97,0,0,1-.58-5.879A8.977,8.977,0,0,1,692.59,377.9Z" fill="#ebebeb"/><path d="M683.052,359.487c2.546,3.636,7.494,2.432,9.788.213s3.264-5.436,4.146-8.5c2.017-7.008,4.05-14.36,2.551-21.5a11.947,11.947,0,0,0-2.746-5.845,6.24,6.24,0,0,0-5.913-1.968c-2.495.659-4.045,3.1-5.166,5.427a51.254,51.254,0,0,0-5.064,21.992c-.012,3.542.4,7.257,2.4,10.182" fill="#ebebeb"/><path d="M676.061,364.7c2.764-3.28,3.288-8.065,2.059-12.175a23.467,23.467,0,0,0-7.212-10.46A38.8,38.8,0,0,0,658,334.45a13.764,13.764,0,0,0-5.808-.987,6.1,6.1,0,0,0-4.873,2.949c-1.359,2.592-.056,5.735,1.353,8.3a98.31,98.31,0,0,0,8.481,12.915c2.542,3.278,5.454,6.511,9.329,7.992s7.9,1.307,9.952-1.38" fill="#ebebeb"/><path d="M682.879,414.336a7.943,7.943,0,0,0,.231-1.652c.117-1.2.264-2.713.439-4.51a65.089,65.089,0,0,1,1.014-6.613,51,51,0,0,1,2.4-7.806,28.741,28.741,0,0,1,3.986-7.063,14.879,14.879,0,0,1,5.039-4.19,14.085,14.085,0,0,1,4.244-1.321,7.99,7.99,0,0,0,1.645-.238,7.732,7.732,0,0,0-1.674-.026,12.842,12.842,0,0,0-4.425,1.151,14.858,14.858,0,0,0-5.316,4.226,28.107,28.107,0,0,0-4.132,7.2,47.779,47.779,0,0,0-2.386,7.934,55.849,55.849,0,0,0-.88,6.7c-.143,1.915-.2,3.465-.223,4.537A7.819,7.819,0,0,0,682.879,414.336Z" fill="#e0e0e0"/><path d="M683.19,410.866a3.253,3.253,0,0,0,.045-.767c0-.576,0-1.3-.006-2.192-.006-1.9-.005-4.656.1-8.055.169-6.8.754-14.118,1.885-24.436,1.071-9.7,2.508-20.991,4.025-28.332.325-1.669.653-3.172.961-4.487s.545-2.456.788-3.375c.208-.866.377-1.571.512-2.131a.385.385,0,1,0-.132-.038c-.168.552-.378,1.247-.637,2.1-.282.911-.572,2.041-.9,3.354s-.705,2.809-1.062,4.476a249.044,249.044,0,0,0-4.231,26.289c-1.133,10.339-1.644,19.752-1.689,26.569-.04,3.409.032,6.168.119,8.072.055.89.1,1.615.134,2.191A3.266,3.266,0,0,0,683.19,410.866Z" fill="#e0e0e0"/><path d="M683.236,392.71a14.651,14.651,0,0,0-.016-2.29c-.085-1.472-.287-3.6-.7-6.205a81.649,81.649,0,0,0-2.018-9.04,73.888,73.888,0,0,0-3.78-10.7,56.973,56.973,0,0,0-11.1-17.286,28.089,28.089,0,0,0-2.612-2.428c-.4-.339-.754-.676-1.115-.944l-1.013-.7a14.808,14.808,0,0,0-1.928-1.235,68.407,68.407,0,0,1,6.319,5.638,60.024,60.024,0,0,1,10.824,17.224,84.406,84.406,0,0,1,3.8,10.6,91.864,91.864,0,0,1,2.147,8.95c.473,2.579.747,4.685.912,6.143A14.685,14.685,0,0,0,683.236,392.71Z" fill="#e0e0e0"/><path d="M665.686,424.738l1.819,24.925h32.02l1.819-24.925Z" fill="#e0e0e0"/><rect width="42.572" height="9.824" transform="translate(662.594 414.913)" fill="#e0e0e0"/><path d="M662.594,448.709v2.723h41.869v-2.723Z" fill="#ebebeb"/><path d="M666.555,456.225l-1.961-4.793h38.343l-2.287,4.793Z" fill="#e0e0e0"/><path d="M700.751,432.884a1.083,1.083,0,0,1-.149.229l-.479.634c-.454.582-1.079,1.382-1.865,2.387l-.083.106-.08-.11-4.583-6.339h.264l-4.512,6.389-.142.2-.158-.188c-1.665-1.981-3.473-4.133-5.351-6.366l.309,0-.295.37-4.784,6-.16.2-.147-.208-4.514-6.388.262.013-5.559,6.334-.1.112-.075-.126L666.81,433.2l-.446-.778a1.255,1.255,0,0,1-.137-.278,1.227,1.227,0,0,1,.187.247l.494.749,1.827,2.871-.174-.014,5.471-6.411.138-.162.124.175c1.385,1.932,2.916,4.07,4.555,6.358l-.307-.009,4.774-6.007c.1-.127.2-.253.294-.37l.152-.191.156.187,5.337,6.379-.3.012c1.647-2.3,3.18-4.436,4.557-6.356l.133-.187.131.187,4.486,6.407-.163,0,1.94-2.327.52-.6C700.679,432.944,700.744,432.878,700.751,432.884Z" fill="#f5f5f5"/><path d="M701.791,424.573c0,.11-8.023.2-17.918.2s-17.92-.09-17.92-.2,8.022-.2,17.92-.2S701.791,424.463,701.791,424.573Z" fill="#f5f5f5"/><path d="M703.409,451.7c0,.11-8.72.2-19.474.2s-19.475-.089-19.475-.2,8.718-.2,19.475-.2S703.409,451.591,703.409,451.7Z" fill="#f5f5f5"/><path d="M7.751,0H518.638a6.74,6.74,0,0,1,6.74,6.74V332.859a14.567,14.567,0,0,1-14.567,14.567H14.567A14.567,14.567,0,0,1,0,332.859V7.751A7.751,7.751,0,0,1,7.751,0Z" transform="translate(101.392 104.094)" fill="#455a64"/><path d="M0,0H569.206a0,0,0,0,1,0,0V16.678A13.721,13.721,0,0,1,555.485,30.4H13.721A13.721,13.721,0,0,1,0,16.678V0A0,0,0,0,1,0,0Z" transform="translate(79.421 425.826)" fill="#455a64"/><rect width="495.703" height="293.396" transform="translate(115.494 117.898)" fill="#e0e0e0"/><path d="M312.289,425.826l7.063,11.235h99.39l6.559-11.235Z" fill="#263238"/><rect width="467.484" height="276.397" transform="translate(130.202 134.896)" fill="#263238"/><path d="M166.069,403.183c-.242,0-.438-58.868-.438-131.468,0-72.625.2-131.48.438-131.48s.439,58.855.439,131.48C166.508,344.315,166.311,403.183,166.069,403.183Z" fill="#e0e0e0"/><path d="M156.639,164.069c0,.243-3.4.439-7.593.439s-7.594-.2-7.594-.439,3.4-.438,7.594-.438S156.639,163.827,156.639,164.069Z" fill="#e0e0e0"/><path d="M157.224,149.149c0,.242-3.4.439-7.593.439s-7.6-.2-7.6-.439,3.4-.438,7.6-.438S157.224,148.907,157.224,149.149Z" fill="#e0e0e0"/><path d="M156.639,180.152c0,.242-3.4.438-7.593.438s-7.594-.2-7.594-.438,3.4-.439,7.594-.439S156.639,179.909,156.639,180.152Z" fill="#e0e0e0"/><path d="M156.639,196.234c0,.242-3.4.439-7.593.439s-7.594-.2-7.594-.439,3.4-.438,7.594-.438S156.639,195.992,156.639,196.234Z" fill="#e0e0e0"/><path d="M156.639,212.316c0,.243-3.4.439-7.593.439s-7.594-.2-7.594-.439,3.4-.438,7.594-.438S156.639,212.074,156.639,212.316Z" fill="#e0e0e0"/><path d="M156.639,228.4c0,.242-3.4.439-7.593.439s-7.594-.2-7.594-.439,3.4-.439,7.594-.439S156.639,228.157,156.639,228.4Z" fill="#e0e0e0"/><path d="M156.639,244.481c0,.243-3.4.439-7.593.439s-7.594-.2-7.594-.439,3.4-.438,7.594-.438S156.639,244.239,156.639,244.481Z" fill="#e0e0e0"/><path d="M156.639,260.564c0,.242-3.4.438-7.593.438s-7.594-.2-7.594-.438,3.4-.439,7.594-.439S156.639,260.322,156.639,260.564Z" fill="#e0e0e0"/><path d="M156.639,276.646c0,.243-3.4.439-7.593.439s-7.594-.2-7.594-.439,3.4-.438,7.594-.438S156.639,276.4,156.639,276.646Z" fill="#e0e0e0"/><path d="M156.639,292.729c0,.242-3.4.438-7.593.438s-7.594-.2-7.594-.438,3.4-.439,7.594-.439S156.639,292.487,156.639,292.729Z" fill="#e0e0e0"/><path d="M156.639,308.811c0,.242-3.4.438-7.593.438s-7.594-.2-7.594-.438,3.4-.439,7.594-.439S156.639,308.569,156.639,308.811Z" fill="#e0e0e0"/><path d="M156.639,324.894c0,.242-3.4.438-7.593.438s-7.594-.2-7.594-.438,3.4-.439,7.594-.439S156.639,324.651,156.639,324.894Z" fill="#e0e0e0"/><path d="M156.639,340.976c0,.242-3.4.439-7.593.439s-7.594-.2-7.594-.439,3.4-.439,7.594-.439S156.639,340.734,156.639,340.976Z" fill="#e0e0e0"/><path d="M156.639,357.058c0,.243-3.4.439-7.593.439s-7.594-.2-7.594-.439,3.4-.438,7.594-.438S156.639,356.816,156.639,357.058Z" fill="#e0e0e0"/><path d="M156.639,373.141c0,.242-3.4.438-7.593.438s-7.594-.2-7.594-.438,3.4-.439,7.594-.439S156.639,372.9,156.639,373.141Z" fill="#e0e0e0"/><path d="M156.639,389.223c0,.243-3.4.439-7.593.439s-7.594-.2-7.594-.439,3.4-.438,7.594-.438S156.639,388.981,156.639,389.223Z" fill="#e0e0e0"/><path d="M217.513,163.121c0,.242-8.824.439-19.706.439s-19.709-.2-19.709-.439,8.823-.439,19.709-.439S217.513,162.879,217.513,163.121Z" fill="#ff725e"/><path d="M217.513,389.223c0,.243-8.824.439-19.706.439s-19.709-.2-19.709-.439,8.823-.438,19.709-.438S217.513,388.981,217.513,389.223Z" fill="#ff725e"/><path d="M272.4,196.234c0,.242-16.51.439-36.871.439s-36.875-.2-36.875-.439,16.506-.438,36.875-.438S272.4,195.992,272.4,196.234Z" fill="#ff725e"/><path d="M357.676,196.234c0,.242-16.51.439-36.871.439s-36.874-.2-36.874-.439,16.506-.438,36.874-.438S357.676,195.992,357.676,196.234Z" fill="#e0e0e0"/><path d="M325.086,212.316c0,.243-24.331.439-54.338.439s-54.343-.2-54.343-.439,24.326-.438,54.343-.438S325.086,212.074,325.086,212.316Z" fill="#e0e0e0"/><path d="M325.086,228.4c0,.242-24.331.439-54.338.439s-54.343-.2-54.343-.439,24.326-.439,54.343-.439S325.086,228.157,325.086,228.4Z" fill="#e0e0e0"/><path d="M399.895,276.646c0,.243-24.33.439-54.337.439s-54.343-.2-54.343-.439,24.325-.438,54.343-.438S399.895,276.4,399.895,276.646Z" fill="#e0e0e0"/><path d="M367.614,244.481c0,.243-24.331.439-54.338.439s-54.343-.2-54.343-.439,24.326-.438,54.343-.438S367.614,244.239,367.614,244.481Z" fill="#e0e0e0"/><path d="M500.423,244.481c0,.243-24.331.439-54.338.439s-54.342-.2-54.342-.439,24.325-.438,54.342-.438S500.423,244.239,500.423,244.481Z" fill="#e0e0e0"/><path d="M454.236,212.316c0,.243-24.331.439-54.338.439s-54.343-.2-54.343-.439,24.326-.438,54.343-.438S454.236,212.074,454.236,212.316Z" fill="#fafafa"/><path d="M529.308,276.646c0,.243-24.331.439-54.338.439s-54.343-.2-54.343-.439,24.326-.438,54.343-.438S529.308,276.4,529.308,276.646Z" fill="#fafafa"/><path d="M514.317,228.4c0,.242-37.782.439-84.377.439-46.611,0-84.385-.2-84.385-.439s37.774-.439,84.385-.439C476.535,227.96,514.317,228.157,514.317,228.4Z" fill="#455a64"/><path d="M217.513,180.152c0,.242-8.824.438-19.706.438s-19.709-.2-19.709-.438,8.823-.439,19.709-.439S217.513,179.909,217.513,180.152Z" fill="#fafafa"/><path d="M217.513,373.141c0,.242-8.824.438-19.706.438s-19.709-.2-19.709-.438,8.823-.439,19.709-.439S217.513,372.9,217.513,373.141Z" fill="#fafafa"/><path d="M237.04,244.481c0,.243-8.825.439-19.707.439s-19.708-.2-19.708-.439,8.822-.438,19.708-.438S237.04,244.239,237.04,244.481Z" fill="#fafafa"/><path d="M552.934,244.481c0,.243-8.824.439-19.707.439s-19.708-.2-19.708-.439,8.822-.438,19.708-.438S552.934,244.239,552.934,244.481Z" fill="#ff725e"/><path d="M272.4,308.717c0,.242-16.51.438-36.871.438s-36.875-.2-36.875-.438,16.506-.439,36.875-.439S272.4,308.474,272.4,308.717Z" fill="#ff725e"/><path d="M357.676,308.717c0,.242-16.51.438-36.871.438s-36.874-.2-36.874-.438,16.506-.439,36.874-.439S357.676,308.474,357.676,308.717Z" fill="#e0e0e0"/><path d="M325.086,324.8c0,.242-24.331.439-54.338.439s-54.343-.2-54.343-.439,24.326-.439,54.343-.439S325.086,324.557,325.086,324.8Z" fill="#e0e0e0"/><path d="M325.086,340.881c0,.242-24.331.439-54.338.439s-54.343-.2-54.343-.439,24.326-.438,54.343-.438S325.086,340.639,325.086,340.881Z" fill="#e0e0e0"/><path d="M367.614,356.964c0,.242-24.331.438-54.338.438s-54.343-.2-54.343-.438,24.326-.439,54.343-.439S367.614,356.722,367.614,356.964Z" fill="#e0e0e0"/><path d="M500.423,356.964c0,.242-24.331.438-54.338.438s-54.342-.2-54.342-.438,24.325-.439,54.342-.439S500.423,356.722,500.423,356.964Z" fill="#e0e0e0"/><path d="M454.236,324.8c0,.242-24.331.439-54.338.439s-54.343-.2-54.343-.439,24.326-.439,54.343-.439S454.236,324.557,454.236,324.8Z" fill="#fafafa"/><path d="M514.317,340.881c0,.242-37.782.439-84.377.439-46.611,0-84.385-.2-84.385-.439s37.774-.438,84.385-.438C476.535,340.443,514.317,340.639,514.317,340.881Z" fill="#455a64"/><path d="M237.04,356.964c0,.242-8.825.438-19.707.438s-19.708-.2-19.708-.438,8.822-.439,19.708-.439S237.04,356.722,237.04,356.964Z" fill="#fafafa"/><path d="M552.934,356.964c0,.242-8.824.438-19.707.438s-19.708-.2-19.708-.438,8.822-.439,19.708-.439S552.934,356.722,552.934,356.964Z" fill="#ff725e"/><path d="M563.437,435.979c0,.144-100.64.26-224.757.26-124.16,0-224.778-.116-224.778-.26s100.618-.261,224.778-.261C462.8,435.718,563.437,435.835,563.437,435.979Z" fill="#263238"/><path d="M97.072,347.825a57.091,57.091,0,0,0-54.45-14.944A99.168,99.168,0,0,0,97.716,350.1" fill="#ff725e"/><path d="M78.6,282.426c2.269-16.045-3.967-34.1-15.98-45.758-.4,15.9,6.316,33.8,15.98,45.758" fill="#ff725e"/><path d="M88.21,312.736a85.681,85.681,0,0,0-39.349-37.6,54.072,54.072,0,0,0,39.5,37.776" fill="#ff725e"/><path d="M90.2,318.584c-9.691.272-19.5-.069-28.871-2.549s-18.349-7.246-24.585-14.669a96.474,96.474,0,0,1,53.311,16.275" fill="#ff725e"/><path d="M85.281,299.321c4.919-18.437,13.035-31.19,27.526-41.522a38.346,38.346,0,0,1-27.526,41.522" fill="#ff725e"/><path d="M121.862,331.116a27.3,27.3,0,0,0-16.579-25.277c.805,9.521,8.284,20.534,16.579,25.277" fill="#ff725e"/><path d="M126.492,315.571a40.667,40.667,0,0,1,26.639-34.687c-3.347,15.407-12.255,28.232-26.639,34.687" fill="#ff725e"/><path d="M119.515,343.157c3.417-4.889,8.994-7.929,14.765-9.439s11.8-1.643,17.764-1.768a41.529,41.529,0,0,1-32.076,13.359" fill="#ff725e"/><path d="M112.588,382.455a45.5,45.5,0,0,1,55.566,26.322c-20.185-3.83-40.1-12.8-55.566-26.322" fill="#ff725e"/><path d="M90.435,368.8c3.353,9.912,2.709,21.892-4.744,30.434A36.365,36.365,0,0,1,90.435,368.8" fill="#ff725e"/><path d="M77.343,363.292a37.286,37.286,0,0,1-20.6,30.256,2.316,2.316,0,0,1-1.821.3c-.908-.37-.991-1.609-.879-2.584,1.46-12.7,10.868-24.979,23.3-27.971" fill="#ff725e"/><path d="M68.79,362a30.577,30.577,0,0,1-44.67.228c14.2-1.554,30.582-2.59,44.67-.228" fill="#ff725e"/><path d="M66.664,248.494a2.517,2.517,0,0,0,.13.416l.433,1.2,1.713,4.6c.764,1.989,1.645,4.442,2.666,7.29l1.645,4.559q.841,2.434,1.774,5.136c2.515,7.19,5.308,15.82,8.324,25.428,2.96,9.626,6.07,20.253,9.13,31.464,3.018,11.227,5.694,21.974,7.971,31.785,2.213,9.825,4.116,18.7,5.491,26.187q.529,2.8,1.007,5.338.431,2.537.812,4.778c.514,2.981.954,5.55,1.25,7.659.32,2.084.57,3.712.745,4.849.088.533.156.95.207,1.259a2.666,2.666,0,0,0,.089.427,2.568,2.568,0,0,0-.034-.434c-.038-.311-.089-.731-.154-1.267-.151-1.141-.367-2.774-.644-4.865-.264-2.115-.674-4.69-1.16-7.678-.241-1.495-.5-3.094-.771-4.787q-.459-2.535-.97-5.349c-1.327-7.507-3.193-16.39-5.38-26.228-2.252-9.824-4.915-20.582-7.935-31.816-3.062-11.218-6.188-21.847-9.177-31.471-3.043-9.6-5.876-18.228-8.439-25.4q-.951-2.694-1.811-5.126l-1.684-4.547c-1.049-2.84-1.96-5.283-2.755-7.261l-1.808-4.562c-.205-.5-.365-.892-.483-1.181A2.5,2.5,0,0,0,66.664,248.494Z" fill="#263238"/><path d="M144.656,289.109a1.551,1.551,0,0,0-.245.231l-.679.714c-.593.631-1.452,1.576-2.524,2.824a99.364,99.364,0,0,0-8.36,11.147,74.839,74.839,0,0,0-8.742,18.7c-2.342,7.445-3.8,15.907-5.243,24.751-2.887,17.705-6.429,33.561-8.994,45.032-1.292,5.707-2.341,10.336-3.075,13.578-.35,1.578-.624,2.816-.819,3.7-.083.4-.148.718-.2.964a1.51,1.51,0,0,0-.049.333,1.569,1.569,0,0,0,.1-.32c.064-.243.147-.557.252-.952.218-.874.526-2.105.918-3.673l3.243-13.54c2.661-11.45,6.266-27.307,9.156-45.029,1.447-8.846,2.882-17.281,5.185-24.692a75.7,75.7,0,0,1,8.588-18.643,107.193,107.193,0,0,1,8.2-11.217c1.045-1.266,1.879-2.233,2.445-2.887l.638-.75A1.545,1.545,0,0,0,144.656,289.109Z" fill="#263238"/><path d="M64.548,361.4a1.853,1.853,0,0,0,.511.094l1.47.162,1.062.1,1.256.188c.9.134,1.929.266,3.048.515l1.763.35,1.888.478c1.314.3,2.672.778,4.12,1.215a60.549,60.549,0,0,1,8.99,3.962,50.815,50.815,0,0,1,8.061,5.6,40.462,40.462,0,0,1,3.093,2.969,32.139,32.139,0,0,1,2.447,2.824,29.337,29.337,0,0,1,1.812,2.5,18.432,18.432,0,0,1,1.241,1.974l.753,1.272a1.979,1.979,0,0,0,.3.428,1.852,1.852,0,0,0-.2-.478l-.667-1.325a16.314,16.314,0,0,0-1.17-2.036,27.311,27.311,0,0,0-1.762-2.566,30.794,30.794,0,0,0-2.423-2.9,39.068,39.068,0,0,0-3.093-3.039,49.058,49.058,0,0,0-8.127-5.7,57.809,57.809,0,0,0-9.1-3.961c-1.464-.428-2.839-.9-4.168-1.177l-1.91-.451-1.782-.319c-1.131-.226-2.17-.332-3.079-.438l-1.267-.145-1.071-.057-1.482-.061A1.855,1.855,0,0,0,64.548,361.4Z" fill="#263238"/><path d="M60.5,289.449a7.073,7.073,0,0,0,1.023.985l2.922,2.535c2.483,2.123,5.938,5.026,9.775,8.208s7.332,6.04,9.878,8.086l3.032,2.4a7.139,7.139,0,0,0,1.157.823,7.141,7.141,0,0,0-1.025-.988l-2.923-2.535c-2.483-2.123-5.936-5.025-9.773-8.206s-7.327-6.035-9.872-8.082l-3.034-2.4A7.261,7.261,0,0,0,60.5,289.449Z" fill="#263238"/><path d="M57.013,308.232c-.043.144,7.413,2.473,16.65,5.2s16.763,4.826,16.806,4.682-7.412-2.472-16.652-5.2S57.055,308.088,57.013,308.232Z" fill="#263238"/><path d="M84.542,300.754a6.157,6.157,0,0,0,.77-1.071c.524-.8,1.182-1.8,1.965-2.994,1.667-2.522,4.033-5.962,6.831-9.625s5.5-6.852,7.486-9.13l2.36-2.695a6.131,6.131,0,0,0,.825-1.028,6.152,6.152,0,0,0-.979.884c-.606.591-1.459,1.473-2.491,2.582-2.065,2.218-4.819,5.38-7.632,9.057s-5.135,7.167-6.723,9.748c-.8,1.291-1.416,2.348-1.823,3.092A6.169,6.169,0,0,0,84.542,300.754Z" fill="#263238"/><path d="M110.433,311.179a24.7,24.7,0,0,0,1.749,2.876c1.115,1.751,2.626,4.186,4.191,6.935s2.885,5.294,3.82,7.146a24.688,24.688,0,0,0,1.579,2.973,17.862,17.862,0,0,0-1.232-3.138c-.85-1.9-2.124-4.485-3.695-7.25s-3.144-5.177-4.343-6.879A17.856,17.856,0,0,0,110.433,311.179Z" fill="#263238"/><path d="M119.292,343.671c.038.073,1.46-.622,3.788-1.669s5.578-2.418,9.251-3.706,7.071-2.241,9.544-2.873,4.018-.976,4-1.058a4.389,4.389,0,0,0-1.11.116c-.708.106-1.728.3-2.98.569a83.269,83.269,0,0,0-18.87,6.6c-1.148.57-2.065,1.056-2.685,1.415A4.314,4.314,0,0,0,119.292,343.671Z" fill="#263238"/><path d="M112.318,382.514a1.594,1.594,0,0,0,.459.156l1.343.342,4.958,1.145a163.159,163.159,0,0,1,16.2,4.274,71.835,71.835,0,0,1,15.109,7.1c1.806,1.15,3.214,2.165,4.163,2.9a14.512,14.512,0,0,0,1.5,1.109c.013-.014-.1-.135-.333-.352s-.569-.541-1.036-.922a43.662,43.662,0,0,0-4.085-3.055,66.326,66.326,0,0,0-15.143-7.291,135.679,135.679,0,0,0-16.291-4.136l-4.995-.975A12.52,12.52,0,0,0,112.318,382.514Z" fill="#263238"/><path d="M87.1,392.089c.149.021,1.037-5.208,1.983-11.679s1.594-11.737,1.446-11.759-1.036,5.207-1.983,11.68S86.951,392.067,87.1,392.089Z" fill="#263238"/><path d="M60.844,382.555a27.333,27.333,0,0,0,2.366-2.81c1.419-1.766,3.385-4.2,5.607-6.846s4.283-5,5.779-6.7a27.479,27.479,0,0,0,2.36-2.814,3.515,3.515,0,0,0-.752.644c-.459.438-1.106,1.091-1.891,1.911-1.571,1.638-3.681,3.961-5.911,6.613s-4.153,5.132-5.5,6.961c-.673.915-1.2,1.664-1.557,2.192A3.509,3.509,0,0,0,60.844,382.555Z" fill="#263238"/><path d="M130.327,406.906V419.88h-3.243l-11.532,36.4H89.978L78.807,420.24l-4.324-.36V406.906Z" fill="#ff725e"/><g opacity="0.3"><path d="M130.327,406.906V419.88h-3.243l-11.532,36.4H89.978L78.807,420.24l-4.324-.36V406.906Z"/></g><path d="M76.644,420.24c0,.15,11.292.272,25.219.272s25.22-.122,25.22-.272-11.289-.271-25.22-.271S76.644,420.09,76.644,420.24Z" fill="#263238"/><path d="M58.252,336.79a10.106,10.106,0,0,0,1.639.443l4.489,1.082c3.782.937,8.977,2.36,14.613,4.252s10.634,3.9,14.214,5.444l4.23,1.85a10.223,10.223,0,0,0,1.573.638,9.966,9.966,0,0,0-1.482-.828c-.968-.506-2.39-1.2-4.165-2.011a147.488,147.488,0,0,0-28.895-9.718c-1.907-.423-3.457-.733-4.535-.916A10.379,10.379,0,0,0,58.252,336.79Z" fill="#263238"/><path d="M85.135,440.452c0,.15,7.922.272,17.693.272s17.694-.122,17.694-.272-7.92-.271-17.694-.271S85.135,440.3,85.135,440.452Z" fill="#fafafa"/><path d="M84.14,437.443c0,.15,8.4.272,18.75.272s18.752-.122,18.752-.272-8.394-.271-18.752-.271S84.14,437.293,84.14,437.443Z" fill="#fafafa"/><path d="M709.457,456.485c0,.144-152.44.26-340.441.26-188.066,0-340.473-.116-340.473-.26s152.407-.261,340.473-.261C557.017,456.224,709.457,456.341,709.457,456.485Z" fill="#263238"/><path d="M616.036,76.125H348.051V242.091h225.6l13.967,32.133L600,242.091h16.037Z" fill="#fafafa"/><path d="M616.036,76.125c0,1.609.078,63.96.2,165.966v.2h-.2L600,242.3l.193-.133c-3.876,10.072-8.055,20.929-12.37,32.138l-.193.5-.216-.5c-4.379-10.067-9.115-20.952-13.977-32.128l.213.14-204.015.028H347.791v-.26c.008-59.148.016-115.282.023-165.966v-.238h.237l267.985.237-267.985.237.237-.237c.007,50.684.015,106.818.023,165.966l-.26-.26h21.584l204.015.028h.153l.061.14c4.854,11.179,9.583,22.067,13.956,32.137l-.409.009c4.323-11.206,8.51-22.06,12.4-32.128l.051-.133H600l16.036.007-.2.2C615.959,140.085,616.034,77.733,616.036,76.125Z" fill="#263238"/><path d="M615.9,92.32c0,.2-59.873.366-133.715.366-73.866,0-133.727-.164-133.727-.366s59.861-.366,133.727-.366C556.024,91.954,615.9,92.118,615.9,92.32Z" fill="#263238"/><path d="M362.294,84.989a2.2,2.2,0,1,1-2.2-2.2A2.2,2.2,0,0,1,362.294,84.989Z" fill="#263238"/><path d="M370.242,84.989a2.2,2.2,0,1,1-2.2-2.2A2.2,2.2,0,0,1,370.242,84.989Z" fill="#263238"/><path d="M378.191,84.989a2.2,2.2,0,1,1-2.2-2.2A2.2,2.2,0,0,1,378.191,84.989Z" fill="#263238"/><path d="M377.28,122.01l-6.364,2.456,6.364,2.456v1.488l-8.032-3.173V123.7l8.032-3.174Z" fill="#263238"/><path d="M383.9,115.645h1.559l-5.916,16.889h-1.561Z" fill="#263238"/><path d="M394.034,123.7v1.541L386,128.41v-1.488l6.382-2.456L386,122.01v-1.488Z" fill="#263238"/><path d="M396.064,129.611a1.2,1.2,0,0,1,1.219-1.219,1.18,1.18,0,0,1,1.183,1.219,1.2,1.2,0,0,1-1.183,1.239A1.214,1.214,0,0,1,396.064,129.611Z" fill="#263238"/><path d="M400.137,129.611a1.2,1.2,0,0,1,1.218-1.219,1.18,1.18,0,0,1,1.184,1.219,1.2,1.2,0,0,1-1.184,1.239A1.214,1.214,0,0,1,400.137,129.611Z" fill="#263238"/><path d="M404.208,129.611a1.2,1.2,0,0,1,1.218-1.219,1.181,1.181,0,0,1,1.184,1.219,1.2,1.2,0,0,1-1.184,1.239A1.214,1.214,0,0,1,404.208,129.611Z" fill="#263238"/><path d="M546.505,145.707c0,.2-39.616.366-88.473.366-48.874,0-88.481-.164-88.481-.366s39.607-.366,88.481-.366C506.889,145.341,546.505,145.505,546.505,145.707Z" fill="#455a64"/><path d="M575.4,146.23c0,.2-3.806.367-8.5.367s-8.5-.164-8.5-.367,3.806-.365,8.5-.365S575.4,146.028,575.4,146.23Z" fill="#263238"/><path d="M600.252,146.23c0,.2-4.158.367-9.286.367s-9.286-.164-9.286-.367,4.157-.365,9.286-.365S600.252,146.028,600.252,146.23Z" fill="#263238"/><path d="M482.228,160.617c0,.2-25.18.366-56.234.366s-56.239-.164-56.239-.366,25.175-.366,56.239-.366S482.228,160.414,482.228,160.617Z" fill="#455a64"/><path d="M481.424,216.249c0,.2-25.18.366-56.234.366s-56.239-.164-56.239-.366,25.175-.366,56.239-.366S481.424,216.047,481.424,216.249Z" fill="#455a64"/><path d="M523.09,160.617c0,.2-6.851.366-15.3.366s-15.3-.164-15.3-.366,6.849-.366,15.3-.366S523.09,160.414,523.09,160.617Z" fill="#263238"/><path d="M522.77,216.249c0,.2-6.852.366-15.3.366s-15.3-.164-15.3-.366,6.85-.366,15.3-.366S522.77,216.047,522.77,216.249Z" fill="#263238"/><path d="M377.136,168.2c0,.2-1.7.366-3.792.366s-3.793-.164-3.793-.366,1.7-.366,3.793-.366S377.136,168,377.136,168.2Z" fill="#ff725e"/><path d="M403.293,168.359c0,.2-3.689.366-8.239.366s-8.24-.164-8.24-.366,3.689-.366,8.24-.366S403.293,168.157,403.293,168.359Z" fill="#263238"/><path d="M420.033,168.359c0,.2-3.162.366-7.062.366s-7.062-.164-7.062-.366,3.161-.366,7.062-.366S420.033,168.157,420.033,168.359Z" fill="#263238"/><path d="M441.22,168.359c0,.2-3.221.366-7.193.366s-7.193-.164-7.193-.366,3.22-.366,7.193-.366S441.22,168.157,441.22,168.359Z" fill="#263238"/><path d="M459.791,168.359c0,.2-2.928.366-6.539.366s-6.539-.164-6.539-.366,2.927-.366,6.539-.366S459.791,168.157,459.791,168.359Z" fill="#263238"/><path d="M521.259,168.359c0,.2-12.883.366-28.771.366s-28.774-.164-28.774-.366,12.88-.366,28.774-.366S521.259,168.157,521.259,168.359Z" fill="#263238"/><path d="M376.09,177.88c0,.2-1.464.366-3.269.366s-3.27-.164-3.27-.366,1.464-.366,3.27-.366S376.09,177.678,376.09,177.88Z" fill="#ff725e"/><path d="M376.352,187.819c0,.2-1.523.366-3.4.366s-3.4-.163-3.4-.366,1.522-.366,3.4-.366S376.352,187.617,376.352,187.819Z" fill="#ff725e"/><path d="M376.352,199.066c0,.2-1.523.366-3.4.366s-3.4-.163-3.4-.366,1.522-.366,3.4-.366S376.352,198.864,376.352,199.066Z" fill="#ff725e"/><path d="M438.343,198.543c0,.2-11.36.366-25.371.366s-25.373-.163-25.373-.366,11.358-.366,25.373-.366S438.343,198.341,438.343,198.543Z" fill="#263238"/><path d="M433.9,187.819c0,.2-10.833.366-24.193.366s-24.2-.163-24.2-.366,10.83-.366,24.2-.366S433.9,187.617,433.9,187.819Z" fill="#263238"/><path d="M550.816,177.357c0,.2-36.892.366-82.389.366-45.514,0-82.4-.164-82.4-.366s36.883-.366,82.4-.366C513.924,176.991,550.816,177.155,550.816,177.357Z" fill="#263238"/><path d="M632.5,144V285.037l-21.929,18.3H725.26V144Z" fill="#fafafa"/><path d="M632.5,144s.543-.013,1.621-.02l4.8-.022,18.467-.049,67.873-.1h.2v.2c.017,42.571.039,98.173.064,159.338v.26H709.177l-98.6-.018h-.668l.513-.428,21.937-18.287-.082.175c.048-42.168.088-77.45.116-102.2.026-12.345.046-22.061.06-28.7.012-3.3.021-5.839.027-7.56q.009-1.269.013-1.932c0-.433.013-.646.013-.646s.009.231.013.671.007,1.1.013,1.958c.006,1.731.015,4.282.027,7.6.014,6.653.034,16.387.06,28.755.028,24.715.068,59.946.116,102.053v.107l-.082.069-21.921,18.308-.155-.428,98.6-.019H725.26l-.26.26c.024-61.165.047-116.767.064-159.338l.2.2-67.752-.1L639,144.039l-4.832-.022C633.073,144.01,632.5,144,632.5,144Z" fill="#263238"/><path d="M640.927,151.014a1.879,1.879,0,1,1-1.879-1.88A1.879,1.879,0,0,1,640.927,151.014Z" fill="#263238"/><path d="M647.729,151.014a1.88,1.88,0,1,1-1.88-1.88A1.88,1.88,0,0,1,647.729,151.014Z" fill="#263238"/><path d="M654.53,151.014a1.879,1.879,0,1,1-1.879-1.88A1.879,1.879,0,0,1,654.53,151.014Z" fill="#263238"/><path d="M699.764,194.47c0,.166-11.759.3-26.262.3s-26.265-.135-26.265-.3,11.757-.3,26.265-.3S699.764,194.3,699.764,194.47Z" fill="#ff725e"/><path d="M710.717,207.228c0,.166-14.311.3-31.961.3s-31.963-.135-31.963-.3,14.308-.3,31.963-.3S710.717,207.062,710.717,207.228Z" fill="#ff725e"/><path d="M713.319,254.832c0,.166-15.259.3-34.078.3s-34.08-.135-34.08-.3,15.255-.3,34.08-.3S713.319,254.666,713.319,254.832Z" fill="#ff725e"/><path d="M652.165,213.719a17.705,17.705,0,0,1-6.491,0,17.648,17.648,0,0,1,6.491,0Z" fill="#ff725e"/><path d="M674.547,213.853c0,.166-3.157.3-7.05.3s-7.051-.135-7.051-.3,3.156-.3,7.051-.3S674.547,213.687,674.547,213.853Z" fill="#ff725e"/><path d="M688.871,213.853a30.618,30.618,0,0,1-6.043.3c-3.338,0-6.043-.135-6.043-.3s2.705-.3,6.043-.3A30.619,30.619,0,0,1,688.871,213.853Z" fill="#ff725e"/><path d="M651.269,222a13.151,13.151,0,0,1-5.595,0,13.193,13.193,0,0,1,5.595,0Z" fill="#ff725e"/><path d="M651.493,230.505a14.212,14.212,0,0,1-5.819,0,14.258,14.258,0,0,1,5.819,0Z" fill="#ff725e"/><path d="M651.493,240.13a14.259,14.259,0,0,1-5.819,0,14.212,14.212,0,0,1,5.819,0Z" fill="#ff725e"/><path d="M704.539,239.682c0,.166-9.721.3-21.71.3s-21.712-.135-21.712-.3,9.719-.3,21.712-.3S704.539,239.516,704.539,239.682Z" fill="#ff725e"/><path d="M700.734,230.505c0,.166-9.27.3-20.7.3s-20.7-.135-20.7-.3,9.268-.3,20.7-.3S700.734,230.339,700.734,230.505Z" fill="#ff725e"/><path d="M655.731,267.541a14.211,14.211,0,0,1-5.819,0,14.213,14.213,0,0,1,5.819,0Z" fill="#ff725e"/><path d="M655.731,277.165a14.213,14.213,0,0,1-5.819,0,14.258,14.258,0,0,1,5.819,0Z" fill="#ff725e"/><path d="M708.777,276.718c0,.166-9.721.3-21.71.3s-21.712-.134-21.712-.3,9.719-.3,21.712-.3S708.777,276.552,708.777,276.718Z" fill="#ff725e"/><path d="M704.972,267.541c0,.166-9.27.3-20.7.3s-20.7-.135-20.7-.3,9.268-.3,20.7-.3S704.972,267.375,704.972,267.541Z" fill="#ff725e"/><path d="M716.129,221.552c0,.166-12.617.3-28.176.3s-28.178-.135-28.178-.3,12.613-.3,28.178-.3S716.129,221.387,716.129,221.552Z" fill="#ff725e"/><path d="M724.388,158.377c0,.167-20.368.3-45.487.3s-45.491-.134-45.491-.3,20.364-.3,45.491-.3S724.388,158.212,724.388,158.377Z" fill="#263238"/><path d="M666.426,186.776c0,.166-4.3.3-9.607.3s-9.607-.135-9.607-.3,4.3-.3,9.607-.3S666.426,186.61,666.426,186.776Z" fill="#ff725e"/><path d="M655.55,169.374a34.26,34.26,0,0,1-9.063,0,34.375,34.375,0,0,1,9.063,0Z" fill="#ff725e"/><path d="M575.272,374.761l20.141-19.914-35.919-61.509a34.673,34.673,0,0,0-13.785-9.588l-12.65-4.808-31.446-5.769-22.327,8.792a13.349,13.349,0,0,0-8.364,14l5.84,49.162,3.44,64.013,81.13-14.072-8.164-23.677.275-36.914Z" fill="#ff725e"/><path d="M553.913,369.816c.19,0,.239-12.79.11-28.559s-.388-28.558-.577-28.557-.239,12.787-.11,28.562S553.724,369.818,553.913,369.816Z" fill="#263238"/><path d="M550.942,379.2,501.92,359.465a11.2,11.2,0,0,1-6.986-9.538l-3.587-47s.424-19.989-12.061-20.962l-7.1,2.8c-9.179,4.875-11.454,18.24-10.2,28.559,1.775,14.662,2.515,35.412,4.5,48.138,1.626,10.409,7.877,18.644,17.777,22.248l60.378,13.071Z" fill="#ff725e"/><path d="M492.05,310.1a6.812,6.812,0,0,1,.154,1.076q.117,1.149.315,3.1c.251,2.754.6,6.633,1.037,11.4.415,4.833.907,10.559,1.453,16.91q.2,2.388.411,4.888a36.853,36.853,0,0,0,.626,5.029,8.347,8.347,0,0,0,2.436,4.4,16.54,16.54,0,0,0,4.524,2.814c13.517,5.849,25.975,10.679,35.018,14.066l10.736,3.955,2.92,1.076a6.763,6.763,0,0,1,1,.417,6.877,6.877,0,0,1-1.047-.291l-2.961-.961c-2.566-.85-6.264-2.124-10.812-3.761-9.1-3.28-21.573-8.038-35.131-13.9a17.116,17.116,0,0,1-4.7-2.938,8.993,8.993,0,0,1-2.614-4.732,36.865,36.865,0,0,1-.624-5.119q-.2-2.5-.389-4.892c-.493-6.357-.938-12.087-1.314-16.925-.346-4.773-.628-8.657-.828-11.416q-.122-1.955-.193-3.106A6.712,6.712,0,0,1,492.05,310.1Z" fill="#263238"/><path d="M463.964,335.647a2.4,2.4,0,0,1,.1.631c.044.49.1,1.089.162,1.814.146,1.675.342,3.929.581,6.67.269,2.812.61,6.16,1.1,9.86a94.221,94.221,0,0,0,2.213,11.906,17.777,17.777,0,0,0,2.393,5.676,32.6,32.6,0,0,0,3.662,4.5,31.334,31.334,0,0,0,7.844,5.885,29.491,29.491,0,0,0,8.61,2.819,2.3,2.3,0,0,1-.638-.015,13.358,13.358,0,0,1-1.813-.234A23.978,23.978,0,0,1,481.8,383a30.744,30.744,0,0,1-8.064-5.875,32.428,32.428,0,0,1-3.764-4.563,18.252,18.252,0,0,1-2.492-5.862,88.662,88.662,0,0,1-2.181-12c-.457-3.718-.751-7.077-.961-9.9s-.316-5.111-.374-6.693c-.015-.728-.028-1.33-.039-1.822A2.287,2.287,0,0,1,463.964,335.647Z" fill="#263238"/><path d="M484.926,368.535a7.2,7.2,0,0,1,.892-2.612,16.869,16.869,0,0,1,9.946-8.494,7.191,7.191,0,0,1,2.72-.473c.02.11-1.009.314-2.567.911a19.063,19.063,0,0,0-9.69,8.275C485.394,367.587,485.031,368.572,484.926,368.535Z" fill="#263238"/><g opacity="0.3"><path d="M536.854,373.6c-5.242-2.961-10.37-5.236-15.851-7.727s-10.849-5.688-14.437-10.523c-6.765-9.118-5.994-22.278-12.919-31.276q.678,9.075,1.357,18.151c.414,5.546-.436,11.03,3.136,14.8,3.009,3.175,8.877,5.609,13.03,6.979,8.348,2.754,17.337,6.844,25.684,9.6"/></g><path d="M553.454,316.162l4.24,26.157-4.014-7.409Z" opacity="0.3"/><path d="M490.571,300.024a4.751,4.751,0,0,1-1.135.088l-3.092.078c-2.61.065-6.212.2-10.183.48s-7.556.67-10.148.977l-3.071.363a4.812,4.812,0,0,1-1.137.076,4.838,4.838,0,0,1,1.106-.276c.717-.146,1.76-.328,3.052-.528,2.586-.4,6.177-.844,10.161-1.131s7.6-.358,10.217-.329c1.308.013,2.366.044,3.1.087A4.781,4.781,0,0,1,490.571,300.024Z" fill="#455a64"/><path d="M491.966,325.056c.011.144-6.414.792-14.351,1.448s-14.382,1.072-14.394.929,6.412-.792,14.351-1.448S491.954,324.913,491.966,325.056Z" fill="#455a64"/><path d="M494.329,351.371a5.068,5.068,0,0,1-1.017.581c-.667.349-1.657.808-2.9,1.331a60.156,60.156,0,0,1-20.453,4.579c-1.346.056-2.436.063-3.189.032a5.065,5.065,0,0,1-1.167-.093,5.1,5.1,0,0,1,1.165-.11c.75-.031,1.833-.094,3.168-.2a71.625,71.625,0,0,0,20.34-4.553c1.251-.478,2.258-.882,2.95-1.174A5.024,5.024,0,0,1,494.329,351.371Z" fill="#455a64"/><path d="M511.758,364.867A19.583,19.583,0,0,0,503.513,374a4.815,4.815,0,0,1,.54-1.79,14.3,14.3,0,0,1,5.979-6.624A4.83,4.83,0,0,1,511.758,364.867Z" fill="#455a64"/><path d="M529.488,382.194a19.184,19.184,0,0,1,5.238-9.563c.12.1-1.42,2.011-2.856,4.652C530.418,379.914,529.638,382.241,529.488,382.194Z" fill="#455a64"/><path d="M501.548,285.3a96.566,96.566,0,0,1-13.958,2.523,97,97,0,0,1,13.958-2.523Z" fill="#455a64"/><path d="M548.476,287.439a179.367,179.367,0,0,1-19.164-2.274,178.6,178.6,0,0,1,19.164,2.274Z" fill="#455a64"/><path d="M552.484,309.265a2.761,2.761,0,0,1-.614.04l-1.76.013-6.467-.008c-5.461-.005-13,.041-21.331.254s-15.867.557-21.32.842l-6.458.341-1.758.076a2.737,2.737,0,0,1-.615-.008,2.694,2.694,0,0,1,.608-.1l1.75-.175c1.522-.142,3.726-.316,6.451-.505,5.45-.38,12.991-.78,21.328-1s15.885-.2,21.348-.1c2.731.048,4.941.109,6.468.174l1.758.084A2.732,2.732,0,0,1,552.484,309.265Z" fill="#455a64"/><path d="M553.058,336.9c.01.144-12.851,1.107-28.721,2.152s-28.75,1.776-28.759,1.633,12.848-1.107,28.724-2.152S553.049,336.762,553.058,336.9Z" fill="#455a64"/><path d="M551.692,361.255a5.134,5.134,0,0,1-1.082.463c-.707.267-1.74.625-3.025,1.045-2.568.839-6.154,1.892-10.164,2.857s-7.685,1.656-10.354,2.075c-1.335.21-2.418.361-3.169.444a5.1,5.1,0,0,1-1.174.08,5.2,5.2,0,0,1,1.143-.28l3.136-.607c2.648-.511,6.3-1.258,10.3-2.218s7.587-1.956,10.178-2.7l3.07-.885A5.125,5.125,0,0,1,551.692,361.255Z" fill="#455a64"/><path d="M572.261,317.116a181.621,181.621,0,0,1-18.807,4.863,181.144,181.144,0,0,1,18.807-4.863Z" fill="#455a64"/><path d="M562.453,298.432a34.739,34.739,0,0,1-8.369,1.506,34.891,34.891,0,0,1,8.369-1.506Z" fill="#455a64"/><path d="M492.2,304.232c-.1.018-.254-1.661-1.169-4.175A21.043,21.043,0,0,0,476.166,286.7c-2.6-.642-4.282-.615-4.275-.718a4.434,4.434,0,0,1,1.175-.044,18.038,18.038,0,0,1,3.184.4,20.363,20.363,0,0,1,15.125,13.591,17.99,17.99,0,0,1,.74,3.122A4.447,4.447,0,0,1,492.2,304.232Z" fill="#263238"/><path d="M550.6,290.9a83.356,83.356,0,0,1,1.727,9.143,83.473,83.473,0,0,1,1.212,9.226,83.261,83.261,0,0,1-1.727-9.144A83.37,83.37,0,0,1,550.6,290.9Z" fill="#263238"/><path d="M605.241,438.287s37.679,10.428,39.19,10.96c2.27.8,1.889,9.115-1.643,8.986-1.671-.061-28.942,1.015-32.388.8s-13.841-4.312-13.841-4.312Z" fill="#ff725e"/><path d="M620.937,452.664c.189.026.444-1.967,1.66-4.046,1.187-2.1,2.782-3.317,2.664-3.468-.065-.146-1.937.916-3.21,3.154C620.756,450.527,620.778,452.68,620.937,452.664Z" fill="#263238"/><path d="M617.008,450.882c.185.032.567-1.749,1.57-3.717.984-1.979,2.188-3.346,2.052-3.475-.1-.124-1.576,1.108-2.615,3.191C616.961,448.956,616.847,450.872,617.008,450.882Z" fill="#263238"/><path d="M613.324,449.895c.189-.011.045-1.894.881-3.98.8-2.1,2.184-3.387,2.052-3.524-.076-.143-1.765,1.022-2.64,3.294C612.719,447.947,613.171,449.949,613.324,449.895Z" fill="#263238"/><path d="M613.992,445.029a6.69,6.69,0,0,0,.4-2.8,13.21,13.21,0,0,0-.942-4.822,2.1,2.1,0,0,0-.6-.923,1,1,0,0,0-1.294.064,1.668,1.668,0,0,0-.5,1.065,7.375,7.375,0,0,0-.049,1,8.354,8.354,0,0,0,.233,1.844,11.14,11.14,0,0,0,1.16,2.88,7.619,7.619,0,0,0,1.692,2.269c.086-.06-.545-.938-1.3-2.475a12.353,12.353,0,0,1-.988-2.8,8.334,8.334,0,0,1-.182-1.721c.017-.579.009-1.3.347-1.581a.366.366,0,0,1,.5-.042,1.6,1.6,0,0,1,.413.658,13.839,13.839,0,0,1,.57,1.663,15.12,15.12,0,0,1,.5,2.942C614.061,443.947,613.889,445.013,613.992,445.029Z" fill="#263238"/><path d="M613.945,444.645a5.259,5.259,0,0,0-2.43-.392,10.943,10.943,0,0,0-2.674.328,5.857,5.857,0,0,0-1.539.567,1.589,1.589,0,0,0-.851,1.722,1.882,1.882,0,0,0,1.357,1.345,3.456,3.456,0,0,0,1.69-.005,6.471,6.471,0,0,0,2.448-1.2,6.65,6.65,0,0,0,1.752-1.724,16.434,16.434,0,0,0-2.007,1.359,6.7,6.7,0,0,1-2.311,1,2.975,2.975,0,0,1-1.4-.019,1.277,1.277,0,0,1-.917-.9.97.97,0,0,1,.559-1.051,5.753,5.753,0,0,1,1.367-.533,12.641,12.641,0,0,1,2.539-.443C613.005,444.6,613.929,444.746,613.945,444.645Z" fill="#263238"/><path d="M626.727,453.067c.186-.021,0-1.632.742-3.4.706-1.782,1.964-2.8,1.845-2.95-.062-.154-1.638.739-2.429,2.712C626.072,451.393,626.574,453.133,626.727,453.067Z" fill="#263238"/><path d="M600.435,454.806a7.817,7.817,0,0,0,1.458.686,32.161,32.161,0,0,0,4.193,1.3,59.745,59.745,0,0,0,14.385,1.364c5.647-.062,10.735-.319,14.425-.467l4.366-.231a7.916,7.916,0,0,0,1.6-.171,7.807,7.807,0,0,0-1.6-.075l-4.373.031-14.414.282a67.441,67.441,0,0,1-14.284-1.167C602.582,455.616,600.479,454.69,600.435,454.806Z" fill="#263238"/><path d="M599.321,455.665c.051.087,1.082-.516,2.823-1.279a13.125,13.125,0,0,1,7.13-1.185c2.84.435,4.852,2.342,6.163,3.666a22.275,22.275,0,0,0,2.171,2.218,11.61,11.61,0,0,0-1.843-2.52,14.942,14.942,0,0,0-2.5-2.336,8.952,8.952,0,0,0-3.893-1.651,12.461,12.461,0,0,0-7.417,1.4A10.01,10.01,0,0,0,599.321,455.665Z" fill="#263238"/><path d="M560.646,429.54s-35.655,23.344-36.933,24.31c-1.92,1.451.282,8.36,3.608,7.164,1.574-.566,31.492-8.889,34.71-10.141s11.878-8.312,11.878-8.312Z" fill="#ff725e"/><path d="M550.058,448.005c.156-.033-.477-2.09-2.386-3.816-1.892-1.745-4-2.188-4.017-2.03-.066.179,1.825.858,3.592,2.495C549.037,446.265,549.885,448.087,550.058,448.005Z" fill="#263238"/><path d="M553.26,445.114c.15-.058-.54-1.85-2.174-3.506s-3.4-2.4-3.461-2.246c-.09.164,1.472,1.1,3.01,2.687C552.189,443.62,553.094,445.2,553.26,445.114Z" fill="#263238"/><path d="M556.471,443.055c.162.005-.016-2.04-1.559-3.922-1.523-1.9-3.487-2.5-3.515-2.337-.084.171,1.624.975,3.025,2.734C555.853,441.264,556.286,443.1,556.471,443.055Z" fill="#263238"/><path d="M554.356,438.621c.093-.046-.394-1.01-.808-2.669A15.136,15.136,0,0,1,553.13,433a13.745,13.745,0,0,1,.039-1.757,1.584,1.584,0,0,1,.193-.753.366.366,0,0,1,.488-.112c.407.163.619.855.811,1.4a8.3,8.3,0,0,1,.349,1.7,12.361,12.361,0,0,1-.09,2.969c-.25,1.692-.585,2.72-.485,2.751a7.6,7.6,0,0,0,.924-2.675,11.2,11.2,0,0,0,.23-3.1,8.25,8.25,0,0,0-.339-1.827,7.2,7.2,0,0,0-.349-.934,1.662,1.662,0,0,0-.8-.863,1,1,0,0,0-1.253.333,2.1,2.1,0,0,0-.294,1.063,12.946,12.946,0,0,0,0,1.836,13.2,13.2,0,0,0,.57,3.043A6.681,6.681,0,0,0,554.356,438.621Z" fill="#263238"/><path d="M554.284,438.241c.046.092.881-.332,2.317-.682a12.718,12.718,0,0,1,2.554-.349,5.75,5.75,0,0,1,1.464.093.973.973,0,0,1,.853.832,1.277,1.277,0,0,1-.6,1.131,2.964,2.964,0,0,1-1.326.443,6.672,6.672,0,0,1-2.506-.251,16.45,16.45,0,0,0-2.325-.685,6.63,6.63,0,0,0,2.193,1.111,6.507,6.507,0,0,0,2.7.4,3.454,3.454,0,0,0,1.612-.51,1.882,1.882,0,0,0,.884-1.693,1.589,1.589,0,0,0-1.334-1.382,5.888,5.888,0,0,0-1.639-.073,10.948,10.948,0,0,0-2.647.5A5.283,5.283,0,0,0,554.284,438.241Z" fill="#263238"/><path d="M531.864,459.711c.041.056.6-.361.873-1.382a5.266,5.266,0,0,0-.668-3.869,14.144,14.144,0,0,0-1.195-1.78,6.568,6.568,0,0,0-1.21-1.3,2.115,2.115,0,0,0-1.139-.477c-.3-.012-.451.061-.446.1a3.388,3.388,0,0,1,1.3.721,8.024,8.024,0,0,1,1.028,1.3,20.379,20.379,0,0,1,1.112,1.741,5.517,5.517,0,0,1,.784,3.476C532.17,459.163,531.78,459.65,531.864,459.711Z" fill="#263238"/><path d="M544.664,450.147c.165.018.115-1.793-1.256-3.416-1.352-1.639-3.125-2.011-3.137-1.846-.069.175,1.44.767,2.653,2.25C544.167,448.593,544.48,450.184,544.664,450.147Z" fill="#263238"/><path d="M570.242,443.82a12.642,12.642,0,0,0-1.567,1.075,44.663,44.663,0,0,1-4.4,2.694A57.836,57.836,0,0,1,557.3,450.7c-2.7,1.007-5.728,1.957-8.93,2.885-6.415,1.847-12.222,3.535-16.412,4.8L527,459.9a10.93,10.93,0,0,0-1.793.64,10.95,10.95,0,0,0,1.86-.4l5.01-1.329c4.222-1.151,10.044-2.77,16.465-4.619,3.209-.93,6.25-1.9,8.96-2.947a52.5,52.5,0,0,0,6.992-3.261,34.961,34.961,0,0,0,4.327-2.887A9.747,9.747,0,0,0,570.242,443.82Z" fill="#263238"/><path d="M571.564,444.3a9.976,9.976,0,0,0-3.022-.8,12.46,12.46,0,0,0-7.493.916,8.938,8.938,0,0,0-3.207,2.754,14.928,14.928,0,0,0-1.671,2.984,11.654,11.654,0,0,0-.992,2.962,22,22,0,0,0,1.395-2.773c.847-1.66,2.186-4.088,4.759-5.364a13.124,13.124,0,0,1,7.153-1.037C570.376,444.137,571.542,444.4,571.564,444.3Z" fill="#263238"/><path d="M634.766,371.158s10.7,3.819,10.741,15.813c.086,22.974-46.419,48.3-46.419,48.3L537.2,394.263l-3.879-1.569S616.865,361.312,634.766,371.158Z" fill="#263238"/><path d="M568.551,414.974a11.443,11.443,0,0,0,1.612-1.093c1.014-.735,2.461-1.826,4.232-3.2,3.544-2.739,8.365-6.621,13.551-11.072s9.752-8.633,12.995-11.722c1.622-1.544,2.92-2.809,3.8-3.7a11.592,11.592,0,0,0,1.324-1.428,11.438,11.438,0,0,0-1.493,1.25l-3.934,3.551c-3.317,3-7.924,7.122-13.1,11.571s-9.948,8.375-13.417,11.2l-4.106,3.351A11.5,11.5,0,0,0,568.551,414.974Z" fill="#455a64"/><path d="M617.295,379.745c.024-.154-2.737-.424-5.963.541-3.234.941-5.406,2.667-5.3,2.784.1.164,2.358-1.274,5.481-2.179C614.623,379.956,617.3,379.938,617.295,379.745Z" fill="#455a64"/><path d="M611.965,376.124c-.056-.149-2.04.723-3.669,2.76-1.649,2.022-2.083,4.145-1.926,4.168.18.062.857-1.866,2.416-3.772C610.321,377.355,612.064,376.287,611.965,376.124Z" fill="#455a64"/><path d="M638.169,448.867c.033-.072-.738-.221-1.6.484a5.787,5.787,0,0,0-1.789,3.592,7.062,7.062,0,0,0,.565,3.961c.438.94.919,1.381.973,1.337.085-.059-.254-.581-.56-1.5a8.028,8.028,0,0,1-.353-3.706,6.21,6.21,0,0,1,1.463-3.35C637.53,448.994,638.182,448.967,638.169,448.867Z" fill="#263238"/><path d="M630.342,338.526l-17.606,47.428a6.836,6.836,0,0,1-6.5,4.456l-96.914-1.276V381.77l35.962,1.313,15.268-47.342a3.865,3.865,0,0,1,3.689-2.678l62.516.181A3.864,3.864,0,0,1,630.342,338.526Z" fill="#e0e0e0"/><path d="M630.342,338.526s.011-.051.041-.149a4.008,4.008,0,0,0,.121-.442,3.8,3.8,0,0,0-.039-1.78,3.869,3.869,0,0,0-1.7-2.292,3.771,3.771,0,0,0-1.76-.556c-.668-.031-1.392-.009-2.152-.016l-26.082-.03-18.273-.034-10.267-.022-5.394-.012a4.242,4.242,0,0,0-2.579.567,3.765,3.765,0,0,0-1.6,2.109c-4.611,14.316-9.74,30.241-15.222,47.26l-.035.11-.115,0-35.962-1.309.162-.156v7.364l-.154-.156,60.944.816,26.492.364,6.106.084,2.969.042a7.083,7.083,0,0,0,2.818-.412,6.709,6.709,0,0,0,3.883-3.739l1.892-5.055c4.912-13.172,8.878-23.809,11.623-31.169,1.372-3.662,2.438-6.505,3.167-8.448s1.122-2.935,1.122-2.935-.357,1.021-1.065,2.956-1.764,4.8-3.113,8.469l-11.531,31.2-1.885,5.066a6.943,6.943,0,0,1-4.011,3.875,7.325,7.325,0,0,1-2.9.43l-2.969-.036-6.106-.076-26.492-.334-60.945-.789-.154,0v-.154c0-1.914,0-3.978,0-6.05v-1.476l.162.005,35.962,1.318-.15.105c5.495-17.015,10.637-32.936,15.26-47.248a4.029,4.029,0,0,1,1.717-2.248,4.5,4.5,0,0,1,2.718-.6l5.394.019,10.267.038,18.273.072,26.081.12c.763.011,1.479-.007,2.158.028a3.846,3.846,0,0,1,1.8.581,3.915,3.915,0,0,1,1.712,2.346,3.743,3.743,0,0,1,.013,1.8A4,4,0,0,1,630.342,338.526Z" fill="#263238"/><path d="M587.367,356.46a4.356,4.356,0,0,1,4.711.5,3.81,3.81,0,0,1,.922,4.174,4.128,4.128,0,0,1-3.539,2.472,3.72,3.72,0,0,1-3.741-2.471c-.451-1.549.049-3.861,1.647-4.678" fill="#fff"/><path d="M609.524,437.851s-87.341-55.945-91.2-58.14c-3.28-1.867-12.055-7.269-20.707-4.883s-16.41,10.145-20.289,21.482c-2.216,6.477-3.263,17.53-3.754,25.817a38.3,38.3,0,0,0,8.963,27.309c2.949,3.421,6.587,6.4,10.9,7.74.91.284,1.855.528,2.825.739,16.532,3.584,33.521-3.837,42.81-17.975l2.04-3.105s57.2,21.014,58.094,20.716Z" fill="#263238"/><path d="M522.836,382.81a.942.942,0,0,1-.219-.128l-.611-.418c-.535-.369-1.323-.916-2.361-1.582a46.1,46.1,0,0,0-9.275-4.713,24.911,24.911,0,0,0-6.987-1.473,20.091,20.091,0,0,0-8.034,1.311,25.95,25.95,0,0,0-7.722,4.684,35.533,35.533,0,0,0-3.428,3.367,25.043,25.043,0,0,0-2.836,4.035,41.37,41.37,0,0,0-3.768,9c-.823,3.046-1.482,6.058-2.109,8.9a81.294,81.294,0,0,0-2.011,15.324,55.518,55.518,0,0,0,.794,10.387c.192,1.218.409,2.152.54,2.788l.143.726a.921.921,0,0,1,.031.252.861.861,0,0,1-.083-.239c-.052-.19-.115-.425-.193-.714-.165-.63-.414-1.559-.637-2.777a52.089,52.089,0,0,1-.963-10.429,79.314,79.314,0,0,1,1.909-15.417c.619-2.864,1.261-5.849,2.089-8.942a41.471,41.471,0,0,1,3.807-9.117,25.377,25.377,0,0,1,2.9-4.116A35.7,35.7,0,0,1,487.3,380.1a26.273,26.273,0,0,1,7.884-4.745,20.431,20.431,0,0,1,8.226-1.294,25.015,25.015,0,0,1,7.089,1.559,43.829,43.829,0,0,1,9.262,4.89c1.025.694,1.795,1.269,2.311,1.666l.581.46C522.778,382.745,522.841,382.8,522.836,382.81Z" fill="#455a64"/><path d="M501.348,422.064s.159.081.48.212l1.431.568,5.543,2.135,20.6,7.76c8.752,3.265,19.233,7.147,30.994,11.427s24.8,8.968,38.715,13.681l.253.086.124-.237,6.832-13.046L609.8,438l.135-.257-.243-.153L543,395.247,522.962,382.61l-5.441-3.4-1.421-.869c-.322-.193-.495-.278-.495-.278s.151.121.462.33l1.388.92,5.381,3.493,19.929,12.8,66.588,42.5-.108-.41-3.483,6.653c-2.339,4.469-4.643,8.873-6.827,13.048l.376-.152c-13.912-4.7-26.952-9.371-38.725-13.612l-31.038-11.3-20.666-7.581-5.582-2.031-1.451-.514C501.521,422.108,501.348,422.064,501.348,422.064Z" fill="#455a64"/><path d="M505.869,236.467a45.048,45.048,0,0,1-3.881-9.285,15.126,15.126,0,0,1,.518-9.881c.813-1.79,2.091-3.359,2.73-5.218.878-2.559.519-5.578,2.1-7.771,2.476-3.427,7.774-2.628,11.6-4.423,2.982-1.4,5.065-4.413,8.2-5.419,2.74-.878,5.727-.036,8.371,1.1s5.224,2.575,8.077,2.949a56.747,56.747,0,0,0,6.146.016,8.1,8.1,0,0,1,5.672,1.955c1.442,1.457,1.747,4.147.183,5.474,3.588-.608,6.967,2.973,6.92,6.611s-2.787,6.841-6.1,8.354-7.086,1.612-10.714,1.33c-10.269-.8-20.588-4.7-27.579-12.269" fill="#ff725e"/><path d="M508.083,223.617l-7,50.849a15.269,15.269,0,0,0,13.794,17.292h0a15.275,15.275,0,0,0,16.461-13.153c.523-3.828.967-7.019,1.047-7.41,0,0,13.112.564,15.809-12.119,1.3-6.129,2.961-18.972,4.326-30.609a24.154,24.154,0,0,0-19.266-26.485l-1.227-.245C518.647,199.867,509.582,210.188,508.083,223.617Z" fill="#ffbe9d"/><path d="M532.445,271.016a30.149,30.149,0,0,1-15.634-8.023s2.089,9.934,15.006,11.324Z" fill="#eb996e"/><path d="M546.82,239.277a1.85,1.85,0,0,1-2.116,1.482,1.77,1.77,0,0,1-1.545-2.011,1.853,1.853,0,0,1,2.115-1.484A1.772,1.772,0,0,1,546.82,239.277Z" fill="#263238"/><path d="M548.544,234.162c-.272.191-1.444-1.1-3.4-1.487-1.947-.412-3.582.306-3.745.025-.084-.127.231-.509.946-.839a5.092,5.092,0,0,1,3.058-.312,4.885,4.885,0,0,1,2.647,1.479C548.558,233.609,548.676,234.078,548.544,234.162Z" fill="#263238"/><path d="M528.6,236.131a1.851,1.851,0,0,1-2.117,1.482,1.77,1.77,0,0,1-1.544-2.011,1.852,1.852,0,0,1,2.115-1.483A1.771,1.771,0,0,1,528.6,236.131Z" fill="#263238"/><path d="M529.265,230.689c-.273.191-1.447-1.1-3.4-1.487-1.947-.412-3.582.306-3.746.025-.083-.127.229-.509.947-.838a5.08,5.08,0,0,1,3.057-.313,4.882,4.882,0,0,1,2.647,1.479C529.277,230.136,529.4,230.6,529.265,230.689Z" fill="#263238"/><path d="M533.461,246.6a13.178,13.178,0,0,1,3.288.062c.509.048,1,.043,1.153-.281a2.583,2.583,0,0,0-.037-1.545q-.342-1.951-.717-4.094c-.968-5.819-1.562-10.563-1.328-10.6s1.21,4.649,2.178,10.468q.34,2.148.65,4.1a2.949,2.949,0,0,1-.132,2.01,1.277,1.277,0,0,1-.966.566,3.41,3.41,0,0,1-.871-.052A12.939,12.939,0,0,1,533.461,246.6Z" fill="#263238"/><path d="M527.441,246.8c.321.045-.1,2.166,1.416,4.034s3.819,2.086,3.776,2.386c0,.139-.586.311-1.545.147a5.382,5.382,0,0,1-3.176-1.872,4.693,4.693,0,0,1-1.052-3.356C526.956,247.235,527.3,246.757,527.441,246.8Z" fill="#263238"/><path d="M531.3,223.132c-.3.493-2.2-.149-4.547-.33-2.344-.229-4.327.073-4.536-.465-.09-.255.332-.69,1.182-1.055a7.921,7.921,0,0,1,6.92.606C531.093,222.4,531.433,222.9,531.3,223.132Z" fill="#ff725e"/><path d="M548.956,228.363c-.433.375-1.687-.354-3.3-.7-1.6-.4-3.048-.3-3.271-.827-.093-.252.211-.654.894-.954a4.884,4.884,0,0,1,5.295,1.229C549.054,227.682,549.151,228.177,548.956,228.363Z" fill="#ff725e"/><path d="M507.24,233.239c-.2-.137-8.22-4.329-9.679,4.419s7.624,8.408,7.681,8.16S507.24,233.239,507.24,233.239Z" fill="#ffbe9d"/><path d="M503.123,242.058c-.034-.034-.17.081-.448.157a1.549,1.549,0,0,1-1.143-.167c-.867-.494-1.4-2.09-1.18-3.674a5.1,5.1,0,0,1,.79-2.111,1.788,1.788,0,0,1,1.342-.979.788.788,0,0,1,.83.568c.076.264-.009.43.035.452.021.026.212-.115.2-.488a.979.979,0,0,0-.253-.6,1.163,1.163,0,0,0-.8-.364,2.172,2.172,0,0,0-1.818,1.091,5.24,5.24,0,0,0-.935,2.35c-.238,1.772.389,3.572,1.593,4.149a1.655,1.655,0,0,0,1.432,0C503.072,242.267,503.151,242.079,503.123,242.058Z" fill="#eb996e"/><path d="M555.041,216.657c-1.5,3.233-9.22,4.482-14.878,2.774-5.216-1.575-7.108-4.886-10.427-7.772-2.1-1.827-2.1-1.827-5.526-2.181-2.77-.285-4.993,2.472-7.087,4.307,1.165,6.953-1.926,13.836-4.939,20.209a3.523,3.523,0,0,1-1.413,1.8c-1.186.585-2.6-.34-3.311-1.457a10.945,10.945,0,0,1-1.226-6.139,36.487,36.487,0,0,1,2.9-14.083,24.823,24.823,0,0,1,9.146-10.951,23.517,23.517,0,0,1,17.4-2.882,28.886,28.886,0,0,1,15.253,9.156,16.909,16.909,0,0,1,4.109,7.216" fill="#ff725e"/><path d="M537.244,237.8c.075,0,.049-.754.4-2.033a8.442,8.442,0,0,1,3.1-4.5,8.229,8.229,0,0,1,7.742-1.114,8.059,8.059,0,0,1,3.765,2.845,8.1,8.1,0,0,1,0,9.6,8.064,8.064,0,0,1-3.766,2.846,8.234,8.234,0,0,1-7.743-1.114,8.451,8.451,0,0,1-3.1-4.5c-.349-1.278-.323-2.036-.4-2.033a1.6,1.6,0,0,0-.044.544,6.539,6.539,0,0,0,.175,1.556,8.427,8.427,0,0,0,3.06,4.827,8.716,8.716,0,0,0,12.37-1.719,8.735,8.735,0,0,0,0-10.416,8.716,8.716,0,0,0-12.368-1.719,8.435,8.435,0,0,0-3.061,4.827,6.539,6.539,0,0,0-.175,1.556A1.59,1.59,0,0,0,537.244,237.8Z" fill="#263238"/><path d="M516.494,234.181c.075,0,.049-.754.4-2.033a8.442,8.442,0,0,1,3.1-4.5,8.229,8.229,0,0,1,7.742-1.115,8.062,8.062,0,0,1,3.765,2.846,8.1,8.1,0,0,1,0,9.6,8.064,8.064,0,0,1-3.766,2.846,8.229,8.229,0,0,1-7.742-1.115,8.442,8.442,0,0,1-3.1-4.5c-.349-1.279-.323-2.037-.4-2.033a1.6,1.6,0,0,0-.044.544,6.539,6.539,0,0,0,.175,1.556,8.43,8.43,0,0,0,3.06,4.827,8.718,8.718,0,0,0,12.37-1.719,8.736,8.736,0,0,0,0-10.417,8.717,8.717,0,0,0-12.368-1.718,8.422,8.422,0,0,0-3.06,4.827,6.5,6.5,0,0,0-.176,1.556A1.6,1.6,0,0,0,516.494,234.181Z" fill="#263238"/><path d="M533.589,234.475c.088.177,1.2-.343,2.494.053s1.938,1.431,2.109,1.332c.082-.039.041-.371-.251-.812a3.11,3.11,0,0,0-3.7-1.111C533.759,234.143,533.542,234.4,533.589,234.475Z" fill="#263238"/><path d="M504.738,231.94c0,.195,2.792.314,6.23.266s6.224-.246,6.221-.441-2.792-.315-6.231-.266S504.735,231.745,504.738,231.94Z" fill="#263238"/><path d="M559.125,208.308a2.488,2.488,0,0,1-.135.834,4.1,4.1,0,0,1-1.311,1.882,5.793,5.793,0,0,1-3.146,1.288,15.835,15.835,0,0,1-4.173-.217,71.581,71.581,0,0,1-7.423-1.5c-.938-.244-1.692-.46-2.21-.619l-.595-.189a.871.871,0,0,1-.2-.08.857.857,0,0,1,.215.04l.605.151,2.223.554c1.881.451,4.5,1.006,7.419,1.435a16.1,16.1,0,0,0,4.12.234,5.734,5.734,0,0,0,3.074-1.211,4.168,4.168,0,0,0,1.329-1.8C559.093,208.61,559.1,208.3,559.125,208.308Z" fill="#fff"/><path d="M561.065,210.293a8,8,0,0,1-.749,2.393,10.236,10.236,0,0,1-9.865,5.9,7.991,7.991,0,0,1-2.462-.473,5.417,5.417,0,0,1,.659.125,11,11,0,0,0,1.809.2,10.385,10.385,0,0,0,9.726-5.815,11.045,11.045,0,0,0,.68-1.688A5.438,5.438,0,0,1,561.065,210.293Z" fill="#fff"/></g></svg>