<svg xmlns="http://www.w3.org/2000/svg" width="329.118" height="181.889" viewBox="0 0 329.118 181.889"><path d="M416.966,385.713H333.792a2.464,2.464,0,0,0,0,4.928h83.174a2.464,2.464,0,0,0,0-4.928Z" transform="translate(-214.838 -222.577)" fill="#e2b548"/><g transform="translate(116.49 91.69)"><g transform="translate(0)"><g transform="translate(9.816 6.875)"><rect width="4.832" height="63.215" transform="translate(0 0)" fill="#e8e8e8"/><rect width="4.834" height="63.218" transform="translate(63.631)" fill="#e8e8e8"/></g><g transform="translate(0 12.976)"><rect width="88.102" height="15.763" fill="#ffcd26"/><path d="M341.3,327.243l-.153.261-9.051,15.5h-.765V327.243Z" transform="translate(-331.328 -327.243)" fill="#444"/><path d="M363.566,327.243l-9.213,15.763H342.314l3.662-6.262,5.551-9.5Z" transform="translate(-331.328 -327.243)" fill="#444"/><path d="M385.825,327.243l-9.213,15.763H364.573l9.213-15.763Z" transform="translate(-331.328 -327.243)" fill="#444"/><path d="M408.083,327.246l-9.216,15.76H386.831l9.216-15.76Z" transform="translate(-331.328 -327.243)" fill="#444"/><path d="M419.43,327.246v15.76h-10.34l9.216-15.76Z" transform="translate(-331.328 -327.243)" fill="#444"/></g><g transform="translate(0 41.169)"><rect width="88.102" height="15.754" transform="translate(0 0.004)" fill="#ffcd26"/><path d="M341.3,355.44l-.153.261-9.051,15.493h-.765V355.44Z" transform="translate(-331.328 -355.436)" fill="#444"/><path d="M363.566,355.44l-9.213,15.754H342.314l3.662-6.262,5.551-9.492Z" transform="translate(-331.328 -355.436)" fill="#444"/><path d="M385.825,355.44l-9.213,15.754H364.573l9.213-15.754Z" transform="translate(-331.328 -355.436)" fill="#444"/><path d="M408.083,355.436l-9.216,15.76H386.831l9.216-15.76Z" transform="translate(-331.328 -355.436)" fill="#444"/><path d="M419.43,355.436V371.2h-10.34l9.216-15.76Z" transform="translate(-331.328 -355.436)" fill="#444"/></g><rect width="11.135" height="3.144" transform="translate(70.297 70.094)" fill="#aeaeae"/><rect width="11.139" height="3.149" transform="translate(6.667 70.091)" fill="#aeaeae"/><path d="M348.468,318.551a4.242,4.242,0,0,1-2.492,3.743,5.431,5.431,0,0,1-2.411.549,5.356,5.356,0,0,1-2.421-.558,4.231,4.231,0,0,1-2.483-3.734c0-2.366,2.195-4.282,4.9-4.282S348.468,316.185,348.468,318.551Z" transform="translate(-331.328 -314.267)" fill="#faa436"/><path d="M412.1,318.555c0,2.368-2.2,4.287-4.9,4.287s-4.9-1.919-4.9-4.287,2.2-4.288,4.9-4.288S412.1,316.187,412.1,318.555Z" transform="translate(-331.328 -314.267)" fill="#faa436"/></g><path d="M345.976,343.006V355.44H375.2v15.754H345.976v13.164h3.158v3.149H337.995v-3.149h3.149V371.194h-9.816V355.44h9.816V343.006h-9.816V327.243h9.816v-4.958a4.231,4.231,0,0,1-2.483-3.734c0-2.366,2.195-4.282,4.9-4.282s4.9,1.916,4.9,4.282a4.242,4.242,0,0,1-2.492,3.743v4.949H375.2v15.763Z" transform="translate(-331.328 -314.267)" fill="#444" opacity="0.3" style="mix-blend-mode:multiply;isolation:isolate"/></g><path d="M541.61,390.641H412.783a2.346,2.346,0,0,0,0,4.692H541.61a2.346,2.346,0,0,0,0-4.692Z" transform="translate(-214.838 -222.577)" fill="#e2b548"/><g transform="translate(201.161 32.187)"><path d="M515.521,319.7v-.011l-19.468-64.44-.149-.49H457.71l.149.49,1.817,6.012,4.379,14.509,1.094,3.625,5.494,18.178,1.106,3.636,3.4,11.253,1.807,6,22.774,75.358h3.623l-2.837-9.413h30.935l2.848,9.413h3.624Zm-53.082-61.317h30.936l.86,2.866,4.389,14.521H467.689Zm6.345,21.012h30.935l5.494,18.178H474.278Zm9.989,33.056-1.806-5.989-1.6-5.253h30.936l5.186,17.13c-.818-.011-1.817-.011-3.039-.011-3.252-.022-7.578-.011-11.892.011-6.653.023-13.284.067-15.983.089Zm2.891,9.591c11.509-.078,26.78-.145,30.924-.056l5.346,17.677H486.988Zm6.429,21.245h30.935l5.325,17.61H493.407Zm11.318,37.495-4.91-16.26h30.946l4.91,16.26Z" transform="translate(-415.999 -254.764)" fill="#aeaeae"/><path d="M458.008,254.764l-.149.49L438.4,319.683c-.011.011-.011.011-.011.022L416,393.825h3.624l2.848-9.413h30.935l-2.837,9.413h3.624l22.763-75.358,1.817-6.011,3.4-11.242,1.094-3.636,5.495-18.178,1.094-3.625,4.378-14.521,1.818-6,.148-.49ZM454.5,380.787H423.565l4.91-16.26h30.936Zm6.015-19.885H429.57l5.324-17.61h30.935Zm6.408-21.234H435.989l5.334-17.677c4.155-.089,19.427-.022,30.925.056Zm10.043-33.2-1.818,6-1.806,5.966c-2.7-.022-9.331-.066-15.983-.089-4.326-.022-8.651-.033-11.892-.011-1.222,0-2.221,0-3.039.011l5.175-17.13H478.55Zm2.677-8.889H448.7l5.495-18.178h30.946Zm6.589-21.8H455.287l4.389-14.509.872-2.878h30.935Z" transform="translate(-415.999 -254.764)" fill="#e8e8e8"/></g><path d="M528.6,399.606h-51.11a2.43,2.43,0,0,0,0,4.86h31.448a2.421,2.421,0,0,0,2.161-1.341h17.5a1.76,1.76,0,1,0,0-3.519Z" transform="translate(-214.838 -222.577)" fill="#e2b548"/><g transform="translate(284.736 136.828)"><g transform="translate(0 12.867)"><path d="M526.341,372.272V400.04a.848.848,0,0,1-.845.844H500.408a.845.845,0,0,1-.834-.844V372.272Z" transform="translate(-499.574 -372.272)" fill="#e8e8e8"/></g><g transform="translate(0.521)"><path d="M525.819,372.262h-1.042a11.819,11.819,0,0,0-23.639,0H500.1a12.862,12.862,0,0,1,25.724,0Z" transform="translate(-500.095 -359.405)" fill="#e8e8e8"/></g><g transform="translate(0 12.867)"><path d="M526.341,372.272v5.391c-.824.219-1.9-.553-2.878-.72a2.274,2.274,0,0,0-2.221.981c-.459.74-.459,1.751-1.147,2.294a2.5,2.5,0,0,1-2.649-.146,6.12,6.12,0,0,0-2.544-1.1,2.636,2.636,0,0,0-1.95.8,3.344,3.344,0,0,0-.657.823,8.863,8.863,0,0,0-.855,3.024c-.135.782-.375,1.679-1.126,1.982a2.079,2.079,0,0,1-1.376-.032,5.061,5.061,0,0,1-3.337-3.3c-.48-1.6-.323-3.712-1.867-4.463a9.358,9.358,0,0,0-2.231-.386,3.234,3.234,0,0,1-1.929-1.157v-3.994Z" transform="translate(-499.574 -372.272)" fill="#faa436"/></g><path d="M512.952,359.4v1.043a11.824,11.824,0,0,0-11.814,11.814H500.1A12.87,12.87,0,0,1,512.952,359.4Z" transform="translate(-499.574 -359.405)" fill="#444" opacity="0.2" style="mix-blend-mode:multiply;isolation:isolate"/><path d="M499.574,372.272h13.378v28.612H500.408a.845.845,0,0,1-.834-.844Z" transform="translate(-499.574 -359.405)" fill="#444" opacity="0.2" style="mix-blend-mode:multiply;isolation:isolate"/></g><g transform="translate(265.096 138.873)"><g transform="translate(0 12.739)"><path d="M506.455,374.189v27.523a.831.831,0,0,1-.837.826H480.76a.829.829,0,0,1-.826-.826V374.189Z" transform="translate(-479.934 -374.189)" fill="#e8e8e8"/></g><g transform="translate(0.516)"><path d="M505.938,374.189H504.9a11.71,11.71,0,0,0-23.421,0H480.45a12.744,12.744,0,0,1,25.488,0Z" transform="translate(-480.45 -361.45)" fill="#e8e8e8"/></g><g transform="translate(0 12.739)"><path d="M506.455,374.189v5.341c-.816.217-1.88-.547-2.852-.713a2.252,2.252,0,0,0-2.2.971c-.455.734-.455,1.736-1.137,2.273a2.473,2.473,0,0,1-2.624-.144,6.054,6.054,0,0,0-2.521-1.085,2.611,2.611,0,0,0-1.932.8,3.358,3.358,0,0,0-.651.817,8.789,8.789,0,0,0-.847,3c-.134.775-.372,1.663-1.116,1.963a2.066,2.066,0,0,1-1.363-.031,5.013,5.013,0,0,1-3.306-3.275c-.476-1.581-.321-3.678-1.85-4.422a9.243,9.243,0,0,0-2.211-.383,3.2,3.2,0,0,1-1.911-1.146v-3.957Z" transform="translate(-479.934 -374.189)" fill="#ffcd26"/></g><path d="M481.484,374.189h11.7v28.349H480.76a.829.829,0,0,1-.826-.826V374.189h.516a12.752,12.752,0,0,1,12.739-12.739v1.033A11.715,11.715,0,0,0,481.484,374.189Z" transform="translate(-479.934 -361.45)" fill="#444" opacity="0.2" style="mix-blend-mode:multiply;isolation:isolate"/></g><path d="M327.144,387.507H238.213a2.818,2.818,0,1,0,0,5.636h88.931a2.818,2.818,0,0,0,0-5.636Z" transform="translate(-214.838 -222.577)" fill="#e2b548"/><g transform="translate(27.41)"><g transform="translate(0.002)"><rect width="4.358" height="117.535" transform="translate(21.957 46.481)" fill="#e8e8e8"/><circle cx="25.339" cy="25.339" r="25.339" fill="#ffcd26"/><g transform="translate(0.461 0.461)"><circle cx="21.78" cy="21.78" r="21.78" transform="translate(0 43.04) rotate(-81.13)" fill="#ffcd26"/><path d="M267.589,270.329A22.413,22.413,0,1,1,290,247.917,22.437,22.437,0,0,1,267.589,270.329Zm0-43.561a21.148,21.148,0,1,0,21.148,21.149A21.173,21.173,0,0,0,267.589,226.768Z" transform="translate(-242.711 -223.039)" fill="#444"/></g><g transform="translate(11.551 11.361)"><g transform="translate(0 0.271)"><path d="M282.712,243.164l-1.793-1.793h0a.976.976,0,0,1-1.38,0l-.24-.24.454-.454a.334.334,0,0,0,0-.472l-4.6-4.6s-3.463-2.581-6.609-.737l.89.783a6.427,6.427,0,0,1,3.052.636,1.052,1.052,0,0,1,.291,1.693l-.456.457a1.122,1.122,0,0,0,0,1.588l.442.443-9.366,9.366-.164-.163a.463.463,0,0,0-.655,0l-8.4,8.4a1.314,1.314,0,0,0,0,1.858l1.578,1.579a1.314,1.314,0,0,0,1.858,0l8.4-8.4a.462.462,0,0,0,0-.654l-.164-.164,9.367-9.367.9.9a.333.333,0,0,0,.472,0l.454-.454.24.24a.976.976,0,0,1,0,1.38l1.793,1.794a.554.554,0,0,0,.783,0l2.843-2.844A.552.552,0,0,0,282.712,243.164Z" transform="translate(-253.8 -234.209)" fill="#444"/></g><g transform="translate(0.462)"><path d="M267.4,244.456l-2.615,2.615-4.258-4.253a4.743,4.743,0,0,1-5.083-1.079c-1.388-1.388-1.421-3.726-.759-5.415l3.078,3.656a.551.551,0,0,0,.806.042l1.782-1.782a.551.551,0,0,0-.042-.805l-3.657-3.078c1.69-.662,4.027-.63,5.416.759a4.741,4.741,0,0,1,1.078,5.082Z" transform="translate(-254.262 -233.938)" fill="#444"/></g><g transform="translate(14.823 14.36)"><path d="M275.019,256.477a.551.551,0,0,0,.042.805l3.657,3.078c-1.69.662-4.032.63-5.416-.759a4.74,4.74,0,0,1-1.078-5.087l-3.6-3.6,2.615-2.615,3.6,3.6a4.742,4.742,0,0,1,5.087,1.079c1.388,1.384,1.421,3.726.759,5.415l-3.078-3.657a.552.552,0,0,0-.806-.041Z" transform="translate(-268.623 -248.298)" fill="#444"/></g></g><path d="M272.007,386.593H260.764a2.586,2.586,0,0,0-2.586,2.587v1.939h16.415V389.18A2.586,2.586,0,0,0,272.007,386.593Z" transform="translate(-242.25 -222.577)" fill="#aeaeae"/></g><path d="M266.389,222.6V391.119h-8.216v-1.944a2.589,2.589,0,0,1,2.6-2.585h3.438V273.03a25.341,25.341,0,0,1,2.183-50.426Z" transform="translate(-242.248 -222.577)" fill="#444" opacity="0.2" style="mix-blend-mode:multiply;isolation:isolate"/></g><path d="M250.42,392.6H217.464a2.625,2.625,0,1,0,0,5.25H250.42a2.625,2.625,0,0,0,0-5.25Z" transform="translate(-214.838 -222.577)" fill="#e2b548"/><g transform="translate(4.786 131.31)"><g transform="translate(0.002)"><path d="M243.319,380.813l-2.076-8.079-2.612-10.182-1.671-6.517c-.73-2.863-3.772-2.863-4.51,0l-1.671,6.517-2.612,10.182-2.068,8.079-2.612,10.182h22.444Z" transform="translate(-219.626 -353.888)" fill="#ffcd26"/><rect width="30.163" height="4.304" transform="translate(0 37.104)" fill="#ffcd26"/><path d="M245.931,391H223.487l2.612-10.183h17.22Z" transform="translate(-219.626 -353.888)" fill="#444"/><path d="M241.243,372.734H228.167l2.612-10.183h7.852Z" transform="translate(-219.626 -353.888)" fill="#444"/></g><path d="M234.706,353.888V395.3H219.624v-4.307h3.866l2.6-10.174,2.073-8.082,2.613-10.185,1.673-6.519A2.487,2.487,0,0,1,234.706,353.888Z" transform="translate(-219.624 -353.888)" fill="#444" opacity="0.2" style="mix-blend-mode:multiply;isolation:isolate"/></g><g transform="translate(73.191 128.012)"><path d="M320.946,383.872h-28.09l3.27-9.126,2.587-7.251,3.269-9.135,2.1-5.847a3.033,3.033,0,0,1,5.645,0l2.087,5.847,3.27,9.135,2.6,7.251Z" transform="translate(-288.029 -350.59)" fill="#faa436"/><rect width="37.744" height="6.751" transform="translate(0 33.282)" fill="#faa436"/><path d="M320.946,383.872H292.856l3.27-9.126h21.55Z" transform="translate(-288.029 -350.59)" fill="#fff"/><path d="M315.08,367.5H298.713l3.27-9.136h9.828Z" transform="translate(-288.029 -350.59)" fill="#fff"/><path d="M306.9,350.59v40.033H288.029v-6.751h4.827l3.27-9.126,2.587-7.251,3.269-9.135,2.1-5.847A2.911,2.911,0,0,1,306.9,350.59Z" transform="translate(-288.029 -350.59)" fill="#444" opacity="0.2" style="mix-blend-mode:multiply;isolation:isolate"/></g></svg>