<svg xmlns="http://www.w3.org/2000/svg" width="1422.982" height="407.994" viewBox="0 0 1422.982 407.994"><g transform="translate(-81 -3088.006)"><rect width="1376" height="316" transform="translate(87 3180)" fill="#6c1a93"/><path d="M83.9,3089.269s62.112-8.03,116.455,28.126,136.857,8.306,186.991-3.461c87.451-20.526,131.145-17.349,190.468,6.529s106.012,3.378,156.43-15.234c63.221-23.338,132.28-26.05,208.978,11.305,63,30.683,165.352,16.99,195.858,2.478,56.623-26.937,145.62-34.948,211.47-2.9,62.611,30.47,123.841,10.881,123.841,10.881v344.578l-1389.767-2.9Z" fill="#6c1a93"/><path d="M1478.733,3103.052s-44.316-15.773-98.659,20.387-159.643,14.7-204.235-11.11c-52.42-30.339-122.11-29.306-180.7,0-57.2,28.614-117.623,31.3-166.85,9.721s-126.749-45.192-211.85,13.193c-57.8,39.651-164.194,3.7-193.85-12.5-44.493-24.3-100.77-42.274-199.389,8.332-61.963,31.8-140.755,32.186-140.755,32.186l5.794,306.855,1388.319,2.9Z" fill="#6c1a93"/><path d="M1473.827,3127.958c-61.158,23.425-95.616,33.536-161.67,25.713-77.022-9.122-121.334-40.695-204.934-31.272-93,10.482-148.224,75.951-220.873,39.612s-142.261-39.246-188.995-7.645-126.322,43.614-171.537,20.153-71.239-42.443-126.755-25.018-108.214,44.065-185.958,1.39S81,3134.971,81,3134.971l1.448,341.676H1483.8S1535.263,3104.427,1473.827,3127.958Z" fill="#6c1a93"/></g></svg>