<svg width="600" height="100" viewBox="0 0 600 100" fill="none" xmlns="http://www.w3.org/2000/svg">
<defs>
    <linearGradient id="gradient" x1="0%" y1="0%" x2="100%" y2="0%">
      <stop offset="0%" style="stop-color:rgb(169,41,148);stop-opacity:1" />
      <stop offset="100%" style="stop-color:rgb(80,19,147);stop-opacity:1" />
    </linearGradient>
  </defs>
<path fill-rule="evenodd" clip-rule="evenodd" d="M0 63.4129L14.0625 56.5202C28.5938 49.3518 57.1875 35.2907 85.7812 40.5291C114.375 45.7676 142.969 70.5813 171.562 84.6425C200.156 98.7036 228.75 102.288 257.344 98.7036C285.938 95.3951 314.062 84.6425 342.656 72.2356C371.25 60.1044 399.844 45.7676 428.438 44.1133C457.031 42.4591 485.625 52.936 514.219 56.5202C542.812 60.1044 571.406 56.5202 585.938 54.5903L600 52.936V0H585.938C571.406 0 542.812 0 514.219 0C485.625 0 457.031 0 428.438 0C399.844 0 371.25 0 342.656 0C314.062 0 285.938 0 257.344 0C228.75 0 200.156 0 171.562 0C142.969 0 114.375 0 85.7812 0C57.1875 0 28.5938 0 14.0625 0H0V63.4129Z" fill="url(#gradient)"/>
</svg>
