<svg width="1281" height="150" viewBox="0 0 1281 150" fill="none" xmlns="http://www.w3.org/2000/svg">
<path fill-rule="evenodd" clip-rule="evenodd" d="M0.745422 73.5849L31.6788 60.849C61.5454 48.1132 122.345 22.6415 183.145 22.6415C245.012 22.6415 305.812 48.1132 366.612 64.033C427.412 79.9528 488.212 86.3207 549.012 73.5849C609.812 60.849 671.679 29.0094 732.479 22.6415C793.279 16.2735 854.079 35.3773 914.879 32.1934C975.679 29.0094 1036.48 3.5377 1098.35 0.353733C1159.15 -2.83023 1219.95 16.2735 1249.81 25.8254L1280.75 35.3773V150H1249.81C1219.95 150 1159.15 150 1098.35 150C1036.48 150 975.679 150 914.879 150C854.079 150 793.279 150 732.479 150C671.679 150 609.812 150 549.012 150C488.212 150 427.412 150 366.612 150C305.812 150 245.012 150 183.145 150C122.345 150 61.5454 150 31.6788 150H0.745422V73.5849Z" fill="#6C1A93"/>
</svg>
