<svg width="1921" height="150" viewBox="0 0 1921 150" fill="none" xmlns="http://www.w3.org/2000/svg">
<path fill-rule="evenodd" clip-rule="evenodd" d="M0.745422 73.5849L47.1454 60.849C91.9454 48.1132 183.145 22.6415 274.345 22.6415C367.145 22.6415 458.345 48.1132 549.545 64.033C640.745 79.9528 731.945 86.3207 823.145 73.5849C914.345 60.849 1007.15 29.0094 1098.35 22.6415C1189.55 16.2735 1280.75 35.3773 1371.95 32.1934C1463.15 29.0094 1554.35 3.5377 1647.15 0.353733C1738.35 -2.83023 1829.55 16.2735 1874.35 25.8254L1920.75 35.3773V150H1874.35C1829.55 150 1738.35 150 1647.15 150C1554.35 150 1463.15 150 1371.95 150C1280.75 150 1189.55 150 1098.35 150C1007.15 150 914.345 150 823.145 150C731.945 150 640.745 150 549.545 150C458.345 150 367.145 150 274.345 150C183.145 150 91.9454 150 47.1454 150H0.745422V73.5849Z" fill="#6C1A93"/>
</svg>
