<svg width="1600" height="100" viewBox="0 0 1600 100" fill="none" xmlns="http://www.w3.org/2000/svg">
<defs>
    <linearGradient id="gradient" x1="0%" y1="0%" x2="100%" y2="0%">
      <stop offset="0%" style="stop-color:rgb(169,41,148);stop-opacity:1" />
      <stop offset="100%" style="stop-color:rgb(80,19,147);stop-opacity:1" />
    </linearGradient>
  </defs>
<path fill-rule="evenodd" clip-rule="evenodd" d="M0 63.4129L37.5 56.5202C76.25 49.3518 152.5 35.2907 228.75 40.5291C305 45.7676 381.25 70.5813 457.5 84.6425C533.75 98.7036 610 102.288 686.25 98.7036C762.5 95.3951 837.5 84.6425 913.75 72.2356C990 60.1044 1066.25 45.7676 1142.5 44.1133C1218.75 42.4591 1295 52.936 1371.25 56.5202C1447.5 60.1044 1523.75 56.5202 1562.5 54.5903L1600 52.936V0H1562.5C1523.75 0 1447.5 0 1371.25 0C1295 0 1218.75 0 1142.5 0C1066.25 0 990 0 913.75 0C837.5 0 762.5 0 686.25 0C610 0 533.75 0 457.5 0C381.25 0 305 0 228.75 0C152.5 0 76.25 0 37.5 0H0V63.4129Z" fill="url(#gradient)"/>
</svg>



