<svg width="960" height="100" viewBox="0 0 960 100" fill="none" xmlns="http://www.w3.org/2000/svg">
<defs>
    <linearGradient id="gradient" x1="0%" y1="0%" x2="100%" y2="0%">
      <stop offset="0%" style="stop-color:rgb(169,41,148);stop-opacity:1" />
      <stop offset="100%" style="stop-color:rgb(80,19,147);stop-opacity:1" />
    </linearGradient>
  </defs>
<path fill-rule="evenodd" clip-rule="evenodd" d="M0 63.4129L22.5 56.5202C45.75 49.3518 91.5 35.2907 137.25 40.5291C183 45.7676 228.75 70.5813 274.5 84.6425C320.25 98.7036 366 102.288 411.75 98.7036C457.5 95.3951 502.5 84.6425 548.25 72.2356C594 60.1044 639.75 45.7676 685.5 44.1133C731.25 42.4591 777 52.936 822.75 56.5202C868.5 60.1044 914.25 56.5202 937.5 54.5903L960 52.936V0H937.5C914.25 0 868.5 0 822.75 0C777 0 731.25 0 685.5 0C639.75 0 594 0 548.25 0C502.5 0 457.5 0 411.75 0C366 0 320.25 0 274.5 0C228.75 0 183 0 137.25 0C91.5 0 45.75 0 22.5 0H0V63.4129Z" fill="url(#gradient)"/>
</svg>
