<svg width="961" height="150" viewBox="0 0 961 150" fill="none" xmlns="http://www.w3.org/2000/svg">
<path fill-rule="evenodd" clip-rule="evenodd" d="M0.745422 73.5849L23.9454 60.849C46.3454 48.1132 91.9454 22.6415 137.545 22.6415C183.945 22.6415 229.545 48.1132 275.145 64.033C320.745 79.9528 366.345 86.3207 411.945 73.5849C457.545 60.849 503.945 29.0094 549.545 22.6415C595.145 16.2735 640.745 35.3773 686.345 32.1934C731.945 29.0094 777.545 3.5377 823.945 0.353733C869.545 -2.83023 915.145 16.2735 937.545 25.8254L960.745 35.3773V150H937.545C915.145 150 869.545 150 823.945 150C777.545 150 731.945 150 686.345 150C640.745 150 595.145 150 549.545 150C503.945 150 457.545 150 411.945 150C366.345 150 320.745 150 275.145 150C229.545 150 183.945 150 137.545 150C91.9454 150 46.3454 150 23.9454 150H0.745422V73.5849Z" fill="url(#paint0_radial)"/>
<defs>
<radialGradient id="paint0_radial" cx="0" cy="0" r="1" gradientUnits="userSpaceOnUse" gradientTransform="translate(0.924351 74.9999) scale(960 12439.7)">
<stop stop-color="#A92994"/>
<stop offset="0.0001" stop-color="#A92994"/>
<stop offset="1" stop-color="#501393"/>
</radialGradient>
</defs>
</svg>
