<svg width="601" height="150" viewBox="0 0 601 150" fill="none" xmlns="http://www.w3.org/2000/svg">
<path fill-rule="evenodd" clip-rule="evenodd" d="M0.745422 73.5849L15.2454 60.849C29.2454 48.1132 57.7454 22.6415 86.2454 22.6415C115.245 22.6415 143.745 48.1132 172.245 64.033C200.745 79.9528 229.245 86.3207 257.745 73.5849C286.245 60.849 315.245 29.0094 343.745 22.6415C372.245 16.2735 400.745 35.3773 429.245 32.1934C457.745 29.0094 486.245 3.5377 515.245 0.353733C543.745 -2.83023 572.245 16.2735 586.245 25.8254L600.745 35.3773V150H586.245C572.245 150 543.745 150 515.245 150C486.245 150 457.745 150 429.245 150C400.745 150 372.245 150 343.745 150C315.245 150 286.245 150 257.745 150C229.245 150 200.745 150 172.245 150C143.745 150 115.245 150 86.2454 150C57.7454 150 29.2454 150 15.2454 150H0.745422V73.5849Z" fill="#6C1A93"/>
</svg>
